<svg width="47" height="46" viewBox="0 0 47 46" fill="none" xmlns="http://www.w3.org/2000/svg">
<path d="M23.4054 32.129C28.6336 32.129 32.8718 27.8908 32.8718 22.6627C32.8718 17.4345 28.6336 13.1963 23.4054 13.1963C18.1773 13.1963 13.9391 17.4345 13.9391 22.6627C13.9391 27.8908 18.1773 32.129 23.4054 32.129Z" fill="#188FD1"/>
<path d="M3.76282 11.3031C5.76121 7.86464 8.62717 5.01102 12.0742 3.02748C15.5212 1.04395 19.4285 0 23.4055 0C27.3825 0 31.2898 1.04395 34.7368 3.02748C38.1839 5.01102 41.0498 7.86464 43.0482 11.3031L29.0853 12.9597C27.3683 11.9682 25.4217 11.4434 23.439 11.4374C21.4563 11.4314 19.5065 11.9445 17.7835 12.9256C16.0606 13.9067 14.6244 15.3218 13.6178 17.03C12.6113 18.7382 12.0693 20.6801 12.0459 22.6627L3.76282 11.3031Z" fill="#EA3939"/>
<path d="M23.4053 45.3819C19.42 45.3761 15.5063 44.3222 12.0571 42.3258C8.60791 40.3294 5.74452 37.4609 3.75437 34.0081C1.76421 30.5553 0.717312 26.6397 0.718751 22.6544C0.720191 18.6691 1.76992 14.7543 3.76257 11.303L12.0456 22.6626C12.0691 24.6452 12.611 26.5871 13.6176 28.2954C14.6242 30.0036 16.0603 31.4186 17.7833 32.3997C19.5063 33.3808 21.456 33.8939 23.4387 33.8879C25.4214 33.882 27.3681 33.3571 29.0851 32.3656L23.4053 45.3819Z" fill="#4AAE48"/>
<path d="M43.0482 11.303C45.0409 14.7543 46.0906 18.6691 46.092 22.6544C46.0935 26.6397 45.0466 30.5553 43.0564 34.0081C41.0663 37.4609 38.2029 40.3294 34.7537 42.3258C31.3045 44.3222 27.3908 45.3761 23.4055 45.3819L29.0853 32.3656C30.7503 31.352 32.1265 29.927 33.0814 28.2277C34.0364 26.5283 34.538 24.6119 34.538 22.6626C34.538 20.7133 34.0364 18.7969 33.0814 17.0975C32.1265 15.3982 30.7503 13.9732 29.0853 12.9596L43.0482 11.303Z" fill="#FED14B"/>
</svg>
