<svg width="46" height="47" viewBox="0 0 46 47" fill="none" xmlns="http://www.w3.org/2000/svg">
<path d="M38.9124 40.7977C44.3955 35.6802 46.8324 27.151 45.3702 18.9873H23.5598V28.0039H35.9881C35.5007 30.9282 33.7949 33.3651 31.358 34.9491L38.9124 40.7977Z" fill="#4285F4"/>
<path d="M2.84583 33.6089C4.44871 36.7664 6.74746 39.5188 9.56879 41.6587C12.3901 43.7986 15.6604 45.2701 19.1332 45.9623C22.6059 46.6545 26.1905 46.5493 29.6166 45.6547C33.0428 44.7601 36.2212 43.0994 38.9122 40.7978L31.3578 34.9492C24.8999 39.2138 14.1775 37.6298 10.5221 27.6384L2.84583 33.6089Z" fill="#34A853"/>
<path d="M10.5225 27.6379C9.54775 24.5918 9.54775 21.7893 10.5225 18.7432L2.84622 12.7727C0.0437645 18.3776 -0.809157 26.2976 2.84622 33.6084L10.5225 27.6379Z" fill="#FBBC02"/>
<path d="M10.5221 18.7434C13.2027 10.336 24.6563 5.4622 32.3326 12.6511L39.0341 6.07143C29.5301 -3.06702 11.0095 -2.70148 2.84583 12.773L10.5221 18.7434Z" fill="#EA4335"/>
</svg>
