<svg width="151" height="132" viewBox="0 0 151 132" fill="none" xmlns="http://www.w3.org/2000/svg">
<path d="M139.45 43.7985C140.394 40.7964 141.022 37.5213 141.022 33.9736C141.023 15.142 123.412 0.131714 102.029 0.131714C87.2489 0.131714 74.6702 7.22746 68.0663 17.5983C63.6637 15.9609 58.6323 14.8691 53.601 14.8691C35.6765 14.8691 21.2111 26.3317 18.6951 41.0691C8.31764 43.2524 0.770615 51.1669 0.770615 60.9921C0.770615 72.1818 11.4626 81.4608 24.3555 81.4608H126.872C139.765 81.4608 150.456 72.1815 150.456 60.9921C150.142 53.6234 145.74 47.3463 139.45 43.7985Z" fill="#F2F2F2"/>
<path d="M18.3807 46.5274C20.8964 31.79 35.6762 20.3275 53.2865 20.3275C58.6324 20.3275 63.3495 21.4192 67.7519 23.0566C74.3557 12.6858 87.2489 5.59007 101.714 5.59007C122.154 5.59007 139.136 19.2359 140.708 36.9754C140.708 36.1566 140.708 35.0651 140.708 34.2463C140.708 15.415 123.098 0.404663 101.714 0.404663C86.9344 0.404663 74.3557 7.50041 67.7519 17.8712C63.3492 16.2338 58.3179 15.142 53.2865 15.142C35.362 15.142 20.8967 26.6046 18.3807 41.342C8.00319 43.5253 0.456161 51.4399 0.456161 61.2651C0.456161 62.0839 0.456161 63.1754 0.770658 63.9942C2.02835 55.2606 9.26087 48.4378 18.3807 46.5274Z" fill="#CDD6E0"/>
<path d="M139.45 51.9865C144.482 54.9886 148.255 59.6281 149.513 65.0865C149.828 63.722 150.142 62.3573 150.142 60.9929C150.142 54.4427 146.683 48.7117 141.023 44.8907C140.708 47.3467 140.394 49.8029 139.45 51.9865Z" fill="#F2F2F2"/>
<path d="M124.04 93.4691V107.388H117.751V98.9275H78.4427V107.388H72.1533V98.9275H32.8451V107.388H26.5558V93.4691H72.1533V81.188H78.4427V93.4691H124.04Z" fill="#CDD6E0"/>
<path d="M85.9905 131.132H64.9213C61.4621 131.132 58.6319 128.675 58.6319 125.673V112.846C58.6319 109.844 61.4621 107.388 64.9213 107.388H85.9905C89.4496 107.388 92.2798 109.844 92.2798 112.846V125.673C92.2798 128.675 89.4493 131.132 85.9905 131.132Z" fill="#84DBFF"/>
<path d="M131.588 131.132H110.519C107.06 131.132 104.23 128.675 104.23 125.673V112.846C104.23 109.844 107.06 107.388 110.519 107.388H131.588C135.047 107.388 137.877 109.844 137.877 112.846V125.673C137.877 128.675 135.047 131.132 131.588 131.132Z" fill="#FFD15C"/>
<path d="M40.0784 131.132H19.0092C15.55 131.132 12.7198 128.675 12.7198 125.673V112.846C12.7198 109.844 15.55 107.388 19.0092 107.388H40.0784C43.5375 107.388 46.3677 109.844 46.3677 112.846V125.673C46.3677 128.675 43.5375 131.132 40.0784 131.132Z" fill="#4CDBC4"/>
<path d="M78.4428 81.188H72.1534V85.2816H78.4428V81.188Z" fill="#B8CAD8"/>
</svg>
