<svg width="202" height="67" viewBox="0 0 202 67" fill="none" xmlns="http://www.w3.org/2000/svg">
<path d="M25.0088 0.877686H26.7997C33.017 1.01284 39.133 3.51329 43.5256 7.93974C41.9037 9.59544 40.248 11.1836 38.6599 12.8393C36.1933 10.6091 33.2198 8.88586 29.9759 8.27764C25.1778 7.26395 20.008 8.17627 15.987 10.9132C11.5943 13.7854 8.62081 18.6511 7.9788 23.8547C7.26922 28.9908 8.72218 34.3971 12.0674 38.3843C15.2774 42.2701 20.1769 44.703 25.2454 44.8719C29.9759 45.1423 34.9092 43.6893 38.3558 40.3779C41.059 38.0464 42.3092 34.4985 42.7147 31.0519C37.1056 31.0519 31.4965 31.0857 25.8874 31.0519V24.0912H49.5064C50.7228 31.5588 48.9658 39.9724 43.2891 45.3112C39.5046 49.0957 34.2672 51.3258 28.9285 51.7651C23.7586 52.2719 18.4198 51.292 13.8244 48.7916C8.3167 45.8519 3.92403 40.8848 1.76149 35.0391C-0.265897 29.6666 -0.299686 23.5844 1.59254 18.178C3.31582 13.2447 6.62721 8.88586 10.8847 5.84478C14.9733 2.83749 19.9404 1.18179 25.0088 0.877686Z" fill="#3780FF"/>
<path d="M160.506 2.63403H167.737V50.8858C165.338 50.8858 162.905 50.9196 160.506 50.852C160.54 34.8019 160.506 18.718 160.506 2.63403V2.63403Z" fill="#38B137"/>
<path d="M65.5901 19.3613C70.0503 18.5165 74.8823 19.4626 78.5653 22.132C81.9105 24.4973 84.242 28.2142 84.9516 32.269C85.8639 36.9657 84.7151 42.1018 81.674 45.8186C78.3964 49.9748 73.0238 52.2049 67.7864 51.867C62.9883 51.5967 58.3253 49.1976 55.4869 45.278C52.2769 40.9529 51.4997 35.0059 53.2568 29.9375C55.0139 24.4973 59.981 20.3412 65.5901 19.3613V19.3613ZM66.6038 25.7813C64.7791 26.2544 63.0896 27.3019 61.8732 28.7886C58.5956 32.7082 58.7983 39.0945 62.4138 42.7438C64.475 44.8387 67.5837 45.8186 70.4558 45.2442C73.1252 44.7712 75.4567 42.9803 76.7407 40.615C78.9708 36.594 78.3288 31.0525 74.916 27.9101C72.7197 25.8827 69.5097 25.0379 66.6038 25.7813Z" fill="#FA3913"/>
<path d="M101.408 19.3598C106.511 18.3799 112.086 19.7991 115.904 23.3808C122.122 28.9561 122.797 39.3972 117.492 45.8172C114.282 49.872 109.079 52.1021 103.943 51.8656C99.0431 51.7304 94.2112 49.2976 91.3053 45.2766C88.0277 40.8501 87.3181 34.768 89.1765 29.5981C91.0349 24.3269 95.9007 20.306 101.408 19.3598V19.3598ZM102.422 25.7799C100.597 26.253 98.908 27.3004 97.6915 28.7534C94.4477 32.6054 94.5829 38.8903 98.0632 42.5734C100.124 44.7697 103.334 45.851 106.308 45.2428C108.944 44.736 111.309 42.9789 112.593 40.6136C114.789 36.5588 114.147 31.0173 110.701 27.8749C108.504 25.8475 105.294 25.0365 102.422 25.7799Z" fill="#FCBD06"/>
<path d="M131.783 21.3207C135.669 18.8878 140.839 18.212 145.029 20.307C146.346 20.8814 147.428 21.8613 148.475 22.8412C148.509 21.9289 148.475 20.9828 148.509 20.0367C150.773 20.0705 153.037 20.0367 155.334 20.0705V49.873C155.301 54.3671 154.152 59.1314 150.908 62.409C147.36 66.0246 141.92 67.1396 137.02 66.3962C131.783 65.6191 127.221 61.8008 125.194 56.9689C127.221 55.989 129.35 55.2118 131.445 54.2995C132.628 57.0703 135.027 59.4355 138.034 59.9762C141.041 60.5168 144.522 59.7734 146.481 57.273C148.576 54.705 148.576 51.1908 148.475 48.0484C146.921 49.5689 145.13 50.9205 142.967 51.4274C138.271 52.7452 133.101 51.1233 129.485 47.947C125.836 44.7708 123.673 39.8713 123.876 35.0056C123.978 29.4978 127.086 24.1928 131.783 21.3207V21.3207ZM138.777 25.6458C136.716 25.9837 134.79 27.1325 133.472 28.7207C130.296 32.5051 130.296 38.5535 133.506 42.2704C135.331 44.4667 138.271 45.6831 141.109 45.379C143.778 45.1087 146.245 43.4192 147.563 41.0877C149.793 37.1343 149.421 31.7617 146.414 28.3152C144.555 26.1864 141.582 25.1389 138.777 25.6458V25.6458Z" fill="#3780FF"/>
<path d="M176.423 23.0436C180.477 19.2591 186.728 17.9751 191.932 19.9687C196.865 21.8272 200.008 26.5239 201.596 31.3559C194.264 34.3969 186.965 37.4042 179.633 40.4453C180.646 42.3713 182.201 44.1284 184.296 44.838C187.235 45.8855 190.749 45.5138 193.216 43.554C194.196 42.8106 194.973 41.8307 195.716 40.8846C197.575 42.1348 199.433 43.3512 201.292 44.6014C198.656 48.5549 194.23 51.3256 189.465 51.7649C184.194 52.4069 178.585 50.3795 175.172 46.2571C169.563 39.7695 170.104 28.8892 176.423 23.0436V23.0436ZM180.038 29.2947C178.889 30.9504 178.416 32.9778 178.45 34.9714C183.349 32.944 188.249 30.9166 193.148 28.8554C192.338 26.9632 190.378 25.8143 188.384 25.5102C185.174 24.9358 181.829 26.6591 180.038 29.2947V29.2947Z" fill="#FA3913"/>
</svg>
