<svg width="151" height="132" viewBox="0 0 151 132" fill="none" xmlns="http://www.w3.org/2000/svg">
<path d="M119.919 62.1772C131.346 62.1772 140.609 52.9141 140.609 41.4874C140.609 30.0608 131.346 20.7977 119.919 20.7977C108.493 20.7977 99.2296 30.0608 99.2296 41.4874C99.2296 52.9141 108.493 62.1772 119.919 62.1772Z" fill="#94DAF9"/>
<path d="M150.956 75.1083C150.956 59.3968 138.219 46.6601 122.508 46.6601C121.635 46.6601 120.773 46.7056 119.92 46.7827C119.92 46.742 119.922 46.7013 119.922 46.6601C119.922 20.9501 99.0802 0.108276 73.3702 0.108276C49.2738 0.108276 29.4536 18.4164 27.0609 41.8816C12.2645 44.2443 0.956177 57.0607 0.956177 72.5223C0.956177 89.6621 14.8509 103.557 31.9907 103.557H125.094V103.435C139.593 102.127 150.956 89.9476 150.956 75.1083Z" fill="#C1E8E6"/>
<path d="M119.919 62.1772C131.346 62.1772 140.609 52.9141 140.609 41.4874C140.609 30.0608 131.346 20.7977 119.919 20.7977C108.493 20.7977 99.2296 30.0608 99.2296 41.4874C99.2296 52.9141 108.493 62.1772 119.919 62.1772Z" fill="#8EC8F0"/>
<path d="M122.506 46.6604C121.633 46.6604 120.771 46.7059 119.918 46.783C119.918 46.7423 119.92 46.7016 119.92 46.6604C119.92 21.0987 99.3168 0.35285 73.8116 0.114136V103.557H125.092V103.435C139.591 102.127 150.955 89.9479 150.955 75.1086C150.954 59.3971 138.217 46.6604 122.506 46.6604Z" fill="#8EC8F0"/>
<path d="M95.3013 73.0277C87.7662 73.0277 81.2673 68.6087 78.2433 62.223H69.3818C66.3577 68.6087 59.8589 73.0277 52.3238 73.0277C49.5179 73.0277 46.8556 72.4145 44.462 71.3156V106.248C44.462 121.025 73.8128 131.406 73.8128 131.406C73.8128 131.406 103.163 121.025 103.163 106.248V71.3156C100.769 72.414 98.1072 73.0277 95.3013 73.0277Z" fill="#F9E375"/>
<path d="M95.3006 73.0277C87.7655 73.0277 81.2666 68.6087 78.2426 62.223H73.8116V131.407C73.8116 131.407 103.162 121.026 103.162 106.249V71.3165C100.769 72.414 98.1065 73.0277 95.3006 73.0277Z" fill="#F5D361"/>
</svg>
