<svg width="71" height="71" viewBox="0 0 71 71" fill="none" xmlns="http://www.w3.org/2000/svg">
<circle cx="35.9562" cy="35.2108" r="35" fill="#ACECF0"/>
<path d="M30.5016 12.4833V16.1196H41.4107V12.4833H30.5016ZM35.9562 17.9378C24.9325 17.9378 15.9562 26.916 15.9562 37.9378C15.9562 48.9615 24.9344 57.9378 35.9562 57.9378C46.9798 57.9378 55.9562 48.9596 55.9562 37.9378C55.9562 32.6324 53.8889 27.7742 50.5016 24.1869L53.6271 21.0633L51.0107 18.4469L47.7198 21.7451C44.3011 19.2615 40.1818 17.9283 35.9562 17.9378ZM35.9562 21.5742C45.0107 21.5742 52.3198 28.8833 52.3198 37.9378C52.3198 46.9924 45.0107 54.3015 35.9562 54.3015C26.9016 54.3015 19.5925 46.9924 19.5925 37.9378C19.5925 28.8833 26.9016 21.5742 35.9562 21.5742ZM34.138 25.2105V34.8124C33.0507 35.4451 32.3198 36.5942 32.3198 37.9378C32.3198 39.2796 33.0507 40.4305 34.138 41.0633V43.3924H37.7744V41.0633C38.8616 40.4305 39.5925 39.2815 39.5925 37.9378C39.5925 36.596 38.8616 35.4451 37.7744 34.8124V25.2105H34.138Z" fill="black"/>
</svg>
