<svg width="71" height="71" viewBox="0 0 71 71" fill="none" xmlns="http://www.w3.org/2000/svg">
<circle cx="35.0695" cy="35.7118" r="35" fill="#ACECF0"/>
<path d="M44.8243 32.6612C44.2752 32.6612 43.726 32.8442 43.2989 33.2103V32.6612C43.2989 31.868 42.9329 31.0138 42.3227 30.4036C41.8346 29.9155 41.2245 29.6105 40.5533 29.6105C40.0041 29.6105 39.455 29.7935 39.0279 30.1596C38.9669 29.3664 38.6618 28.5732 38.0517 27.9631C37.5636 27.4749 36.9535 27.1699 36.2823 27.1699C35.7331 27.1699 35.184 27.353 34.7569 27.719V25.3395C34.7569 23.8751 33.5977 22.2887 32.0112 22.2887C30.4248 22.2887 29.2656 23.8751 29.2656 25.3395V34.5527C28.7164 33.3934 27.9843 32.2952 27.2521 31.563C26.2759 30.5868 24.3234 30.5257 23.2251 31.4409C22.92 31.746 21.8828 32.8443 23.2861 34.7967C24.5674 36.5662 25.1775 40.288 25.5436 42.4846L25.6657 43.0947C26.4589 47.6708 28.8995 49.1352 29.9367 49.5623V53.4062C29.9367 53.7723 30.1807 54.0163 30.5468 54.0163C30.9129 54.0163 31.1569 53.7723 31.1569 53.4062V49.1352C31.1569 48.8301 30.9739 48.586 30.6688 48.5251C30.5467 48.4641 27.7401 47.7929 26.8859 42.9117L26.7638 42.3015C26.3367 39.7999 25.7265 36.078 24.3232 34.1255C23.8962 33.5764 23.5301 32.8442 24.0792 32.4171C24.6893 31.929 25.9096 31.929 26.4588 32.4781C27.9841 34.0035 29.3265 37.2373 29.3265 38.7626C29.3265 39.1287 29.5705 39.3728 29.9366 39.3728C30.3027 39.3728 30.5467 39.1287 30.5467 38.7626V25.3394C30.5467 24.4852 31.2179 23.5089 32.0721 23.5089C32.9263 23.5089 33.5974 24.4852 33.5974 25.3394V30.1595V30.2205V36.322C33.5974 36.6881 33.8415 36.9321 34.2076 36.9321C34.5737 36.9321 34.8177 36.6881 34.8177 36.322V30.1595C34.8787 29.3663 35.4889 28.39 36.343 28.39C36.6481 28.39 36.9532 28.5121 37.2583 28.8171C37.6244 29.1832 37.8684 29.7323 37.8684 30.2205V36.9321C37.8684 37.2982 38.1124 37.5422 38.4785 37.5422C38.8446 37.5422 39.0886 37.2982 39.0886 36.9321V32.6611C39.0886 31.8069 39.7598 30.8307 40.614 30.8307C40.9191 30.8307 41.2241 30.9527 41.5292 31.2577C41.8953 31.6238 42.1393 32.173 42.1393 32.6611V35.5288C42.1393 35.5898 42.1393 35.6509 42.1393 35.7119V36.9322C42.1393 37.2983 42.3834 37.5423 42.7495 37.5423C43.1155 37.5423 43.3596 37.2983 43.3596 36.9322V35.5899C43.4206 34.7967 44.0918 33.8815 44.8849 33.8815C45.7392 33.8815 46.4103 34.8577 46.4103 35.7119V43.0337C46.4103 46.6336 46.4103 46.6336 45.556 47.7319C45.312 47.9759 45.0679 48.342 44.7018 48.7692C44.5798 48.8912 44.5798 49.0743 44.5798 49.1962V53.4063C44.5798 53.7724 44.8238 54.0164 45.1899 54.0164C45.556 54.0164 45.8 53.7724 45.739 53.4063V49.3183C45.983 48.9522 46.2272 48.7082 46.4102 48.4641C47.5695 47.0607 47.5695 46.8776 47.5695 42.9727V35.7119C47.57 34.2476 46.4107 32.6612 44.8243 32.6612Z" fill="black"/>
<path d="M32.3788 21.068C32.7449 21.068 32.9889 20.824 32.9889 20.4579V18.0172C32.9889 17.6511 32.7449 17.4071 32.3788 17.4071C32.0127 17.4071 31.7687 17.6511 31.7687 18.0172V20.4578C31.7687 20.824 32.0127 21.068 32.3788 21.068Z" fill="black"/>
<path d="M36.0387 24.1183C36.0387 24.4844 36.2827 24.7284 36.6488 24.7284H39.0894C39.4555 24.7284 39.6995 24.4844 39.6995 24.1183C39.6995 23.7522 39.4555 23.5082 39.0894 23.5082H36.6488C36.2827 23.5081 36.0387 23.7522 36.0387 24.1183Z" fill="black"/>
<path d="M25.0546 24.7284H27.4952C27.8612 24.7284 28.1053 24.4844 28.1053 24.1183C28.1053 23.7522 27.8612 23.5082 27.4952 23.5082H25.0546C24.6885 23.5082 24.4445 23.7522 24.4445 24.1183C24.4445 24.4844 24.6885 24.7284 25.0546 24.7284Z" fill="black"/>
<path d="M35.4282 22.2889C35.6112 22.2889 35.7333 22.2279 35.8553 22.1059L37.6857 20.2754C37.9297 20.0314 37.9297 19.6653 37.6857 19.4212C37.4417 19.1771 37.0756 19.1772 36.8315 19.4212L35.001 21.2517C34.757 21.4957 34.757 21.8618 35.001 22.1059C35.1231 22.2279 35.2451 22.2889 35.4282 22.2889Z" fill="black"/>
<path d="M28.2891 22.1059C28.4111 22.2279 28.5331 22.2889 28.7162 22.2889C28.8992 22.2889 29.0213 22.2279 29.1432 22.1059C29.3873 21.8618 29.3873 21.4957 29.1432 21.2516L27.3128 19.4212C27.0688 19.1772 26.7027 19.1772 26.4586 19.4212C26.2145 19.6652 26.2145 20.0313 26.4586 20.2754L28.2891 22.1059Z" fill="black"/>
<path d="M38.4793 48.5248C38.8454 48.5248 39.0894 48.2808 39.0894 47.9147C39.0894 47.5486 38.8454 47.3046 38.4793 47.3046H36.6488C36.2827 47.3046 36.0387 47.5486 36.0387 47.9147C36.0387 48.2808 36.2827 48.5248 36.6488 48.5248H38.4793Z" fill="black"/>
<path d="M39.0892 49.746H36.0385C35.6724 49.746 35.4283 49.99 35.4283 50.3561C35.4283 50.7222 35.6724 50.9662 36.0385 50.9662H39.0892C39.4553 50.9662 39.6994 50.7222 39.6994 50.3561C39.6994 49.99 39.4553 49.746 39.0892 49.746Z" fill="black"/>
</svg>
