<svg width="71" height="71" viewBox="0 0 71 71" fill="none" xmlns="http://www.w3.org/2000/svg">
<circle cx="35.9054" cy="35.2098" r="35" fill="#CAF0AC"/>
<path d="M55.9054 17.2401C55.9054 16.1206 54.9946 15.2098 53.8752 15.2098H37.2877C36.754 15.2098 36.2682 15.4171 35.9054 15.755C35.5426 15.4171 35.0568 15.2098 34.5231 15.2098H17.9356C16.8162 15.2098 15.9054 16.1206 15.9054 17.2401V33.8275C15.9054 34.3612 16.1127 34.8471 16.4505 35.2098C16.1127 35.5726 15.9054 36.0585 15.9054 36.5921V53.1796C15.9054 54.2991 16.8162 55.2098 17.9356 55.2098H34.5231C35.0568 55.2098 35.5426 55.0026 35.9054 54.6647C36.2682 55.0026 36.754 55.2098 37.2877 55.2098H53.8752C54.9946 55.2098 55.9054 54.2991 55.9054 53.1796V36.5921C55.9054 36.0585 55.6981 35.5726 55.3603 35.2098C55.6981 34.8471 55.9054 34.3612 55.9054 33.8275V17.2401ZM37.2877 16.5057H53.8752C54.2801 16.5057 54.6095 16.8352 54.6095 17.2401V33.8275C54.6095 34.2325 54.2801 34.5619 53.8752 34.5619H48.2542C47.8999 34.5619 47.6117 34.2736 47.6117 33.9193V33.5975C47.6117 33.3865 47.7307 33.1818 47.9383 33.0361C49.2511 32.1139 49.8967 30.5516 49.623 28.9588C49.3427 27.3276 48.0713 26.0053 46.4589 25.6686C45.2215 25.4101 43.9587 25.7114 42.9947 26.4948C42.0307 27.2783 41.4777 28.4396 41.4777 29.6807C41.4777 31.0254 42.14 32.2861 43.2492 33.0532C43.4411 33.1859 43.5512 33.3825 43.5512 33.5926V33.9192C43.5512 34.2736 43.2629 34.5618 42.9086 34.5618H36.5533V28.2066C36.5533 27.1377 35.6838 26.2682 34.6149 26.2682H34.2883C33.6559 26.2682 33.0557 26.59 32.6829 27.129C32.1578 27.8883 31.2955 28.3416 30.3762 28.3416C29.527 28.3416 28.7324 27.9631 28.1959 27.3031C27.6517 26.6335 27.4517 25.7875 27.6327 24.9211C27.858 23.8421 28.7795 22.9573 29.8737 22.7694C30.9681 22.5812 32.0398 23.0231 32.671 23.9218C33.0629 24.4796 33.654 24.7995 34.293 24.7995H34.6149C35.6838 24.7995 36.5533 23.9299 36.5533 22.861V17.2401C36.5533 16.8352 36.8828 16.5057 37.2877 16.5057ZM17.2013 17.2401C17.2013 16.8352 17.5307 16.5057 17.9356 16.5057H34.5231C34.928 16.5057 35.2574 16.8352 35.2574 17.2401V22.861C35.2574 23.2154 34.9692 23.5036 34.6149 23.5036H34.293C34.082 23.5036 33.8773 23.3845 33.7316 23.177C32.8095 21.8642 31.2475 21.2182 29.6543 21.4923C28.0231 21.7723 26.7008 23.0439 26.3641 24.6562C26.1056 25.8938 26.4067 27.1564 27.1902 28.1205C27.9738 29.0846 29.135 29.6375 30.3762 29.6375C31.7209 29.6375 32.9818 28.9753 33.7488 27.8661C33.8816 27.6741 34.0782 27.5641 34.2883 27.5641H34.6149C34.9692 27.5641 35.2574 27.8523 35.2574 28.2066V34.5619H28.9022C27.8333 34.5619 26.9637 35.4314 26.9637 36.5004V36.8269C26.9637 37.4594 27.2855 38.0596 27.8245 38.4323C28.5838 38.9574 29.0371 39.8197 29.0371 40.739C29.0371 41.5882 28.6587 42.383 27.9986 42.9193C27.3291 43.4634 26.4832 43.6636 25.6166 43.4825C24.5377 43.2573 23.6529 42.3357 23.4649 41.2415C23.277 40.1473 23.7185 39.0754 24.6173 38.4441C25.175 38.0523 25.4949 37.4612 25.4949 36.8223V36.5005C25.495 35.4314 24.6255 34.5619 23.5565 34.5619H17.9356C17.5307 34.5619 17.2013 34.2325 17.2013 33.8275V17.2401ZM34.5231 53.9139H17.9356C17.5307 53.9139 17.2013 53.5845 17.2013 53.1796V36.5921C17.2013 36.1872 17.5307 35.8578 17.9356 35.8578H23.5565C23.9109 35.8578 24.1991 36.1461 24.1991 36.5004V36.8222C24.1991 37.0332 24.0801 37.2378 23.8725 37.3836C22.5597 38.3057 21.9141 39.868 22.1877 41.4607C22.468 43.0921 23.7395 44.4143 25.3517 44.751C25.6423 44.8117 25.9342 44.8415 26.2233 44.8415C27.1657 44.8415 28.0783 44.5245 28.8159 43.925C29.7801 43.1415 30.333 41.9802 30.333 40.739C30.333 39.3943 29.6708 38.1335 28.5616 37.3665C28.3697 37.2338 28.2596 37.0371 28.2596 36.827V36.5005C28.2596 36.1461 28.5478 35.8579 28.9022 35.8579H35.2574V42.2131C35.2574 43.282 36.1271 44.1515 37.1959 44.1515H37.5177C38.1567 44.1515 38.7479 43.8316 39.1396 43.2738C39.771 42.375 40.8428 41.9336 41.937 42.1215C43.0313 42.3095 43.9528 43.1943 44.1781 44.2733C44.359 45.1397 44.159 45.9856 43.6148 46.6552C43.0784 47.3152 42.2838 47.6936 41.4346 47.6936C40.5152 47.6936 39.653 47.2403 39.1279 46.4809C38.7551 45.942 38.155 45.6202 37.5225 45.6202H37.1959C36.1271 45.6202 35.2574 46.4898 35.2574 47.5587V53.1796C35.2574 53.5845 34.928 53.9139 34.5231 53.9139ZM54.6095 53.1796C54.6095 53.5845 54.2801 53.9139 53.8752 53.9139H37.2877C36.8828 53.9139 36.5533 53.5845 36.5533 53.1796V47.5587C36.5533 47.2043 36.8416 46.9161 37.1959 46.9161H37.5225C37.7326 46.9161 37.9292 47.0262 38.0619 47.218C38.829 48.3273 40.0898 48.9895 41.4346 48.9895C42.6757 48.9895 43.837 48.4366 44.6205 47.4725C45.404 46.5086 45.705 45.246 45.4466 44.0083C45.11 42.396 43.7878 41.1245 42.1565 40.8442C40.5635 40.5698 39.0014 41.2161 38.0792 42.5289C37.9334 42.7365 37.7288 42.8555 37.5177 42.8555H37.1959C36.8416 42.8555 36.5533 42.5672 36.5533 42.2129V35.8578H42.9086C43.9774 35.8578 44.8471 34.9882 44.8471 33.9193V33.5927C44.8471 32.9602 44.5253 32.3601 43.9863 31.9874C43.227 31.4623 42.7736 30.6 42.7736 29.6807C42.7736 28.8314 43.1521 28.0368 43.8121 27.5005C44.4816 26.9562 45.3277 26.7563 46.194 26.9371C47.273 27.1624 48.1578 28.084 48.3458 29.1781C48.5338 30.2723 48.0923 31.3443 47.1934 31.9755C46.6357 32.3674 46.3158 32.9585 46.3158 33.5975V33.9193C46.3158 34.9882 47.1854 35.8578 48.2542 35.8578H53.8752C54.2801 35.8578 54.6095 36.1872 54.6095 36.5921V53.1796Z" fill="black"/>
</svg>
