<svg width="150" height="133" viewBox="0 0 150 133" fill="none" xmlns="http://www.w3.org/2000/svg">
<path d="M138.993 44.071C139.937 41.0689 140.565 37.7938 140.565 34.246C140.566 15.4145 122.955 0.404175 101.572 0.404175C86.7918 0.404175 74.2132 7.49992 67.6093 17.8707C63.2067 16.2333 58.1753 15.1416 53.144 15.1416C35.2195 15.1416 20.7541 26.6041 18.2381 41.3415C7.86062 43.5248 0.313599 51.4394 0.313599 61.2646C0.313599 72.4542 11.0056 81.7333 23.8985 81.7333H126.415C139.308 81.7333 149.999 72.454 149.999 61.2646C149.685 53.8959 145.283 47.6187 138.993 44.071Z" fill="#F2F2F2"/>
<path d="M17.9237 46.7999C20.4393 32.0625 35.2192 20.5999 52.8295 20.5999C58.1754 20.5999 62.8925 21.6917 67.2949 23.3291C73.8987 12.9583 86.7919 5.86253 101.257 5.86253C121.697 5.86253 138.679 19.5084 140.251 37.2479C140.251 36.4291 140.251 35.3376 140.251 34.5187C140.251 15.6875 122.641 0.677124 101.257 0.677124C86.4774 0.677124 73.8987 7.77287 67.2949 18.1437C62.8922 16.5063 57.8609 15.4145 52.8295 15.4145C34.905 15.4145 20.4396 26.8771 17.9237 41.6145C7.54617 43.7978 -0.000854492 51.7123 -0.000854492 61.5375C-0.000854492 62.3564 -0.000854492 63.4479 0.313642 64.2667C1.57133 55.533 8.80386 48.7102 17.9237 46.7999Z" fill="#CDD6E0"/>
<path d="M138.993 52.259C144.025 55.2611 147.798 59.9006 149.056 65.3589C149.371 63.9945 149.685 62.6298 149.685 61.2653C149.685 54.7152 146.226 48.9842 140.566 45.1632C140.251 47.6192 139.937 50.0754 138.993 52.259Z" fill="#F2F2F2"/>
<path d="M123.583 93.7416V107.66H117.294V99.2H77.9856V107.66H71.6963V99.2H32.3881V107.66H26.0988V93.7416H71.6963V81.4604H77.9856V93.7416H123.583Z" fill="#CDD6E0"/>
<path d="M77.9857 81.4604H71.6964V85.5541H77.9857V81.4604Z" fill="#B8CAD8"/>
<path d="M40.3519 122.134H17.2478C16.7243 122.134 16.2999 121.71 16.2999 121.186V109.212C16.2999 107.818 17.4338 106.684 18.8275 106.684H38.7722C40.1659 106.684 41.2997 107.818 41.2997 109.212V121.186C41.2997 121.71 40.8754 122.134 40.3519 122.134Z" fill="#C7E9F4"/>
<path d="M38.7732 106.684H28.8008V122.134H40.3528C40.8763 122.134 41.3006 121.71 41.3006 121.186V109.212C41.3007 107.818 40.1669 106.684 38.7732 106.684Z" fill="#80D0E1"/>
<path d="M33.2869 129.669H32.2798L31.7488 125.282C31.6912 124.807 31.2872 124.448 30.8078 124.448H26.793C26.3135 124.448 25.9096 124.807 25.852 125.282L25.321 129.669H24.3139C23.0614 129.669 23.0601 131.565 24.3139 131.565C26.3313 131.565 31.2778 131.565 33.2868 131.565C34.5394 131.565 34.5407 129.669 33.2869 129.669Z" fill="#80D0E1"/>
<path d="M33.2863 129.669H32.2793L31.7483 125.282C31.6907 124.807 31.2866 124.448 30.8073 124.448H28.7998V131.565C29.7485 131.565 32.3384 131.565 33.2862 131.565C34.5389 131.565 34.5401 129.669 33.2863 129.669Z" fill="#51B3DA"/>
<path d="M38.7722 126.344H18.8275C17.4316 126.344 16.2999 125.213 16.2999 123.817V120.239H41.2997V123.817C41.2997 125.213 40.1681 126.344 38.7722 126.344Z" fill="#39A3DB"/>
<path d="M28.7998 120.239V126.344H38.7721C40.168 126.344 41.2997 125.213 41.2997 123.817V120.239H28.7998Z" fill="#3797D3"/>
<path d="M86.3929 123.248H63.2888C62.7653 123.248 62.3409 122.823 62.3409 122.3V110.325C62.3409 108.932 63.4748 107.798 64.8685 107.798H84.8132C86.2069 107.798 87.3407 108.932 87.3407 110.325V122.3C87.3407 122.823 86.9164 123.248 86.3929 123.248Z" fill="#C7E9F4"/>
<path d="M84.8142 107.798H74.8418V123.248H86.3938C86.9173 123.248 87.3417 122.823 87.3417 122.3V110.325C87.3417 108.932 86.2079 107.798 84.8142 107.798Z" fill="#80D0E1"/>
<path d="M79.3279 130.782H78.3208L77.7898 126.396C77.7322 125.92 77.3282 125.562 76.8488 125.562H72.834C72.3545 125.562 71.9506 125.92 71.893 126.396L71.362 130.782H70.3549C69.1024 130.782 69.1011 132.678 70.3549 132.678C72.3724 132.678 77.3188 132.678 79.3278 132.678C80.5804 132.678 80.5817 130.782 79.3279 130.782Z" fill="#80D0E1"/>
<path d="M79.3274 130.782H78.3203L77.7893 126.396C77.7317 125.92 77.3277 125.562 76.8483 125.562H74.8408V132.678C75.7895 132.678 78.3794 132.678 79.3273 132.678C80.5799 132.678 80.5812 130.782 79.3274 130.782Z" fill="#51B3DA"/>
<path d="M84.8132 127.457H64.8685C63.4726 127.457 62.3409 126.326 62.3409 124.93V121.352H87.3407V124.93C87.3407 126.326 86.2091 127.457 84.8132 127.457Z" fill="#39A3DB"/>
<path d="M74.8408 121.352V127.457H84.8131C86.209 127.457 87.3407 126.326 87.3407 124.93V121.352H74.8408Z" fill="#3797D3"/>
<path d="M132.434 122.133H109.33C108.806 122.133 108.382 121.709 108.382 121.185V109.211C108.382 107.817 109.516 106.683 110.91 106.683H130.854C132.248 106.683 133.382 107.817 133.382 109.211V121.185C133.382 121.709 132.957 122.133 132.434 122.133Z" fill="#C7E9F4"/>
<path d="M130.855 106.683H120.883V122.133H132.435C132.958 122.133 133.383 121.709 133.383 121.185V109.211C133.383 107.817 132.249 106.683 130.855 106.683Z" fill="#80D0E1"/>
<path d="M125.369 129.668H124.362L123.831 125.281C123.773 124.806 123.369 124.448 122.89 124.448H118.875C118.396 124.448 117.992 124.806 117.934 125.281L117.403 129.668H116.396C115.143 129.668 115.142 131.564 116.396 131.564C118.413 131.564 123.36 131.564 125.369 131.564C126.621 131.564 126.623 129.668 125.369 129.668Z" fill="#80D0E1"/>
<path d="M125.368 129.668H124.361L123.83 125.281C123.773 124.806 123.369 124.448 122.889 124.448H120.882V131.564C121.831 131.564 124.42 131.564 125.368 131.564C126.621 131.564 126.622 129.668 125.368 129.668Z" fill="#51B3DA"/>
<path d="M130.854 126.343H110.91C109.514 126.343 108.382 125.212 108.382 123.816V120.238H133.382V123.816C133.382 125.212 132.25 126.343 130.854 126.343Z" fill="#39A3DB"/>
<path d="M120.882 120.238V126.343H130.854C132.25 126.343 133.382 125.212 133.382 123.816V120.238H120.882Z" fill="#3797D3"/>
</svg>
