<svg width="101" height="78" viewBox="0 0 101 78" fill="none" xmlns="http://www.w3.org/2000/svg">
<path d="M25.9614 27.7364C26.2514 12.7355 41.9574 1.83832 59.3007 0.384623C63.5238 0.0320318 70.6687 -0.0669505 75.957 1.58846L70.9533 10.8195C67.4606 9.93079 63.3371 9.67772 59.2264 9.85803C41.5358 10.4701 30.4027 20.8499 30.1545 31.3447C30.0239 36.9176 32.7146 42.2846 38.057 45.3884L37.7082 45.6864C29.9544 41.8277 25.8035 35.7566 25.9614 27.7364Z" fill="white"/>
<path d="M34.1947 31.2579C35.9491 22.4982 45.7056 15.807 61.0366 16.6069C63.1596 16.7187 65.57 16.9269 67.7214 17.3982L63.2896 25.5699C61.9103 25.3805 59.7568 24.9968 57.9082 24.8973C45.8297 24.2655 38.398 29.2627 37.1653 35.635C36.5034 39.0566 37.9063 42.88 41.4071 45.2839L41.0561 45.5536C35.0615 42.2363 33.1198 36.6131 34.1947 31.2579Z" fill="white"/>
<path d="M41.4351 35.6934C44.3693 30.7593 53.2119 29.1616 61.1069 31.0792L58.7923 35.3221C52.5163 33.878 45.2505 34.8587 43.1681 38.4767C42.036 40.4456 42.6673 43.1513 43.9461 45.0609L43.7117 45.2968C40.7599 42.6564 39.6861 38.6372 41.4351 35.6934Z" fill="white"/>
<path d="M0.957031 71.63V56.9183H4.69618V62.5938H10.7055V56.9183H14.4447V71.63H10.7055V65.821H4.69618V71.63H0.957031V71.63ZM22.101 71.9416C17.8945 71.9416 16.6258 69.3376 16.6258 66.3552C16.6258 63.4395 17.8277 60.9245 22.0343 60.9245C26.3298 60.9245 27.4649 63.5285 27.4649 66.3997C27.4649 69.4489 26.1963 71.9416 22.101 71.9416ZM22.0565 69.3598C23.57 69.3598 23.8593 67.9577 23.8593 66.4442C23.8593 64.9307 23.57 63.5063 22.0343 63.5063C20.5208 63.5063 20.2315 64.9307 20.2315 66.3997C20.2315 67.8909 20.5208 69.3598 22.0565 69.3598ZM28.7558 68.8479L32.0276 68.336C31.9386 68.8702 32.3392 69.3598 33.4298 69.3598C34.0752 69.3598 34.5871 69.1595 34.5871 68.7366C34.5871 67.4012 28.9784 68.2025 28.9784 64.2853C28.9784 62.2599 30.4696 60.9245 33.4075 60.9245C36.0783 60.9245 38.1705 62.0151 37.8144 63.9514L34.3423 64.5524C34.4758 64.0627 34.1865 63.5063 33.363 63.5063C32.6953 63.5063 32.495 63.8401 32.495 64.1295C32.495 65.6875 38.1482 64.6859 38.1482 68.5363C38.1482 70.9178 36.0116 71.9416 33.2962 71.9416C30.7144 71.9416 28.5333 70.9623 28.7558 68.8479V68.8479ZM39.1943 63.8401V61.2361H40.5074L40.7078 58.3872H43.935V61.2361H46.7839V63.8401H43.935V68.247C43.935 68.7589 44.0908 69.0705 44.5359 69.0705C45.0924 69.0705 45.2036 68.4473 45.2482 67.8241L47.7854 68.7144C47.3403 70.4727 46.6503 71.8526 44.1131 71.8526C41.3532 71.8526 40.4629 70.0943 40.4629 68.247V63.8401H39.1943ZM48.698 57.6082C48.698 56.5399 49.5882 55.6719 50.6566 55.6719C51.7471 55.6719 52.6152 56.5399 52.6152 57.6082C52.6152 58.6765 51.7471 59.5668 50.6566 59.5668C49.5882 59.5668 48.698 58.6765 48.698 57.6082ZM48.9205 71.63V61.2361H52.3926V71.63H48.9205ZM54.7073 71.63V61.2361H57.9346V62.8831C58.2016 62.2599 59.0697 60.9245 61.3844 60.9245C62.9201 60.9245 64.7006 61.5477 64.7006 64.7972V71.63H61.2286V65.6875C61.2286 64.4633 60.9392 63.8624 60.227 63.8624C58.9806 63.8624 58.3574 65.5984 58.1794 66.2661V71.63H54.7073ZM66.726 64.7749C66.726 62.3934 68.4843 60.9245 71.7338 60.9245C72.7799 60.9245 73.6701 61.0803 74.4046 61.3919C74.6494 61.0803 74.7385 60.8355 74.7385 60.1678V58.8991L77.4761 59.322C77.5428 59.7226 77.5651 60.0565 77.5651 60.279C77.5651 61.1916 77.1867 61.9706 75.9849 62.5492C76.4077 63.1057 76.6526 63.8401 76.6526 64.6859C76.6526 67.1342 74.8052 68.5808 71.6225 68.5808C70.888 68.5808 70.2426 68.5141 69.6639 68.3583C69.4413 68.5363 69.3078 68.7366 69.3078 68.937C69.3078 69.7827 71.4222 69.7159 73.0692 69.8272C75.8291 70.0275 77.4538 70.8065 77.4538 73.0767C77.4538 76.1704 74.4714 77.0162 71.7783 77.0162C68.7959 77.0162 66.4812 75.9924 66.4812 74.1673C66.4812 73.0322 67.3269 72.3423 68.284 71.7636C67.1711 71.4742 66.4812 70.8065 66.4812 69.8272C66.4812 68.9815 67.0153 68.2915 67.9724 67.557C67.1489 66.9116 66.726 65.9545 66.726 64.7749ZM72.9579 72.5871C71.756 72.5203 71.3109 72.4758 70.4429 72.3868C69.6639 72.9209 69.4636 73.2103 69.4636 73.5441C69.4636 74.0338 69.8865 74.5457 71.7783 74.5457C73.314 74.5457 74.3156 74.2118 74.3156 73.4774C74.3156 72.9654 73.8482 72.6316 72.9579 72.5871V72.5871ZM71.667 66.2884C72.5796 66.2884 73.0469 65.732 73.0469 64.7304C73.0469 63.7511 72.5796 63.2169 71.6893 63.2169C70.799 63.2169 70.3316 63.7734 70.3316 64.7749C70.3316 65.7097 70.7322 66.2884 71.667 66.2884ZM83.7525 71.9416C79.5459 71.9416 78.2773 69.3376 78.2773 66.3552C78.2773 63.4395 79.4792 60.9245 83.6857 60.9245C87.9813 60.9245 89.1164 63.5285 89.1164 66.3997C89.1164 69.4489 87.8478 71.9416 83.7525 71.9416V71.9416ZM83.708 69.3598C85.2214 69.3598 85.5108 67.9577 85.5108 66.4442C85.5108 64.9307 85.2214 63.5063 83.6857 63.5063C82.1723 63.5063 81.8829 64.9307 81.8829 66.3997C81.8829 67.8909 82.1723 69.3598 83.708 69.3598ZM90.9637 71.63V61.2361H94.1909V62.8831C94.458 62.2599 95.326 60.9245 97.6408 60.9245C99.1765 60.9245 100.957 61.5477 100.957 64.7972V71.63H97.485V65.6875C97.485 64.4633 97.1956 63.8624 96.4834 63.8624C95.237 63.8624 94.6138 65.5984 94.4358 66.2661V71.63H90.9637V71.63Z" fill="white"/>
</svg>
