<svg width="101" height="101" viewBox="0 0 101 101" fill="none" xmlns="http://www.w3.org/2000/svg">
<path d="M50.5367 70.8641C62.0591 70.8641 71.3999 61.5234 71.3999 50.0009C71.3999 38.4785 62.0591 29.1377 50.5367 29.1377C39.0142 29.1377 29.6735 38.4785 29.6735 50.0009C29.6735 61.5234 39.0142 70.8641 50.5367 70.8641Z" fill="#188FD1"/>
<path d="M7.24548 24.9647C11.6498 17.3866 17.9662 11.0974 25.5632 6.72584C33.1602 2.35426 41.7717 0.0534668 50.5367 0.0534668C59.3017 0.0534668 67.9131 2.35426 75.5101 6.72584C83.1072 11.0974 89.4235 17.3866 93.8279 24.9647L63.0546 28.6158C59.2704 26.4305 54.9802 25.2739 50.6104 25.2607C46.2406 25.2475 41.9435 26.3783 38.1462 28.5406C34.3489 30.703 31.1837 33.8216 28.9653 37.5864C26.7469 41.3512 25.5524 45.6311 25.5008 50.0006L7.24548 24.9647Z" fill="#EA3939"/>
<path d="M50.5358 100.073C41.7525 100.06 33.1271 97.7372 25.5252 93.3373C17.9234 88.9374 11.6127 82.6153 7.22655 75.0056C2.84038 67.3959 0.533085 58.7662 0.536258 49.9829C0.539431 41.1996 2.85296 32.5717 7.24463 24.9651L25.4999 50.001C25.5516 54.3705 26.746 58.6503 28.9644 62.4151C31.1829 66.1799 34.3481 69.2985 38.1454 71.4609C41.9426 73.6232 46.2398 74.754 50.6096 74.7408C54.9793 74.7277 59.2696 73.571 63.0538 71.3858L50.5358 100.073Z" fill="#4AAE48"/>
<path d="M93.8279 24.9651C98.2196 32.5717 100.533 41.1996 100.536 49.9829C100.539 58.7662 98.2322 67.3959 93.846 75.0056C89.4598 82.6153 83.1491 88.9374 75.5473 93.3373C67.9455 97.7372 59.32 100.06 50.5367 100.073L63.0547 71.3858C66.7242 69.1518 69.7572 66.0112 71.8618 62.266C73.9664 58.5208 75.0719 54.297 75.0719 50.001C75.0719 45.7049 73.9664 41.4811 71.8618 37.7359C69.7572 33.9907 66.7242 30.8501 63.0547 28.6162L93.8279 24.9651Z" fill="#FED14B"/>
</svg>
