<svg width="180" height="180" viewBox="0 0 180 180" fill="none" xmlns="http://www.w3.org/2000/svg">
<g filter="url(#filter0_d_1_487)">
<path d="M89.9562 120.444C117.57 120.444 139.956 98.0583 139.956 70.4441C139.956 42.8299 117.57 20.4441 89.9562 20.4441C62.3419 20.4441 39.9562 42.8299 39.9562 70.4441C39.9562 98.0583 62.3419 120.444 89.9562 120.444Z" fill="url(#paint0_linear_1_487)"/>
</g>
<path d="M89.9562 116.694C115.499 116.694 136.206 95.9873 136.206 70.4441C136.206 44.9009 115.499 24.1941 89.9562 24.1941C64.413 24.1941 43.7062 44.9009 43.7062 70.4441C43.7062 95.9873 64.413 116.694 89.9562 116.694Z" fill="url(#paint1_radial_1_487)"/>
<path d="M90.0342 35.4439C89.7217 35.4439 89.4483 35.2097 89.4483 34.8972V26.7331C89.4483 26.4206 89.7217 26.1863 90.0342 26.1863C90.3467 26.1863 90.6201 26.4206 90.6201 26.7331V34.8972C90.581 35.2097 90.3467 35.4439 90.0342 35.4439Z" fill="#F3F3F3"/>
<path d="M90.0343 35.4831C89.6827 35.4831 89.4093 35.2097 89.4093 34.8972V26.7331C89.4093 26.4206 89.6827 26.1472 90.0343 26.1472C90.3859 26.1472 90.6593 26.4206 90.6593 26.7331V34.8972C90.6593 35.2097 90.3468 35.4831 90.0343 35.4831ZM90.0343 26.225C89.7609 26.225 89.4875 26.4597 89.4875 26.7331V34.8972C89.4875 35.1706 89.7218 35.4053 90.0343 35.4053C90.3077 35.4053 90.5811 35.1706 90.5811 34.8972V26.7331C90.5424 26.4597 90.3077 26.225 90.0343 26.225V26.225Z" fill="white"/>
<path d="M93.9404 31.0695C93.6279 31.0304 93.3937 30.7961 93.3937 30.4836L93.667 26.8505C93.7058 26.5385 93.9796 26.3038 94.2921 26.3429C94.6046 26.382 94.8388 26.6167 94.8388 26.9292L94.5654 30.5618C94.5263 30.8743 94.2529 31.1086 93.9404 31.0699V31.0695Z" fill="#F3F3F3"/>
<path d="M93.9405 31.1081C93.5889 31.069 93.3546 30.7956 93.3546 30.4831L93.628 26.85C93.6671 26.5379 93.9405 26.2645 94.2921 26.3032C94.6433 26.3423 94.878 26.6161 94.878 26.9282L94.6046 30.5613C94.5655 30.9129 94.2921 31.1472 93.9405 31.1081ZM94.2921 26.3815C94.0187 26.3815 93.7449 26.577 93.7449 26.8504L93.4715 30.4835C93.4715 30.7565 93.6671 30.9911 93.9796 31.0298C94.253 31.0298 94.5264 30.8347 94.5264 30.5613L94.7998 26.9282C94.7998 26.6548 94.5655 26.4206 94.2917 26.3815H94.2921Z" fill="white"/>
<path d="M96.8715 36.1469C96.5586 36.0687 96.3634 35.7953 96.4025 35.4828L98.0041 27.4748C98.0824 27.1627 98.3558 26.9671 98.6683 27.0453C98.9808 27.1236 99.1759 27.3969 99.1368 27.7094L97.5352 35.7175C97.4961 35.9905 97.1836 36.1861 96.8711 36.1469H96.8715Z" fill="#F3F3F3"/>
<path d="M96.8715 36.186C96.5195 36.1077 96.3243 35.7952 96.3634 35.4827L97.9651 27.4747C98.0433 27.1626 98.3558 26.9279 98.707 27.0061C99.0586 27.0844 99.2542 27.3969 99.2151 27.7094L97.6135 35.7174C97.5352 36.0295 97.2227 36.2251 96.8715 36.186ZM98.707 27.0844C98.4336 27.0452 98.1602 27.2013 98.082 27.4751L96.4808 35.4831C96.4417 35.7561 96.5977 36.0295 96.9102 36.1081C97.1836 36.1469 97.457 35.9904 97.5352 35.717L99.1368 27.7094C99.176 27.3969 98.9808 27.1626 98.707 27.0844V27.0844Z" fill="white"/>
<path d="M101.558 32.6319C101.484 32.614 101.414 32.5815 101.352 32.5365C101.29 32.4914 101.238 32.4346 101.198 32.3693C101.158 32.304 101.131 32.2315 101.119 32.1559C101.108 32.0802 101.111 32.003 101.129 31.9287L102.105 28.4133C102.183 28.1008 102.496 27.9444 102.808 28.0226C103.121 28.1008 103.316 28.4133 103.238 28.7258L102.261 32.2416C102.183 32.5537 101.871 32.7101 101.558 32.6319Z" fill="#F3F3F3"/>
<path d="M101.557 32.6703C101.245 32.5921 101.01 32.2405 101.128 31.9284L102.104 28.4123C102.182 28.1002 102.534 27.9046 102.846 27.9828C103.159 28.0611 103.393 28.4127 103.276 28.7248L102.299 32.2409C102.221 32.553 101.909 32.7486 101.557 32.6703H101.557ZM102.846 28.1002C102.573 28.0219 102.26 28.1784 102.182 28.4518L101.206 31.9671C101.128 32.2405 101.284 32.5143 101.596 32.5921C101.87 32.6703 102.182 32.5143 102.26 32.2409L103.237 28.7248C103.276 28.4518 103.12 28.1784 102.846 28.0998V28.1002Z" fill="white"/>
<path d="M103.473 38.1392C103.161 38.0219 103.044 37.6703 103.161 37.3969L106.286 29.8578C106.403 29.5844 106.755 29.4279 107.028 29.5844C107.341 29.7013 107.458 30.0533 107.341 30.3263L104.216 37.8654C104.099 38.1392 103.747 38.2953 103.474 38.1392H103.473Z" fill="#F3F3F3"/>
<path d="M103.472 38.1784C103.322 38.1212 103.201 38.0069 103.135 37.8604C103.069 37.7139 103.064 37.5473 103.12 37.397L106.245 29.8579C106.363 29.5454 106.714 29.428 107.066 29.5454C107.216 29.6026 107.337 29.717 107.403 29.8634C107.469 30.0099 107.474 30.1766 107.417 30.3268L104.292 37.8659C104.136 38.1784 103.784 38.3345 103.472 38.1784ZM107.027 29.6236C106.753 29.5067 106.441 29.6236 106.324 29.897L103.199 37.4361C103.082 37.7095 103.238 37.9829 103.511 38.1002C103.784 38.2171 104.097 38.1002 104.214 37.8268L107.339 30.2877C107.417 30.053 107.3 29.7405 107.027 29.6236V29.6236Z" fill="white"/>
<path d="M108.746 35.6394C108.472 35.4829 108.355 35.1704 108.472 34.897L110.113 31.6551C110.269 31.3813 110.581 31.264 110.894 31.4204C111.168 31.5769 111.285 31.8894 111.168 32.1624L109.527 35.4047C109.371 35.6781 109.058 35.7958 108.746 35.6394H108.746Z" fill="#F3F3F3"/>
<path d="M108.746 35.6793C108.433 35.5228 108.316 35.1712 108.472 34.8587L110.113 31.6168C110.269 31.3039 110.621 31.1869 110.933 31.343C111.246 31.4994 111.363 31.8511 111.207 32.1636L109.566 35.4055C109.41 35.718 109.058 35.8353 108.746 35.6789L108.746 35.6793ZM110.894 31.4212C110.621 31.3043 110.308 31.3821 110.191 31.6555L108.55 34.8978C108.434 35.1321 108.55 35.4446 108.785 35.6011C109.058 35.718 109.371 35.6402 109.488 35.3668L111.129 32.1244C111.246 31.8902 111.129 31.5777 110.894 31.4212Z" fill="white"/>
<path d="M109.526 41.4202C109.252 41.2251 109.174 40.8735 109.369 40.6392L113.901 33.8811C114.057 33.6077 114.409 33.5686 114.682 33.7251C114.955 33.9202 115.033 34.2718 114.838 34.5061L110.307 41.2642C110.151 41.5376 109.799 41.6158 109.526 41.4202Z" fill="#F3F3F3"/>
<path d="M109.528 41.4599C109.255 41.2648 109.176 40.874 109.333 40.6007L113.864 33.8426C114.059 33.5692 114.411 33.491 114.723 33.6865C114.996 33.8817 115.075 34.2724 114.919 34.5458L110.387 41.3039C110.192 41.5773 109.801 41.6551 109.528 41.4599ZM114.684 33.7648C114.45 33.6083 114.098 33.6474 113.942 33.8817L109.411 40.6398C109.255 40.8736 109.332 41.1865 109.567 41.3426C109.801 41.499 110.153 41.4599 110.309 41.2256L114.84 34.5067C114.997 34.2724 114.919 33.9208 114.684 33.7648V33.7648Z" fill="white"/>
<path d="M115.231 39.9754C114.997 39.7798 114.918 39.4282 115.114 39.194L117.379 36.3423C117.575 36.1085 117.926 36.069 118.16 36.2645C118.395 36.4597 118.473 36.8113 118.277 37.0456L116.012 39.8972C115.817 40.1315 115.465 40.1706 115.231 39.9754H115.231Z" fill="#F3F3F3"/>
<path d="M115.191 40.0143C114.918 39.8187 114.879 39.428 115.075 39.1546L117.34 36.3034C117.535 36.0296 117.926 35.9905 118.199 36.2251C118.472 36.4203 118.512 36.811 118.316 37.0844L116.051 39.936C115.856 40.2094 115.465 40.2485 115.191 40.0143V40.0143ZM118.121 36.303C117.887 36.1078 117.574 36.1469 117.379 36.3812L115.113 39.2328C114.957 39.4671 114.996 39.7796 115.23 39.9747C115.465 40.1703 115.777 40.1312 115.972 39.8969L118.238 37.0453C118.395 36.811 118.355 36.4594 118.121 36.3034L118.121 36.303Z" fill="white"/>
<path d="M114.839 45.8341C114.605 45.5998 114.605 45.2482 114.839 45.0526L120.62 39.3107C120.855 39.0764 121.206 39.1151 121.401 39.3107C121.597 39.5058 121.636 39.8966 121.401 40.0917L115.659 45.8341C115.425 46.0683 115.073 46.0683 114.839 45.8341V45.8341Z" fill="#F3F3F3"/>
<path d="M114.8 45.874C114.687 45.7594 114.624 45.6051 114.624 45.4444C114.624 45.2837 114.687 45.1294 114.8 45.0148L120.581 39.2724C120.696 39.1596 120.85 39.0964 121.011 39.0964C121.172 39.0964 121.326 39.1596 121.441 39.2724C121.553 39.3871 121.616 39.5413 121.616 39.7021C121.616 39.8628 121.553 40.0171 121.441 40.1317L115.659 45.8736C115.545 45.9863 115.39 46.0494 115.23 46.0494C115.069 46.0494 114.915 45.9863 114.8 45.8736V45.874ZM121.402 39.3115C121.206 39.116 120.855 39.116 120.66 39.3115L114.878 45.0535C114.683 45.249 114.683 45.6007 114.878 45.7958C115.073 45.9914 115.425 45.9914 115.62 45.7958L121.402 40.0539C121.597 39.8583 121.597 39.5458 121.402 39.3115Z" fill="white"/>
<path d="M120.7 45.5223C120.504 45.288 120.504 44.9364 120.739 44.7408L123.512 42.3973C123.746 42.2021 124.098 42.2408 124.293 42.4755C124.489 42.7098 124.489 43.0614 124.254 43.2565L121.481 45.6005C121.246 45.7957 120.895 45.7565 120.7 45.5223Z" fill="#F3F3F3"/>
<path d="M120.66 45.5609C120.426 45.2875 120.465 44.8968 120.7 44.7016L123.473 42.3577C123.707 42.1234 124.098 42.1625 124.332 42.4359C124.567 42.7093 124.528 43.1 124.293 43.2952L121.52 45.6391C121.286 45.873 120.895 45.8343 120.661 45.5609H120.66ZM124.254 42.475C124.059 42.2407 123.746 42.2407 123.512 42.3968L120.739 44.7407C120.543 44.9359 120.504 45.2484 120.7 45.4827C120.895 45.7169 121.208 45.7169 121.441 45.5609L124.215 43.2169C124.45 43.0218 124.45 42.7093 124.254 42.475Z" fill="white"/>
<path d="M119.135 51.1476C118.94 50.8742 119.018 50.5226 119.291 50.3661L126.088 45.8351C126.361 45.6786 126.713 45.7568 126.869 45.9915C127.065 46.2649 126.986 46.6165 126.713 46.7726L119.916 51.3036C119.682 51.4601 119.33 51.3818 119.135 51.1476V51.1476Z" fill="#F3F3F3"/>
<path d="M119.096 51.1472C118.901 50.8738 118.979 50.4831 119.252 50.2879L126.049 45.7565C126.322 45.5613 126.713 45.6396 126.908 45.9521C127.104 46.2254 127.025 46.6162 126.752 46.8109L119.955 51.3428C119.682 51.5383 119.291 51.4601 119.096 51.1476V51.1472ZM126.83 46.0303C126.674 45.7956 126.361 45.7174 126.127 45.8738L119.33 50.4049C119.096 50.5613 119.018 50.8738 119.213 51.1472C119.369 51.3815 119.682 51.4597 119.916 51.3037L126.713 46.7722C126.947 46.5771 126.986 46.2641 126.83 46.0303Z" fill="white"/>
<path d="M124.958 51.9674C124.801 51.6936 124.88 51.3424 125.153 51.186L128.317 49.3892C128.59 49.2327 128.942 49.3501 129.098 49.6231C129.255 49.8969 129.176 50.2481 128.903 50.4045L125.739 52.2017C125.465 52.3577 125.114 52.2408 124.957 51.967L124.958 51.9674Z" fill="#F3F3F3"/>
<path d="M124.919 52.0061C124.762 51.6936 124.841 51.342 125.114 51.186L128.278 49.3892C128.551 49.2327 128.942 49.3501 129.098 49.6231C129.255 49.936 129.176 50.2876 128.903 50.4436L125.739 52.2408C125.466 52.3969 125.075 52.2795 124.919 52.0061V52.0061ZM129.059 49.6626C128.903 49.3892 128.591 49.311 128.356 49.467L125.192 51.2642C124.958 51.4202 124.88 51.7327 124.997 51.967C125.153 52.2404 125.466 52.3186 125.7 52.1626L128.864 50.3654C129.098 50.2485 129.176 49.936 129.059 49.6626V49.6626Z" fill="white"/>
<path d="M122.34 57.163C122.224 56.8505 122.34 56.538 122.653 56.4211L130.192 53.2961C130.465 53.1787 130.817 53.3348 130.934 53.6082C131.051 53.9207 130.934 54.2332 130.622 54.3501L123.083 57.4751C122.809 57.5924 122.458 57.4751 122.34 57.163Z" fill="#F3F3F3"/>
<path d="M122.301 57.2017C122.184 56.8896 122.301 56.538 122.614 56.3815L130.153 53.2565C130.303 53.1999 130.47 53.2051 130.616 53.271C130.763 53.3369 130.877 53.4581 130.934 53.6081C131.051 53.9206 130.934 54.2723 130.622 54.4283L123.083 57.5533C122.933 57.6101 122.766 57.605 122.62 57.5391C122.473 57.4733 122.359 57.3521 122.301 57.2021V57.2017ZM130.856 53.6473C130.739 53.3739 130.426 53.2565 130.192 53.3348L122.653 56.4598C122.38 56.5767 122.262 56.8896 122.38 57.163C122.497 57.4364 122.809 57.5537 123.044 57.4755L130.582 54.3505C130.856 54.2335 130.974 53.9206 130.856 53.6473Z" fill="white"/>
<path d="M127.847 59.1158C127.73 58.8029 127.886 58.4908 128.198 58.3735L131.636 57.2404C131.909 57.1235 132.261 57.3186 132.339 57.592C132.456 57.9045 132.3 58.217 131.987 58.3343L128.55 59.4674C128.276 59.5843 127.964 59.4283 127.847 59.1154V59.1158Z" fill="#F3F3F3"/>
<path d="M127.807 59.1552C127.69 58.8427 127.846 58.4911 128.198 58.3741L131.635 57.2411C131.948 57.1241 132.299 57.3193 132.417 57.6322C132.534 57.9443 132.378 58.2959 132.026 58.4132L128.588 59.5463C128.276 59.6241 127.924 59.4677 127.807 59.1552ZM132.338 57.6713C132.26 57.3975 131.948 57.2411 131.674 57.3193L128.237 58.4523C127.963 58.5302 127.846 58.8427 127.924 59.1165C128.003 59.3898 128.315 59.5459 128.588 59.4677L132.026 58.335C132.299 58.2181 132.417 57.9443 132.338 57.6709V57.6713Z" fill="white"/>
<path d="M124.333 63.764C124.255 63.4515 124.45 63.139 124.762 63.0999L132.77 61.5374C133.082 61.4592 133.356 61.6934 133.434 62.0059C133.512 62.3184 133.317 62.6309 133.005 62.6701L124.997 64.2326C124.684 64.2717 124.372 64.0765 124.332 63.764H124.333Z" fill="#F3F3F3"/>
<path d="M124.253 63.764C124.174 63.4124 124.409 63.0999 124.721 63.0217L132.729 61.4592C133.042 61.3809 133.354 61.6156 133.432 61.9672C133.51 62.3184 133.276 62.6309 132.963 62.7092L124.955 64.2717C124.643 64.3499 124.33 64.1156 124.253 63.7636V63.764ZM133.354 62.0059C133.315 61.7326 133.042 61.5374 132.768 61.5765L124.76 63.139C124.487 63.1781 124.292 63.4902 124.37 63.764C124.409 64.0374 124.682 64.2326 124.956 64.1934L132.963 62.6309C133.237 62.5527 133.432 62.2793 133.354 62.0059Z" fill="white"/>
<path d="M129.332 66.7727C129.293 66.4602 129.488 66.1868 129.801 66.1477L133.394 65.7178C133.707 65.6791 133.981 65.9134 134.019 66.2259C134.058 66.5384 133.863 66.8118 133.551 66.8509L129.957 67.2803C129.683 67.3194 129.371 67.0852 129.332 66.7727H129.332Z" fill="#F3F3F3"/>
<path d="M129.292 66.7724C129.253 66.4208 129.488 66.1083 129.8 66.0692L133.394 65.6398C133.706 65.6006 134.019 65.8349 134.058 66.1865C134.097 66.5381 133.863 66.8506 133.55 66.8898L129.956 67.3192C129.644 67.3583 129.331 67.124 129.292 66.7724ZM134.019 66.2256C133.98 65.9523 133.707 65.7176 133.433 65.7567L129.839 66.1865C129.566 66.2256 129.37 66.499 129.409 66.7724C129.449 67.0458 129.722 67.2805 129.995 67.2414L133.589 66.8115C133.863 66.7724 134.058 66.499 134.019 66.2256H134.019Z" fill="white"/>
<path d="M124.956 70.5612C124.956 70.2487 125.19 69.9753 125.503 69.9753H133.667C133.98 69.9753 134.214 70.2487 134.214 70.5612C134.214 70.8737 133.98 71.1471 133.667 71.1471H125.503C125.19 71.1471 124.956 70.8737 124.956 70.5612Z" fill="#F3F3F3"/>
<path d="M124.917 70.5613C124.917 70.2097 125.19 69.9363 125.503 69.9363H133.667C133.98 69.9363 134.253 70.2097 134.253 70.5613C134.253 70.9129 133.98 71.1863 133.667 71.1863H125.503C125.19 71.1863 124.917 70.9129 124.917 70.5613ZM134.175 70.6004C134.175 70.327 133.94 70.0536 133.667 70.0536H125.503C125.23 70.0536 124.995 70.2875 124.995 70.6004C124.995 70.8738 125.23 71.1472 125.503 71.1472H133.667C133.941 71.1081 134.175 70.8738 134.175 70.6004H134.175Z" fill="white"/>
<path d="M129.292 74.5065C129.331 74.194 129.566 73.9597 129.878 73.9597L133.511 74.2331C133.824 74.2722 134.058 74.5456 134.019 74.8581C133.98 75.1706 133.745 75.4049 133.433 75.4049L129.8 75.1315C129.527 75.0924 129.292 74.819 129.292 74.5065H129.292Z" fill="#F3F3F3"/>
<path d="M129.253 74.5065C129.292 74.1549 129.566 73.9207 129.878 73.9207L133.511 74.194C133.823 74.2332 134.097 74.5065 134.057 74.8582C134.019 75.2098 133.745 75.444 133.432 75.444L129.8 75.1707C129.487 75.1315 129.253 74.819 129.253 74.5065ZM134.019 74.8582C134.057 74.5848 133.823 74.3114 133.55 74.3114L129.917 74.038C129.644 74.038 129.409 74.2332 129.37 74.5461C129.331 74.819 129.566 75.0924 129.839 75.0924L133.472 75.3658C133.745 75.3658 133.98 75.1319 134.019 74.8582V74.8582Z" fill="white"/>
<path d="M124.254 77.3581C124.332 77.0456 124.606 76.8501 124.918 76.8896L132.926 78.4912C133.238 78.569 133.434 78.8424 133.356 79.1549C133.278 79.4674 133.004 79.663 132.692 79.6238L124.684 78.0222C124.41 77.9831 124.215 77.6706 124.254 77.3581V77.3581Z" fill="#F3F3F3"/>
<path d="M124.215 77.3584C124.293 77.0068 124.606 76.8116 124.918 76.8503L132.926 78.4523C133.238 78.5302 133.473 78.8426 133.394 79.1943C133.317 79.5459 133.004 79.7414 132.692 79.7023L124.684 78.1007C124.371 78.0225 124.176 77.71 124.215 77.3588V77.3584ZM133.317 79.1943C133.356 78.9209 133.2 78.6475 132.926 78.5693L124.918 76.9676C124.645 76.9289 124.371 77.085 124.293 77.3975C124.254 77.6709 124.41 77.9443 124.684 78.0225L132.692 79.6241C133.004 79.6632 133.238 79.4676 133.317 79.1943Z" fill="white"/>
<path d="M127.769 82.0461C127.787 81.9717 127.82 81.9016 127.865 81.8398C127.91 81.778 127.967 81.7256 128.032 81.6857C128.097 81.6459 128.17 81.6192 128.245 81.6074C128.321 81.5955 128.398 81.5987 128.472 81.6166L131.988 82.5928C132.3 82.6711 132.456 82.984 132.379 83.2961C132.361 83.3705 132.328 83.4407 132.283 83.5026C132.238 83.5645 132.181 83.6169 132.116 83.6568C132.051 83.6968 131.978 83.7234 131.903 83.7353C131.827 83.7471 131.75 83.7439 131.675 83.7259L128.16 82.7493C127.847 82.6711 127.691 82.3586 127.769 82.0461H127.769Z" fill="#F3F3F3"/>
<path d="M127.731 82.0459C127.809 81.7334 128.161 81.4991 128.473 81.6165L131.989 82.5927C132.302 82.6709 132.497 83.0225 132.419 83.335C132.341 83.6475 131.989 83.8818 131.677 83.7649L128.161 82.7882C127.848 82.71 127.653 82.3975 127.731 82.0463L127.731 82.0459ZM132.302 83.335C132.38 83.0616 132.223 82.7491 131.95 82.6709L128.434 81.6943C128.161 81.6161 127.887 81.7725 127.809 82.085C127.731 82.3584 127.887 82.6709 128.161 82.7491L131.677 83.7257C131.95 83.7649 132.223 83.6088 132.302 83.335Z" fill="white"/>
<path d="M122.261 83.9204C122.378 83.6079 122.73 83.4905 123.003 83.6079L130.542 86.7329C130.815 86.8498 130.971 87.2018 130.855 87.4748C130.737 87.7877 130.386 87.9047 130.112 87.7877L122.573 84.6627C122.261 84.5458 122.143 84.1938 122.261 83.9208V83.9204Z" fill="#F3F3F3"/>
<path d="M122.223 83.8817C122.28 83.7316 122.395 83.6103 122.541 83.5444C122.688 83.4785 122.854 83.4734 123.005 83.5301L130.544 86.6551C130.856 86.7724 130.973 87.124 130.856 87.4757C130.799 87.6258 130.685 87.7471 130.538 87.813C130.392 87.8789 130.225 87.884 130.075 87.8273L122.536 84.7023C122.223 84.5458 122.106 84.1942 122.223 83.8817ZM130.778 87.4365C130.895 87.1632 130.778 86.8507 130.505 86.7333L122.966 83.6083C122.692 83.4914 122.419 83.6474 122.302 83.9208C122.185 84.1942 122.302 84.5067 122.575 84.6241L130.114 87.7491C130.387 87.8273 130.7 87.7099 130.778 87.4365Z" fill="white"/>
<path d="M124.8 89.1944C124.956 88.9211 125.268 88.8037 125.542 88.921L128.784 90.5618C129.057 90.6787 129.175 91.0303 129.019 91.3428C128.862 91.6162 128.55 91.734 128.276 91.6162L125.034 89.9759C124.761 89.8194 124.643 89.4678 124.8 89.1944Z" fill="#F3F3F3"/>
<path d="M124.761 89.1555C124.918 88.843 125.269 88.726 125.582 88.8821L128.824 90.5228C129.136 90.6792 129.254 91.0309 129.097 91.3429C128.941 91.6554 128.589 91.7728 128.277 91.6163L125.035 89.976C124.722 89.8591 124.605 89.468 124.761 89.1555V89.1555ZM128.98 91.3038C129.097 91.0304 129.019 90.7179 128.746 90.601L125.504 88.9603C125.269 88.8434 124.957 88.9603 124.8 89.1946C124.683 89.468 124.761 89.7804 125.035 89.8978L128.277 91.5385C128.55 91.6554 128.863 91.5776 128.98 91.3038Z" fill="white"/>
<path d="M119.057 89.9364C119.252 89.663 119.565 89.5848 119.838 89.78L126.635 94.3114C126.908 94.4675 126.947 94.8195 126.791 95.0925C126.596 95.3663 126.283 95.4441 126.01 95.2489L119.213 90.7175C118.94 90.5223 118.862 90.1707 119.057 89.9364Z" fill="#F3F3F3"/>
<path d="M119.019 89.8967C119.214 89.6234 119.605 89.5451 119.878 89.7016L126.675 94.2326C126.949 94.4278 127.027 94.7794 126.831 95.0919C126.636 95.3657 126.245 95.4435 125.972 95.2875L119.175 90.756C118.863 90.5609 118.824 90.1701 119.019 89.8967ZM126.714 95.0528C126.87 94.8189 126.831 94.4669 126.597 94.3109L119.8 89.7794C119.566 89.6234 119.253 89.7016 119.097 89.9359C118.941 90.1701 118.98 90.5217 119.214 90.6778L126.011 95.2092C126.245 95.3657 126.558 95.2875 126.714 95.0532V95.0528Z" fill="white"/>
<path d="M120.503 95.6007C120.698 95.366 121.05 95.2882 121.284 95.4838L124.136 97.71C124.37 97.9051 124.409 98.2568 124.214 98.4914C124.019 98.7253 123.667 98.8039 123.433 98.6084L120.581 96.3818C120.347 96.1866 120.308 95.835 120.503 95.6007V95.6007Z" fill="#F3F3F3"/>
<path d="M120.465 95.5612C120.66 95.2878 121.051 95.2487 121.324 95.4443L124.176 97.6705C124.449 97.8656 124.488 98.2564 124.293 98.5298C124.098 98.8036 123.707 98.8423 123.434 98.6471L120.582 96.4205C120.309 96.2253 120.27 95.8346 120.465 95.5612ZM124.215 98.4911C124.41 98.2564 124.371 97.9439 124.137 97.7487L121.285 95.5221C121.051 95.3661 120.738 95.4052 120.543 95.639C120.348 95.8737 120.387 96.1862 120.621 96.3814L123.473 98.608C123.707 98.7644 124.019 98.7249 124.215 98.4911H124.215Z" fill="white"/>
<path d="M114.683 95.2096C114.917 94.9754 115.269 94.9754 115.464 95.2096L121.245 100.952C121.48 101.186 121.441 101.538 121.245 101.733C121.011 101.967 120.659 101.967 120.464 101.733L114.683 95.9911C114.487 95.7955 114.487 95.4048 114.683 95.2096V95.2096Z" fill="#F3F3F3"/>
<path d="M114.683 95.1709C114.797 95.0581 114.952 94.9949 115.113 94.9949C115.273 94.9949 115.428 95.0581 115.542 95.1709L121.323 100.913C121.436 101.027 121.499 101.182 121.499 101.343C121.499 101.503 121.436 101.658 121.323 101.772C121.209 101.885 121.054 101.948 120.894 101.948C120.733 101.948 120.579 101.885 120.464 101.772L114.683 96.0305C114.409 95.7959 114.409 95.4055 114.683 95.1709ZM121.245 101.694C121.441 101.499 121.441 101.147 121.245 100.952L115.464 95.21C115.269 95.0148 114.917 95.0148 114.722 95.21C114.527 95.4051 114.527 95.7568 114.722 95.9519L120.503 101.694C120.698 101.929 121.011 101.929 121.245 101.694Z" fill="white"/>
<path d="M115.034 101.029C115.269 100.834 115.62 100.834 115.816 101.068L118.199 103.803C118.394 104.037 118.355 104.389 118.12 104.584C117.886 104.779 117.534 104.779 117.339 104.545L114.956 101.811C114.761 101.616 114.8 101.264 115.034 101.029V101.029Z" fill="#F3F3F3"/>
<path d="M114.997 101.03C115.27 100.796 115.622 100.835 115.856 101.069L118.239 103.803C118.473 104.038 118.434 104.428 118.161 104.663C117.887 104.897 117.536 104.858 117.301 104.624L114.918 101.89C114.723 101.616 114.723 101.226 114.996 101.03H114.997ZM118.122 104.585C118.356 104.39 118.356 104.077 118.2 103.843L115.817 101.108C115.621 100.913 115.309 100.874 115.075 101.069C114.84 101.265 114.84 101.577 114.996 101.811L117.379 104.546C117.575 104.78 117.888 104.78 118.121 104.585H118.122Z" fill="white"/>
<path d="M109.409 99.5456C109.682 99.3504 110.034 99.4287 110.19 99.7021L114.721 106.46C114.877 106.733 114.799 107.085 114.565 107.241C114.292 107.436 113.94 107.358 113.783 107.085L109.252 100.327C109.096 100.054 109.174 99.7017 109.408 99.5456H109.409Z" fill="#F3F3F3"/>
<path d="M109.41 99.5065C109.683 99.3114 110.074 99.3896 110.269 99.663L114.801 106.421C114.996 106.694 114.918 107.085 114.606 107.28C114.332 107.475 113.941 107.397 113.746 107.124L109.215 100.366C109.02 100.054 109.098 99.7021 109.41 99.5069V99.5065ZM114.566 107.202C114.801 107.046 114.879 106.733 114.723 106.499L110.191 99.7408C110.035 99.5069 109.723 99.4674 109.45 99.6239C109.215 99.7799 109.137 100.092 109.293 100.327L113.824 107.085C113.981 107.28 114.332 107.358 114.566 107.202L114.566 107.202Z" fill="white"/>
<path d="M108.589 105.326C108.862 105.17 109.214 105.248 109.37 105.522L111.167 108.686C111.323 108.959 111.206 109.311 110.933 109.467C110.659 109.623 110.308 109.545 110.151 109.272L108.355 106.108C108.237 105.834 108.316 105.483 108.589 105.327L108.589 105.326Z" fill="#F3F3F3"/>
<path d="M108.589 105.288C108.902 105.131 109.253 105.209 109.409 105.483L111.206 108.647C111.362 108.92 111.284 109.311 110.972 109.467C110.659 109.623 110.308 109.545 110.152 109.272L108.355 106.108C108.198 105.834 108.277 105.483 108.589 105.288H108.589ZM110.933 109.428C111.167 109.272 111.284 108.959 111.128 108.725L109.331 105.561C109.175 105.327 108.862 105.248 108.628 105.365C108.393 105.522 108.277 105.834 108.433 106.069L110.23 109.233C110.347 109.467 110.698 109.584 110.933 109.428V109.428Z" fill="white"/>
<path d="M103.394 102.749C103.706 102.632 104.019 102.749 104.136 103.022L107.3 110.562C107.417 110.835 107.261 111.186 106.988 111.303C106.714 111.421 106.363 111.303 106.246 111.03L103.082 103.491C102.964 103.218 103.12 102.866 103.394 102.749Z" fill="#F3F3F3"/>
<path d="M103.393 102.709C103.706 102.592 104.057 102.709 104.214 103.022L107.378 110.561C107.435 110.711 107.429 110.878 107.363 111.024C107.297 111.17 107.176 111.285 107.026 111.342C106.714 111.459 106.362 111.342 106.206 111.029L103.042 103.491C102.925 103.217 103.081 102.866 103.393 102.709V102.709ZM106.948 111.264C107.221 111.147 107.339 110.834 107.221 110.6L104.057 103.061C103.94 102.787 103.628 102.67 103.355 102.787C103.081 102.904 102.963 103.217 103.081 103.452L106.245 110.991C106.401 111.264 106.675 111.381 106.948 111.264Z" fill="white"/>
<path d="M101.479 108.295C101.792 108.178 102.104 108.335 102.221 108.647L103.354 112.085C103.471 112.358 103.276 112.71 103.003 112.788C102.69 112.905 102.378 112.749 102.261 112.436L101.128 108.999C101.011 108.725 101.167 108.413 101.479 108.295H101.479Z" fill="#F3F3F3"/>
<path d="M101.441 108.257C101.591 108.2 101.758 108.205 101.904 108.271C102.051 108.337 102.165 108.458 102.222 108.608L103.355 112.046C103.472 112.358 103.277 112.71 102.964 112.827C102.814 112.884 102.647 112.878 102.501 112.813C102.354 112.747 102.24 112.625 102.183 112.475L101.05 109.038C100.972 108.725 101.129 108.374 101.441 108.257ZM102.964 112.748C103.238 112.671 103.394 112.358 103.316 112.085L102.183 108.647C102.105 108.374 101.793 108.257 101.519 108.335C101.245 108.413 101.089 108.725 101.168 108.999L102.3 112.436C102.32 112.503 102.354 112.564 102.399 112.616C102.444 112.669 102.5 112.711 102.563 112.741C102.625 112.77 102.693 112.786 102.763 112.788C102.832 112.789 102.901 112.776 102.964 112.749V112.748Z" fill="white"/>
<path d="M96.8718 104.741C97.1839 104.662 97.4968 104.858 97.5355 105.17L99.1762 113.178C99.2545 113.49 99.0198 113.764 98.7073 113.842C98.3952 113.92 98.0823 113.725 98.0436 113.412L96.4024 105.404C96.3637 105.131 96.5589 104.818 96.8714 104.74L96.8718 104.741Z" fill="#F3F3F3"/>
<path d="M96.8722 104.701C97.2234 104.623 97.5359 104.858 97.6141 105.17L99.2548 113.178C99.3331 113.49 99.0984 113.842 98.7859 113.881C98.4343 113.959 98.1218 113.725 98.0439 113.413L96.4028 105.405C96.325 105.092 96.5206 104.78 96.8718 104.702L96.8722 104.701ZM98.7077 113.803C98.9814 113.764 99.1766 113.49 99.1375 113.178L97.4968 105.17C97.4581 104.897 97.1456 104.702 96.8718 104.78C96.5984 104.819 96.4032 105.092 96.4423 105.405L98.0831 113.413C98.1609 113.686 98.4343 113.842 98.7081 113.803L98.7077 113.803Z" fill="white"/>
<path d="M93.9017 109.819C94.2142 109.78 94.4876 109.976 94.5658 110.288L95.0343 113.882C95.0735 114.194 94.8392 114.468 94.5263 114.507C94.2142 114.546 93.9408 114.351 93.8626 114.038L93.394 110.444C93.3549 110.132 93.5892 109.858 93.9017 109.819Z" fill="#F3F3F3"/>
<path d="M93.9017 109.78C94.2533 109.742 94.5658 109.976 94.605 110.288L95.0735 113.882C95.1126 114.194 94.8783 114.507 94.5267 114.546C94.1751 114.585 93.8626 114.351 93.8235 114.038L93.3549 110.444C93.3158 110.132 93.5501 109.819 93.9017 109.78ZM94.4876 114.468C94.761 114.429 94.9957 114.155 94.9566 113.882L94.4876 110.288C94.4485 110.015 94.1751 109.819 93.9017 109.859C93.6283 109.898 93.3937 110.171 93.4328 110.444L93.9017 114.038C93.9408 114.312 94.2142 114.507 94.4876 114.468Z" fill="white"/>
<path d="M89.878 105.444C90.1905 105.444 90.4639 105.679 90.4639 105.991V114.155C90.4639 114.467 90.1905 114.702 89.878 114.702C89.5655 114.702 89.2921 114.467 89.2921 114.155V105.991C89.3312 105.679 89.5655 105.444 89.878 105.444Z" fill="#F3F3F3"/>
<path d="M89.878 105.405C90.2297 105.405 90.503 105.678 90.503 105.991V114.155C90.503 114.468 90.2297 114.741 89.878 114.741C89.5264 114.741 89.253 114.468 89.253 114.155V105.991C89.253 105.679 89.5655 105.405 89.878 105.405ZM89.878 114.663C90.1514 114.663 90.4248 114.429 90.4248 114.155V105.991C90.4248 105.718 90.1905 105.483 89.878 105.483C89.6047 105.483 89.3313 105.718 89.3313 105.991V114.155C89.37 114.429 89.6047 114.663 89.878 114.663Z" fill="white"/>
<path d="M85.9717 109.819C86.2842 109.859 86.5185 110.093 86.5185 110.405L86.2451 114.038C86.2064 114.351 85.9326 114.585 85.6201 114.546C85.3076 114.507 85.0733 114.273 85.0733 113.96L85.3467 110.327C85.3858 110.015 85.6592 109.78 85.9717 109.819Z" fill="#F3F3F3"/>
<path d="M85.9718 109.78C86.3234 109.819 86.5577 110.093 86.5577 110.405L86.2843 114.038C86.2452 114.351 85.9718 114.624 85.6202 114.585C85.269 114.546 85.0343 114.273 85.0343 113.96L85.3077 110.327C85.3468 109.976 85.6202 109.742 85.9718 109.78ZM85.6202 114.507C85.8936 114.507 86.1674 114.312 86.1674 114.038L86.4407 110.405C86.4407 110.132 86.2452 109.898 85.9327 109.859C85.6593 109.859 85.3859 110.054 85.3859 110.327L85.1125 113.96C85.1125 114.234 85.3468 114.468 85.6206 114.507H85.6202Z" fill="white"/>
<path d="M83.0433 104.741C83.3558 104.819 83.5509 105.092 83.5118 105.405L81.9102 113.413C81.832 113.725 81.5586 113.921 81.2461 113.842C80.9336 113.764 80.7384 113.491 80.7775 113.178L82.3791 105.171C82.4183 104.897 82.7308 104.702 83.0433 104.741Z" fill="#F3F3F3"/>
<path d="M83.0433 104.702C83.3945 104.78 83.5901 105.093 83.551 105.405L81.9494 113.413C81.8712 113.725 81.5587 113.96 81.2074 113.882C80.8558 113.803 80.6603 113.491 80.6994 113.178L82.301 105.171C82.3792 104.858 82.6917 104.663 83.0429 104.702L83.0433 104.702ZM81.2074 113.803C81.4808 113.842 81.7542 113.686 81.8324 113.413L83.4337 105.405C83.4728 105.132 83.3167 104.858 83.0042 104.78C82.7308 104.741 82.4574 104.897 82.3792 105.171L80.7776 113.178C80.7385 113.491 80.9337 113.725 81.2074 113.803V113.803Z" fill="white"/>
<path d="M78.3551 108.257C78.668 108.335 78.8632 108.648 78.7849 108.96L77.8083 112.476C77.7305 112.788 77.418 112.944 77.1055 112.867C77.0311 112.849 76.9609 112.816 76.899 112.771C76.8371 112.726 76.7847 112.669 76.7447 112.604C76.7048 112.539 76.6782 112.466 76.6663 112.391C76.6545 112.315 76.6576 112.238 76.6757 112.163L77.6523 108.648C77.7305 108.335 78.043 108.179 78.3555 108.257H78.3551Z" fill="#F3F3F3"/>
<path d="M78.3537 108.218C78.6667 108.295 78.9009 108.647 78.7836 108.96L77.807 112.475C77.7292 112.788 77.3775 112.983 77.065 112.905C76.7525 112.827 76.5183 112.475 76.6352 112.163L77.6118 108.647C77.69 108.335 78.0025 108.139 78.3537 108.217V108.218ZM77.065 112.788C77.3384 112.866 77.6509 112.71 77.7292 112.436L78.7054 108.92C78.7836 108.647 78.6275 108.374 78.315 108.295C78.0417 108.217 77.7292 108.374 77.6509 108.647L76.6743 112.163C76.6352 112.436 76.7912 112.71 77.065 112.788Z" fill="white"/>
<path d="M76.441 102.748C76.7535 102.865 76.8705 103.217 76.7535 103.49L73.6285 111.029C73.5116 111.303 73.1596 111.459 72.8866 111.303C72.6128 111.147 72.4564 110.834 72.5737 110.561L75.6987 103.022C75.8156 102.748 76.1677 102.592 76.4406 102.748H76.441Z" fill="#F3F3F3"/>
<path d="M76.4407 102.71C76.5908 102.768 76.7121 102.882 76.778 103.028C76.8439 103.175 76.8491 103.342 76.7923 103.492L73.6673 111.031C73.55 111.343 73.1984 111.46 72.8468 111.343C72.6968 111.286 72.5756 111.172 72.5096 111.025C72.4437 110.879 72.4385 110.712 72.4952 110.562L75.6202 103.023C75.7766 102.71 76.1282 102.554 76.4407 102.71V102.71ZM72.8859 111.265C73.1593 111.382 73.4718 111.265 73.5891 110.992L76.7141 103.453C76.831 103.179 76.675 102.906 76.4016 102.789C76.1282 102.672 75.8157 102.789 75.6984 103.062L72.5734 110.601C72.4952 110.835 72.6125 111.148 72.8859 111.265Z" fill="white"/>
<path d="M71.1676 105.249C71.441 105.405 71.5579 105.717 71.441 105.99L69.8003 109.233C69.6438 109.506 69.3313 109.624 69.0188 109.467C68.7454 109.311 68.6285 108.999 68.7454 108.725L70.3866 105.483C70.5426 105.209 70.8551 105.092 71.1676 105.249Z" fill="#F3F3F3"/>
<path d="M71.1677 105.21C71.4802 105.366 71.5971 105.718 71.4411 106.03L69.8004 109.273C69.6439 109.585 69.2923 109.703 68.9802 109.546C68.6677 109.39 68.5504 109.038 68.7068 108.726L70.3471 105.484C70.5036 105.171 70.8552 105.054 71.1677 105.21ZM69.0193 109.468C69.2927 109.585 69.6052 109.507 69.7221 109.234L71.3629 105.992C71.4798 105.757 71.3629 105.444 71.1286 105.288C70.8552 105.171 70.5427 105.249 70.4254 105.523L68.7846 108.765C68.6677 108.999 68.7846 109.312 69.0193 109.468V109.468Z" fill="white"/>
<path d="M70.3848 99.4679C70.6582 99.6631 70.7364 100.015 70.5413 100.249L66.0098 107.007C65.8538 107.28 65.5018 107.319 65.2288 107.163C64.9554 106.968 64.8772 106.616 65.0723 106.382L69.6038 99.6235C69.7598 99.3506 70.1114 99.2723 70.3848 99.4675V99.4679Z" fill="#F3F3F3"/>
<path d="M70.3873 99.4284C70.6607 99.624 70.7389 100.015 70.5825 100.288L66.0514 107.046C65.8562 107.319 65.5046 107.397 65.1921 107.202C64.9187 107.007 64.8405 106.616 64.9966 106.343L69.528 99.5849C69.7232 99.3115 70.1139 99.2333 70.3873 99.4284V99.4284ZM65.2312 107.124C65.4651 107.28 65.8171 107.241 65.9732 107.007L70.5046 100.249C70.6607 100.015 70.5829 99.7022 70.3482 99.5458C70.1139 99.3897 69.7623 99.4288 69.6062 99.6627L65.0748 106.382C64.9187 106.616 64.9966 106.968 65.2312 107.124V107.124Z" fill="white"/>
<path d="M64.6837 100.913C64.9184 101.108 64.9962 101.46 64.801 101.694L62.5353 104.546C62.3402 104.78 61.9885 104.819 61.7543 104.624C61.52 104.429 61.4418 104.077 61.6373 103.842L63.9027 100.991C64.0978 100.757 64.4494 100.717 64.6837 100.913Z" fill="#F3F3F3"/>
<path d="M64.7225 100.873C64.9959 101.069 65.035 101.459 64.8395 101.733L62.5742 104.584C62.379 104.858 61.9883 104.897 61.7149 104.663C61.4415 104.467 61.4024 104.077 61.5979 103.803L63.8633 100.952C64.0584 100.678 64.4492 100.639 64.7225 100.873ZM61.7931 104.584C62.027 104.779 62.3399 104.741 62.535 104.506L64.8008 101.654C64.9572 101.421 64.9177 101.108 64.6838 100.913C64.4492 100.717 64.1367 100.756 63.9415 100.991L61.6758 103.842C61.5197 104.077 61.5588 104.428 61.7927 104.584H61.7931Z" fill="white"/>
<path d="M65.0746 95.0537C65.3088 95.2876 65.3088 95.6396 65.0746 95.8347L59.2935 101.577C59.0588 101.811 58.7076 101.772 58.5121 101.577C58.3169 101.382 58.2778 100.991 58.5121 100.796L64.254 95.0537C64.4887 94.819 64.8403 94.819 65.0746 95.0537V95.0537Z" fill="#F3F3F3"/>
<path d="M65.1123 95.0144C65.2249 95.129 65.2879 95.2832 65.2879 95.4439C65.2879 95.6045 65.2249 95.7587 65.1123 95.8733L59.3309 101.616C59.2163 101.729 59.0621 101.792 58.9014 101.792C58.7408 101.792 58.5866 101.729 58.472 101.616C58.3592 101.501 58.296 101.347 58.296 101.186C58.296 101.025 58.3592 100.871 58.472 100.756L64.253 95.0144C64.3677 94.9018 64.522 94.8386 64.6827 94.8386C64.8434 94.8386 64.9977 94.9018 65.1123 95.0144V95.0144ZM58.5107 101.577C58.7059 101.772 59.0575 101.772 59.2526 101.577L65.0341 95.8342C65.2297 95.639 65.2297 95.2874 65.0341 95.0922C64.8389 94.8967 64.4873 94.8967 64.2922 95.0922L58.5107 100.834C58.3155 101.029 58.3155 101.342 58.5107 101.576V101.577Z" fill="white"/>
<path d="M59.2154 95.3663C59.4105 95.6002 59.4105 95.9522 59.1763 96.1473L56.4029 98.4913C56.1686 98.6864 55.817 98.6473 55.6214 98.4131C55.4263 98.1784 55.4263 97.8272 55.6605 97.6316L58.4339 95.2881C58.6686 95.0925 59.0198 95.1316 59.2154 95.3663Z" fill="#F3F3F3"/>
<path d="M59.2544 95.3261C59.4887 95.5999 59.4496 95.9902 59.2153 96.1858L56.4419 98.5293C56.2076 98.764 55.8169 98.7249 55.5826 98.4515C55.3479 98.1777 55.3871 97.7874 55.6213 97.5918L58.3951 95.2483C58.629 95.014 59.0201 95.0531 59.254 95.3265L59.2544 95.3261ZM55.6604 98.4124C55.856 98.6467 56.1685 98.6467 56.4024 98.4906L59.1762 96.1467C59.3713 95.9515 59.4104 95.6386 59.2153 95.4047C59.0197 95.1701 58.7072 95.1701 58.4733 95.3265L55.6996 97.6701C55.4653 97.8652 55.4653 98.1781 55.6604 98.412V98.4124Z" fill="white"/>
<path d="M60.7757 89.7409C60.9708 90.0147 60.8926 90.3659 60.6192 90.5224L53.8224 95.0539C53.549 95.2099 53.1974 95.1317 53.0414 94.8974C52.8458 94.624 52.924 94.2724 53.1974 94.1159L59.9946 89.5849C60.2293 89.4288 60.5805 89.5067 60.7761 89.7409H60.7757Z" fill="#F3F3F3"/>
<path d="M60.8147 89.7407C61.0099 90.0145 60.9316 90.4048 60.6583 90.6004L53.8615 95.1315C53.5881 95.327 53.1974 95.2484 53.0022 94.9363C52.8066 94.6629 52.8853 94.2722 53.1583 94.077L59.9554 89.5456C60.2288 89.3504 60.6191 89.4286 60.8143 89.7407H60.8147ZM53.0804 94.8581C53.2365 95.0923 53.549 95.1706 53.7833 95.0145L60.58 90.4831C60.8147 90.327 60.8925 90.0145 60.6974 89.7411C60.5413 89.5065 60.2288 89.4286 59.9941 89.5847L53.1974 94.1161C52.9631 94.3113 52.924 94.6238 53.0804 94.8581V94.8581Z" fill="white"/>
<path d="M54.9575 88.9203C55.1139 89.1937 55.0357 89.5453 54.7623 89.7018L51.5982 91.4985C51.3248 91.6546 50.9732 91.5377 50.8172 91.2643C50.6607 90.9909 50.7389 90.6393 51.0123 90.4828L54.1764 88.6861C54.4498 88.5296 54.8014 88.6469 54.9579 88.9203H54.9575Z" fill="#F3F3F3"/>
<path d="M54.997 88.8813C55.1531 89.1938 55.0748 89.5454 54.8014 89.7018L51.6373 91.4986C51.3639 91.6546 50.9732 91.5377 50.8172 91.2643C50.6607 90.9518 50.7389 90.6002 51.0123 90.4438L54.1764 88.647C54.4498 88.4905 54.8406 88.6079 54.9966 88.8813H54.997ZM50.8559 91.2252C51.0123 91.4986 51.3248 91.5768 51.5591 91.4204L54.7232 89.6236C54.9575 89.4672 55.0357 89.1546 54.9188 88.9204C54.7623 88.647 54.4498 88.5688 54.2156 88.7252L51.0514 90.522C50.8172 90.6389 50.7389 90.9518 50.8563 91.2252H50.8559Z" fill="white"/>
<path d="M57.5748 83.7249C57.6918 84.0374 57.5748 84.3499 57.2623 84.4668L49.7232 87.5918C49.4498 87.7092 49.0982 87.5531 48.9813 87.2793C48.8639 86.9668 48.9813 86.6543 49.2938 86.5374L56.8329 83.4124C57.1063 83.2955 57.4579 83.4124 57.5748 83.7249V83.7249Z" fill="#F3F3F3"/>
<path d="M57.6139 83.6863C57.7309 83.9988 57.6139 84.3504 57.3014 84.5064L49.7623 87.6314C49.6121 87.688 49.4456 87.6828 49.2992 87.6169C49.1528 87.551 49.0385 87.4298 48.9813 87.2798C48.8639 86.9673 48.9813 86.6157 49.2938 86.4597L56.8329 83.3347C56.9831 83.278 57.1496 83.2832 57.296 83.3491C57.4424 83.415 57.5567 83.5363 57.6139 83.6863V83.6863ZM49.0591 87.2407C49.1764 87.5145 49.4889 87.6318 49.7232 87.5532L57.2623 84.4282C57.5357 84.3113 57.653 83.9988 57.5357 83.7254C57.4188 83.452 57.1063 83.3347 56.8716 83.4129L49.3325 86.5379C49.0591 86.6548 48.9422 86.9673 49.0591 87.2411V87.2407Z" fill="white"/>
<path d="M52.0654 81.772C52.1824 82.0845 52.0263 82.397 51.7138 82.5139L48.2763 83.647C48.0029 83.7639 47.6513 83.5688 47.5731 83.2954C47.4562 82.9829 47.6122 82.6704 47.9247 82.5535L51.3622 81.4204C51.6356 81.3035 51.9481 81.4595 52.0654 81.772Z" fill="#F3F3F3"/>
<path d="M52.1038 81.7335C52.2211 82.046 52.0651 82.3976 51.7135 82.515L48.276 83.6476C47.9635 83.7646 47.6119 83.5694 47.4945 83.2569C47.3776 82.9444 47.5336 82.5928 47.8857 82.4759L51.3227 81.3428C51.6352 81.265 51.9869 81.421 52.1042 81.7339L52.1038 81.7335ZM47.5732 83.2182C47.6514 83.4916 47.9639 83.648 48.2373 83.5698L51.6748 82.4367C51.9482 82.3589 52.0655 82.0464 51.9873 81.773C51.909 81.4996 51.5965 81.3432 51.3232 81.4214L47.8857 82.5545C47.6123 82.6714 47.4949 82.9448 47.5732 83.2182Z" fill="white"/>
<path d="M55.5829 77.124C55.6607 77.4365 55.4655 77.749 55.153 77.7881L47.145 79.3506C46.8325 79.4288 46.5591 79.1941 46.4812 78.8816C46.403 78.5691 46.5982 78.2566 46.9107 78.2175L54.9187 76.655C55.2312 76.6163 55.5437 76.8115 55.5825 77.124H55.5829Z" fill="#F3F3F3"/>
<path d="M55.6586 77.1241C55.7368 77.4757 55.5025 77.7882 55.19 77.866L47.182 79.4285C46.8695 79.5067 46.557 79.2725 46.4792 78.9208C46.4009 78.5692 46.6352 78.2567 46.9477 78.1789L54.9558 76.6164C55.2679 76.5382 55.5808 76.7725 55.6586 77.1241ZM46.557 78.8821C46.5961 79.1551 46.8695 79.3507 47.1429 79.3116L55.1509 77.7491C55.4243 77.71 55.6195 77.3975 55.5417 77.1241C55.5025 76.8507 55.2292 76.6551 54.9554 76.6942L46.9477 78.2567C46.6743 78.335 46.4792 78.6083 46.557 78.8817V78.8821Z" fill="white"/>
<path d="M50.5822 74.1166C50.6209 74.4287 50.4258 74.7025 50.1133 74.7416L46.5197 75.171C46.2068 75.2101 45.9334 74.9759 45.8947 74.663C45.8556 74.3509 46.0508 74.0775 46.3633 74.038L49.9572 73.6085C50.2306 73.5694 50.5431 73.8037 50.5822 74.1166Z" fill="#F3F3F3"/>
<path d="M50.6207 74.1166C50.6594 74.4678 50.4251 74.7803 50.1126 74.8194L46.5191 75.2493C46.2062 75.2884 45.8941 75.0541 45.855 74.7025C45.8159 74.3509 46.0501 74.0384 46.3626 73.9993L49.9566 73.5694C50.2687 73.5303 50.5816 73.765 50.6203 74.1162L50.6207 74.1166ZM45.8937 74.6634C45.9328 74.9368 46.2066 75.1715 46.48 75.1319L50.0735 74.7025C50.3469 74.6634 50.5425 74.39 50.5034 74.1166C50.4642 73.8428 50.1909 73.6085 49.9175 73.6477L46.3235 74.0775C46.0501 74.1166 45.855 74.39 45.8937 74.6634V74.6634Z" fill="white"/>
<path d="M54.9556 70.3269C54.9556 70.6398 54.7217 70.9131 54.4088 70.9131H46.2451C45.9326 70.9131 45.6984 70.6398 45.6984 70.3273C45.6984 70.0148 45.9326 69.741 46.2451 69.741H54.4092C54.7217 69.741 54.9564 70.0148 54.9564 70.3273L54.9556 70.3269Z" fill="#F3F3F3"/>
<path d="M54.9952 70.3269C54.9952 70.6789 54.7214 70.9519 54.4089 70.9519H46.2452C45.9327 70.9519 45.6593 70.6785 45.6593 70.3269C45.6593 69.9757 45.9327 69.7019 46.2452 69.7019H54.4093C54.7218 69.7019 54.9952 69.9757 54.9952 70.3269ZM45.7371 70.2882C45.7371 70.5616 45.9714 70.835 46.2452 70.835H54.4089C54.6823 70.835 54.917 70.6007 54.917 70.2882C54.917 70.0148 54.6823 69.741 54.4089 69.741H46.2452C45.9718 69.7801 45.7375 70.0148 45.7375 70.2882H45.7371Z" fill="white"/>
<path d="M50.621 66.3815C50.5814 66.694 50.3472 66.9283 50.0347 66.9283L46.4016 66.6549C46.0895 66.6158 45.8552 66.3424 45.8939 66.0299C45.9331 65.7174 46.1677 65.4832 46.4802 65.4832L50.1129 65.7565C50.3863 65.7957 50.621 66.069 50.621 66.3815Z" fill="#E2E2E2"/>
<path d="M50.6589 66.3816C50.6198 66.7332 50.3464 66.9675 50.0339 66.9675L46.4008 66.6941C46.0887 66.655 45.8153 66.3816 45.8544 66.03C45.8931 65.6788 46.1669 65.4441 46.4794 65.4441L50.1121 65.7175C50.4246 65.7566 50.6589 66.0691 50.6589 66.3816ZM45.8931 66.03C45.8544 66.3034 46.0887 66.5772 46.3621 66.5772L49.9952 66.8505C50.2681 66.8505 50.5028 66.655 50.5419 66.3425C50.5811 66.0691 50.3464 65.7957 50.073 65.7957L46.4399 65.5223C46.1669 65.5223 45.9323 65.7566 45.8931 66.0304V66.03Z" fill="white"/>
<path d="M55.659 63.53C55.5808 63.8425 55.3074 64.038 54.9949 63.9989L46.9872 62.3582C46.6747 62.2799 46.4792 62.0066 46.5574 61.6941C46.6356 61.3816 46.909 61.186 47.2215 61.2255L55.2296 62.8271C55.503 62.9049 55.6981 63.2175 55.659 63.53V63.53Z" fill="#F3F3F3"/>
<path d="M55.6977 63.5299C55.6194 63.8815 55.3069 64.0771 54.9944 64.038L46.9868 62.4363C46.6743 62.3581 46.44 62.0456 46.5182 61.6944C46.596 61.3424 46.9085 61.1472 47.221 61.1863L55.2291 62.788C55.5416 62.8662 55.7368 63.1787 55.6977 63.5299V63.5299ZM46.596 61.694C46.5569 61.9674 46.713 62.2408 46.9868 62.319L54.9948 63.9206C55.2682 63.9597 55.5416 63.8037 55.6198 63.4908C55.6585 63.2174 55.5025 62.944 55.2287 62.8658L47.2214 61.2646C46.9089 61.2255 46.6747 61.4206 46.5964 61.694H46.596Z" fill="white"/>
<path d="M52.1442 58.8434C52.1263 58.9178 52.0939 58.988 52.0488 59.0498C52.0038 59.1117 51.9469 59.1641 51.8816 59.2039C51.8163 59.2438 51.7438 59.2704 51.6682 59.2823C51.5926 59.2941 51.5154 59.2909 51.441 59.2729L47.9253 58.2963C47.6128 58.218 47.4567 57.9055 47.5345 57.593C47.5525 57.5186 47.5849 57.4485 47.63 57.3867C47.675 57.3248 47.7318 57.2724 47.7971 57.2325C47.8625 57.1927 47.935 57.166 48.0106 57.1542C48.0862 57.1424 48.1634 57.1456 48.2378 57.1636L51.7535 58.1402C52.066 58.218 52.222 58.5305 52.1442 58.843V58.8434Z" fill="#F3F3F3"/>
<path d="M52.1824 58.8423C52.1046 59.1544 51.753 59.389 51.4405 59.2717L47.9247 58.2951C47.6122 58.2169 47.4167 57.8652 47.4949 57.5531C47.5731 57.2402 47.9247 57.006 48.2372 57.1233L51.753 58.0999C52.0655 58.1781 52.261 58.4906 52.1824 58.8419V58.8423ZM47.6122 57.5523C47.534 57.8261 47.6905 58.1386 47.9638 58.2165L51.4796 59.1931C51.753 59.2713 52.0263 59.1148 52.1046 58.8023C52.1824 58.529 52.0263 58.2165 51.753 58.1386L48.2372 57.162C47.9638 57.1229 47.6905 57.279 47.6122 57.5527V57.5523Z" fill="white"/>
<path d="M57.6519 56.9674C57.5349 57.2795 57.1829 57.3968 56.9099 57.2795L49.3704 54.1545C49.097 54.0376 48.941 53.6859 49.0579 53.4126C49.1753 53.1001 49.5269 52.9827 49.8003 53.1001L57.3394 56.2251C57.6519 56.342 57.7692 56.6936 57.6519 56.967V56.9674Z" fill="#F3F3F3"/>
<path d="M57.6903 57.0065C57.6331 57.1566 57.5188 57.2779 57.3723 57.3438C57.2258 57.4097 57.0592 57.4149 56.9089 57.3581L49.3698 54.2331C49.0573 54.1162 48.9403 53.7646 49.0573 53.413C49.1145 53.2629 49.2289 53.1416 49.3753 53.0757C49.5218 53.0097 49.6885 53.0046 49.8387 53.0613L57.3778 56.1863C57.6903 56.3424 57.8073 56.6944 57.6903 57.0065V57.0065ZM49.1355 53.4521C49.0186 53.7255 49.1355 54.038 49.4089 54.1549L56.948 57.2799C57.2214 57.3972 57.4948 57.2408 57.6121 56.9674C57.729 56.694 57.6121 56.3815 57.3387 56.2646L49.7996 53.1396C49.5262 53.0613 49.2137 53.1787 49.1355 53.4521V53.4521Z" fill="white"/>
<path d="M55.112 51.6944C54.9559 51.9678 54.6434 52.0851 54.37 51.9678L51.1277 50.3274C50.8543 50.2101 50.737 49.8585 50.8934 49.546C51.0495 49.2726 51.362 49.1553 51.6354 49.2726L54.8773 50.9133C55.1511 51.0694 55.2684 51.4214 55.112 51.6944Z" fill="#F3F3F3"/>
<path d="M55.1521 51.7338C54.9956 52.0463 54.644 52.1636 54.3315 52.0071L51.0896 50.3664C50.7771 50.2104 50.6597 49.8588 50.8162 49.5463C50.9722 49.2338 51.3242 49.1164 51.6363 49.2729L54.8783 50.9136C55.1912 51.0305 55.3081 51.4217 55.1521 51.7338V51.7338ZM50.9331 49.5854C50.8162 49.8588 50.8944 50.1713 51.1678 50.2886L54.4097 51.9293C54.6444 52.0463 54.9569 51.9293 55.113 51.6946C55.2299 51.4213 55.1521 51.1088 54.8787 50.9914L51.5968 49.3515C51.3626 49.2346 51.0501 49.3124 50.9327 49.5858L50.9331 49.5854Z" fill="white"/>
<path d="M60.8558 50.9518C60.6607 51.2256 60.3482 51.3038 60.0748 51.1083L53.3167 46.6163C53.0438 46.4599 53.0046 46.1083 53.1607 45.8349C53.3171 45.5615 53.6688 45.4833 53.9421 45.6784L60.7389 50.2099C60.9732 50.3663 61.0514 50.7179 60.8558 50.9518Z" fill="#F3F3F3"/>
<path d="M60.8926 50.9903C60.6974 51.2641 60.3067 51.3419 60.0337 51.1859L53.2757 46.6544C53.0023 46.4593 52.924 46.1077 53.1192 45.7956C53.3148 45.5218 53.7055 45.4436 53.9789 45.6L60.7365 50.1311C61.049 50.3266 61.0882 50.7169 60.8926 50.9903ZM53.1974 45.8343C53.0414 46.0686 53.0805 46.4202 53.3144 46.5762L60.1115 51.1081C60.3458 51.2645 60.6583 51.1863 60.8148 50.952C60.9708 50.7173 60.9317 50.3657 60.6978 50.2097L53.9002 45.6782C53.666 45.5218 53.3535 45.6 53.197 45.8343H53.1974Z" fill="white"/>
<path d="M59.4092 45.2882C59.214 45.5225 58.8624 45.6007 58.6281 45.4051L55.7765 43.1789C55.5422 42.9834 55.5031 42.6318 55.6983 42.3975C55.8934 42.1632 56.245 42.085 56.4797 42.2805L59.3309 44.5068C59.5656 44.7023 59.6047 45.0535 59.4092 45.2882V45.2882Z" fill="#F3F3F3"/>
<path d="M59.4492 45.3272C59.254 45.601 58.8633 45.6401 58.5899 45.4445L55.7383 43.2183C55.4649 43.0231 55.4258 42.6324 55.6214 42.3594C55.8165 42.0856 56.2073 42.0465 56.4803 42.2421L59.3319 44.4683C59.6057 44.6639 59.6448 45.0542 59.4492 45.328V45.3272ZM55.6992 42.3977C55.504 42.632 55.5432 42.9445 55.7774 43.1397L58.629 45.3667C58.8633 45.5227 59.1758 45.4836 59.371 45.2494C59.5665 45.0151 59.5274 44.7026 59.2932 44.5074L56.4415 42.2804C56.2073 42.1244 55.8944 42.1635 55.6996 42.3977H55.6992Z" fill="white"/>
<path d="M65.2302 45.678C64.9963 45.9127 64.6443 45.9127 64.4492 45.678L58.6294 39.9361C58.3951 39.7018 58.4338 39.3502 58.6294 39.1547C58.8637 38.9208 59.2153 38.9208 59.4104 39.1547L65.1919 44.897C65.4262 45.0922 65.4262 45.4829 65.231 45.6784L65.2302 45.678Z" fill="#F3F3F3"/>
<path d="M65.2299 45.7184C65.1153 45.8309 64.9611 45.894 64.8005 45.894C64.6399 45.894 64.4856 45.8309 64.371 45.7184L58.5892 39.9757C58.4764 39.861 58.4132 39.7066 58.4132 39.5458C58.4132 39.385 58.4764 39.2306 58.5892 39.116C58.7038 39.0033 58.8581 38.9402 59.0188 38.9402C59.1795 38.9402 59.3338 39.0033 59.4485 39.116L65.2299 44.8583C65.5033 45.0926 65.5033 45.4833 65.2299 45.7176V45.7184ZM58.6682 39.1942C58.4727 39.3898 58.4727 39.7414 58.6682 39.9361L64.4493 45.6785C64.6448 45.874 64.996 45.874 65.1912 45.6785C65.3868 45.4833 65.3868 45.1317 65.1912 44.9365L59.4102 39.1555C59.215 38.9603 58.9021 38.9603 58.6682 39.1946V39.1942Z" fill="white"/>
<path d="M64.8782 39.8575C64.6439 40.0531 64.2923 40.0531 64.0968 39.8184L61.7137 37.0841C61.5189 36.8498 61.5576 36.4982 61.7923 36.3031C62.0262 36.1075 62.3782 36.1075 62.5734 36.3418L64.9564 39.0764C65.1516 39.2716 65.1125 39.6232 64.8782 39.8575Z" fill="#F3F3F3"/>
<path d="M64.9187 39.8584C64.6453 40.0927 64.2937 40.054 64.059 39.8193L61.6764 37.0851C61.4421 36.8508 61.4812 36.4601 61.7546 36.2258C62.028 35.9911 62.3796 36.0302 62.6139 36.2649L64.9969 38.9988C65.1921 39.2726 65.1921 39.6633 64.9187 39.8584V39.8584ZM61.7937 36.304C61.559 36.4992 61.559 36.8117 61.7155 37.0459L64.0985 39.7802C64.2937 39.9758 64.6062 40.0149 64.8405 39.8193C65.0747 39.6242 65.0747 39.3113 64.9187 39.0774L62.5356 36.3427C62.3405 36.1088 62.0276 36.1088 61.7937 36.304V36.304Z" fill="white"/>
<path d="M70.5025 41.3427C70.2291 41.5379 69.8775 41.4597 69.721 41.1863L65.1509 34.4282C64.9944 34.1548 65.0726 33.8032 65.3069 33.6472C65.5803 33.452 65.9319 33.5302 66.0884 33.8036L70.6194 40.5613C70.815 40.8347 70.7367 41.1863 70.5025 41.3423V41.3427Z" fill="#F3F3F3"/>
<path d="M70.504 41.3814C70.2306 41.577 69.8399 41.4983 69.6444 41.2253L65.1133 34.4673C64.9181 34.1939 64.9964 33.8036 65.3085 33.6084C65.5818 33.4128 65.9726 33.4911 66.1681 33.7645L70.6992 40.5221C70.8944 40.8346 70.8161 41.1862 70.504 41.3814ZM65.3472 33.6862C65.1129 33.8423 65.0347 34.1548 65.1911 34.3895L69.7222 41.1471C69.8786 41.3814 70.1911 41.4205 70.4641 41.2641C70.6988 41.108 70.777 40.7955 70.6206 40.5612L66.0899 33.8423C65.9335 33.6084 65.5819 33.5298 65.348 33.6862H65.3472Z" fill="white"/>
<path d="M71.323 35.5609C71.0496 35.7169 70.698 35.6391 70.542 35.3657L68.7448 32.2016C68.5888 31.9282 68.7057 31.5766 68.9795 31.4201C69.2529 31.2641 69.6045 31.3419 69.7605 31.6157L71.5573 34.7794C71.6746 35.0528 71.5964 35.4044 71.3234 35.5609H71.323Z" fill="#F3F3F3"/>
<path d="M71.3233 35.6C71.0108 35.756 70.6592 35.6782 70.5032 35.4044L68.706 32.2407C68.5499 31.9669 68.6282 31.5766 68.9407 31.4201C69.2532 31.2641 69.6048 31.3419 69.7608 31.6157L71.5576 34.7794C71.7141 35.0528 71.6358 35.4044 71.3237 35.6H71.3233ZM68.9798 31.4592C68.7451 31.6153 68.6282 31.9278 68.7842 32.1625L70.5814 35.3266C70.7374 35.5605 71.0499 35.6391 71.2842 35.5217C71.5189 35.3657 71.6358 35.0528 71.4798 34.8185L69.6826 31.6544C69.5657 31.4205 69.2141 31.3028 68.9798 31.4592V31.4592Z" fill="white"/>
<path d="M76.5187 38.1402C76.2066 38.2571 75.8937 38.1402 75.7767 37.8668L72.6126 30.3273C72.4957 30.0539 72.6517 29.7023 72.9251 29.5849C73.2376 29.468 73.5501 29.5849 73.667 29.8583L76.8312 37.3974C76.9485 37.6708 76.7924 38.0224 76.5187 38.1394V38.1402Z" fill="#F3F3F3"/>
<path d="M76.5186 38.1783C76.2065 38.2952 75.8549 38.1783 75.6985 37.8654L72.5344 30.3267C72.4776 30.1764 72.4828 30.0097 72.5487 29.8633C72.6146 29.7168 72.7359 29.6024 72.886 29.5452C73.1985 29.4283 73.5501 29.5452 73.7065 29.8577L76.8702 37.3968C76.9876 37.6702 76.8315 38.0218 76.519 38.1783H76.5186ZM72.9642 29.6234C72.6908 29.7404 72.5735 30.0533 72.6908 30.2875L75.8545 37.8262C75.9714 38.0996 76.2839 38.2166 76.5573 38.0996C76.8307 37.9827 76.9485 37.6698 76.8307 37.4355L73.667 29.8964C73.5106 29.623 73.2372 29.5057 72.9638 29.623L72.9642 29.6234Z" fill="white"/>
<path d="M78.4322 32.5927C78.1197 32.7096 77.8072 32.5532 77.6902 32.2411L76.5572 28.8032C76.4402 28.5298 76.6354 28.1782 76.9088 28.1004C77.1822 28.0221 77.5338 28.1395 77.6507 28.452L78.7838 31.8895C78.9007 32.1629 78.7447 32.4754 78.4322 32.5923V32.5927Z" fill="#F3F3F3"/>
<path d="M78.4709 32.6314C78.3207 32.688 78.1542 32.6828 78.0078 32.6169C77.8614 32.551 77.7471 32.4298 77.6899 32.2798L76.5568 28.8423C76.4399 28.5298 76.6351 28.1786 76.948 28.0612C77.0982 28.0046 77.2647 28.0098 77.4111 28.0757C77.5575 28.1416 77.6718 28.2628 77.729 28.4128L78.8617 31.8503C78.9399 32.1628 78.7834 32.5144 78.4709 32.6314V32.6314ZM76.9476 28.1394C76.6742 28.2173 76.5177 28.5298 76.5959 28.8031L77.729 32.2411C77.8068 32.5144 78.1193 32.6314 78.3931 32.5531C78.6665 32.4753 78.8226 32.1628 78.7443 31.8894L77.6117 28.4515C77.5918 28.3852 77.5581 28.3238 77.5129 28.2714C77.4677 28.219 77.412 28.1766 77.3493 28.1471C77.2867 28.1177 77.2185 28.1017 77.1493 28.1003C77.0801 28.0989 77.0113 28.1121 76.9476 28.139V28.1394Z" fill="white"/>
<path d="M83.0418 36.147C82.7293 36.2252 82.4168 36.03 82.3777 35.7171L80.7369 27.7095C80.6587 27.397 80.8934 27.1236 81.2055 27.0453C81.5184 26.9671 81.8305 27.1623 81.8696 27.4752L83.5107 35.4833C83.5495 35.7562 83.3543 36.0687 83.0418 36.147V36.147Z" fill="#F3F3F3"/>
<path d="M83.0419 36.186C82.6903 36.2642 82.3778 36.0295 82.2995 35.717L80.6588 27.7094C80.5806 27.3969 80.8153 27.0452 81.1278 27.0061C81.4794 26.9279 81.7919 27.1626 81.8697 27.4751L83.5108 35.4831C83.5887 35.7952 83.3935 36.1081 83.0419 36.186V36.186ZM81.206 27.0844C80.9322 27.1235 80.737 27.3969 80.7762 27.7094L82.4169 35.7174C82.456 35.9904 82.7681 36.186 83.0419 36.1077C83.3153 36.0686 83.5104 35.7952 83.4713 35.4827L81.8306 27.4747C81.7528 27.2017 81.4794 27.0452 81.2056 27.0844H81.206Z" fill="white"/>
<path d="M86.0111 31.0692C85.6986 31.1083 85.4252 30.9131 85.3469 30.6006L84.8784 27.0067C84.8393 26.6942 85.0736 26.4208 85.3865 26.3817C85.6986 26.3426 85.9719 26.5381 86.0502 26.8506L86.5187 30.4442C86.5578 30.7567 86.3236 31.0301 86.0111 31.0692V31.0692Z" fill="#F3F3F3"/>
<path d="M86.0111 31.1085C85.6595 31.1477 85.347 30.9134 85.3079 30.6005L84.8393 27.0069C84.8002 26.6944 85.0345 26.3819 85.3861 26.3428C85.7377 26.3041 86.0502 26.5384 86.0893 26.8509L86.5579 30.4444C86.597 30.7569 86.3627 31.0694 86.0111 31.1085V31.1085ZM85.4252 26.421C85.1518 26.4602 84.9171 26.7335 84.9563 27.0069L85.4252 30.6009C85.4643 30.8743 85.7377 31.0694 86.0111 31.0303C86.2845 30.9916 86.5192 30.7178 86.48 30.4444L86.0111 26.8509C85.972 26.5775 85.6986 26.3819 85.4252 26.421V26.421Z" fill="white"/>
<path d="M90.2296 116.655C115.773 116.655 136.48 95.9482 136.48 70.405C136.48 44.8619 115.773 24.155 90.2296 24.155C64.6864 24.155 43.9796 44.8619 43.9796 70.405C43.9796 95.9482 64.6864 116.655 90.2296 116.655Z" fill="url(#paint2_linear_1_487)" fill-opacity="0.2"/>
<g filter="url(#filter1_d_1_487)">
<path d="M122.26 41.0691L84.9557 64.9755H84.9165V65.0143L84.8774 65.0534L61.5968 103.452L95.8153 75.913L95.8544 75.8743V75.8352L122.261 41.0695L122.26 41.0691Z" fill="black" fill-opacity="0.05"/>
</g>
<path d="M121.558 38.8425L84.6827 65.0534L95.6202 75.9127L121.558 38.8425" fill="#CD151E"/>
<path d="M84.7218 64.9756L90.2299 70.405L121.558 38.8425L84.7218 64.9756V64.9756Z" fill="#FA5153"/>
<path d="M84.7218 64.9757L95.6593 75.8346L58.7843 102.046L84.7218 64.9753V64.9757Z" fill="#ACACAC"/>
<path d="M58.7843 102.046L90.2294 70.4052L84.7214 64.9753L58.7843 102.046Z" fill="#EEEEEE"/>
<defs>
<filter id="filter0_d_1_487" x="0.893665" y="0.912842" width="178.125" height="178.125" filterUnits="userSpaceOnUse" color-interpolation-filters="sRGB">
<feFlood flood-opacity="0" result="BackgroundImageFix"/>
<feColorMatrix in="SourceAlpha" type="matrix" values="0 0 0 0 0 0 0 0 0 0 0 0 0 0 0 0 0 0 127 0" result="hardAlpha"/>
<feOffset dy="19.5312"/>
<feGaussianBlur stdDeviation="19.5312"/>
<feColorMatrix type="matrix" values="0 0 0 0 0 0 0 0 0 0 0 0 0 0 0 0 0 0 0.266007 0"/>
<feBlend mode="normal" in2="BackgroundImageFix" result="effect1_dropShadow_1_487"/>
<feBlend mode="normal" in="SourceGraphic" in2="effect1_dropShadow_1_487" result="shape"/>
</filter>
<filter id="filter1_d_1_487" x="22.5343" y="11.7722" width="138.789" height="140.508" filterUnits="userSpaceOnUse" color-interpolation-filters="sRGB">
<feFlood flood-opacity="0" result="BackgroundImageFix"/>
<feColorMatrix in="SourceAlpha" type="matrix" values="0 0 0 0 0 0 0 0 0 0 0 0 0 0 0 0 0 0 127 0" result="hardAlpha"/>
<feOffset dy="9.76562"/>
<feGaussianBlur stdDeviation="19.5312"/>
<feColorMatrix type="matrix" values="0 0 0 0 0 0 0 0 0 0 0 0 0 0 0 0 0 0 1 0"/>
<feBlend mode="normal" in2="BackgroundImageFix" result="effect1_dropShadow_1_487"/>
<feBlend mode="normal" in="SourceGraphic" in2="effect1_dropShadow_1_487" result="shape"/>
</filter>
<linearGradient id="paint0_linear_1_487" x1="89.9562" y1="120.444" x2="89.9562" y2="20.4441" gradientUnits="userSpaceOnUse">
<stop offset="0.25" stop-color="#DBDBDA"/>
<stop offset="1" stop-color="white"/>
</linearGradient>
<radialGradient id="paint1_radial_1_487" cx="0" cy="0" r="1" gradientUnits="userSpaceOnUse" gradientTransform="translate(96.4543 60.2848) scale(56.4546)">
<stop stop-color="#2ABCE1"/>
<stop offset="0.11363" stop-color="#2ABBE1"/>
<stop offset="1" stop-color="#3375F8"/>
</radialGradient>
<linearGradient id="paint2_linear_1_487" x1="89.3509" y1="57.1803" x2="67.7641" y2="95.9091" gradientUnits="userSpaceOnUse">
<stop stop-opacity="0"/>
<stop offset="1"/>
</linearGradient>
</defs>
</svg>
