<svg width="335" height="72" viewBox="0 0 335 72" fill="none" xmlns="http://www.w3.org/2000/svg">
<path d="M334.13 32.3768V26.5174H326.854V17.4083L326.609 17.4837L319.774 19.5748L319.64 19.6157V26.5178H308.853V22.6727C308.853 20.8824 309.253 19.5123 310.042 18.5985C310.825 17.6958 311.946 17.2368 313.375 17.2368C314.403 17.2368 315.467 17.4789 316.537 17.9562L316.806 18.0761V11.9054L316.68 11.8589C315.681 11.4999 314.322 11.3191 312.638 11.3191C310.516 11.3191 308.588 11.7809 306.906 12.6963C305.223 13.6129 303.899 14.9214 302.972 16.5851C302.048 18.2469 301.579 20.1662 301.579 22.2902V26.5174H296.513V32.3768H301.579V57.0614H308.853V32.3768H319.64V48.0635C319.64 54.524 322.687 57.7979 328.697 57.7979C329.684 57.7979 330.724 57.6822 331.785 57.4556C332.865 57.2229 333.601 56.9905 334.034 56.7423L334.13 56.6856V50.7721L333.834 50.9677C333.44 51.2307 332.948 51.4457 332.372 51.6055C331.793 51.7683 331.309 51.8498 330.935 51.8498C329.527 51.8498 328.485 51.4705 327.839 50.7218C327.186 49.9663 326.854 48.6452 326.854 46.7972V32.3768H334.13ZM280.27 51.8508C277.63 51.8508 275.549 50.9754 274.082 49.2511C272.606 47.5181 271.858 45.0474 271.858 41.9082C271.858 38.6694 272.606 36.1345 274.083 34.3709C275.55 32.6189 277.612 31.7297 280.211 31.7297C282.733 31.7297 284.74 32.5789 286.179 34.2552C287.624 35.9402 288.357 38.4548 288.357 41.7313C288.357 45.048 287.668 47.5958 286.307 49.3001C284.957 50.9916 282.926 51.8508 280.27 51.8508V51.8508ZM280.593 25.7816C275.557 25.7816 271.556 27.2574 268.704 30.1681C265.854 33.0791 264.408 37.1075 264.408 42.1425C264.408 46.9248 265.819 50.7714 268.602 53.5738C271.385 56.3772 275.172 57.7972 279.857 57.7972C284.739 57.7972 288.66 56.3008 291.511 53.3498C294.362 50.4021 295.806 46.4117 295.806 41.4944C295.806 36.6373 294.451 32.762 291.777 29.9783C289.101 27.1933 285.338 25.7816 280.593 25.7816V25.7816ZM252.682 25.7816C249.256 25.7816 246.422 26.658 244.257 28.3858C242.079 30.124 240.974 32.4036 240.974 35.1622C240.974 36.5961 241.212 37.8698 241.682 38.9501C242.154 40.034 242.884 40.9884 243.855 41.7893C244.818 42.5837 246.306 43.4159 248.276 44.2626C249.933 44.9443 251.168 45.5208 251.953 45.9753C252.72 46.4207 253.264 46.8684 253.572 47.3045C253.871 47.7312 254.022 48.3152 254.022 49.0358C254.022 51.0879 252.485 52.0864 249.323 52.0864C248.15 52.0864 246.813 51.8415 245.347 51.3587C243.892 50.8832 242.519 50.1868 241.275 49.294L240.973 49.0774V56.08L241.084 56.1316C242.113 56.6067 243.411 57.0073 244.94 57.3225C246.466 57.638 247.853 57.7985 249.058 57.7985C252.776 57.7985 255.77 56.918 257.954 55.1798C260.153 53.4298 261.267 51.0963 261.267 48.2423C261.267 46.1835 260.667 44.4179 259.485 42.994C258.311 41.5817 256.273 40.2851 253.43 39.139C251.166 38.2301 249.715 37.4756 249.117 36.8964C248.54 36.3369 248.247 35.5457 248.247 34.5437C248.247 33.6554 248.608 32.9438 249.351 32.3675C250.099 31.7883 251.14 31.4937 252.446 31.4937C253.658 31.4937 254.898 31.6852 256.131 32.0603C257.363 32.4355 258.445 32.938 259.349 33.5526L259.646 33.7556V27.113L259.532 27.0641C258.698 26.7066 257.599 26.4008 256.264 26.1526C254.935 25.906 253.73 25.7816 252.682 25.7816V25.7816ZM222.013 51.8508C219.373 51.8508 217.291 50.9754 215.825 49.2511C214.349 47.5181 213.602 45.048 213.602 41.9082C213.602 38.6694 214.35 36.1345 215.826 34.3709C217.293 32.6189 219.354 31.7297 221.954 31.7297C224.475 31.7297 226.483 32.5789 227.921 34.2552C229.367 35.9402 230.1 38.4548 230.1 41.7313C230.1 45.048 229.41 47.5958 228.05 49.3001C226.699 50.9916 224.669 51.8508 222.013 51.8508V51.8508ZM222.337 25.7816C217.299 25.7816 213.298 27.2574 210.448 30.1681C207.597 33.0791 206.151 37.1075 206.151 42.1425C206.151 46.9267 207.563 50.7714 210.345 53.5738C213.128 56.3772 216.915 57.7972 221.6 57.7972C226.482 57.7972 230.403 56.3008 233.254 53.3498C236.104 50.4021 237.549 46.4117 237.549 41.4944C237.549 36.6373 236.194 32.762 233.519 29.9783C230.843 27.1933 227.08 25.7816 222.337 25.7816V25.7816ZM195.11 31.807V26.5174H187.926V57.0608H195.11V41.4367C195.11 38.78 195.713 36.5973 196.901 34.9488C198.075 33.3199 199.639 32.4945 201.548 32.4945C202.195 32.4945 202.922 32.6012 203.708 32.8123C204.487 33.0221 205.051 33.2499 205.384 33.4897L205.686 33.7086V26.4652L205.569 26.4153C204.9 26.131 203.954 25.9876 202.756 25.9876C200.95 25.9876 199.335 26.5677 197.951 27.7099C196.736 28.7139 195.858 30.0904 195.187 31.807H195.11ZM175.059 25.7816C171.763 25.7816 168.823 26.4884 166.322 27.8817C163.816 29.2783 161.878 31.272 160.56 33.8072C159.247 36.3363 158.581 39.2905 158.581 42.585C158.581 45.4709 159.227 48.1192 160.504 50.4533C161.782 52.7913 163.591 54.6203 165.88 55.8889C168.167 57.1559 170.809 57.7982 173.735 57.7982C177.15 57.7982 180.065 57.1156 182.402 55.7693L182.496 55.7152V49.1329L182.194 49.3533C181.136 50.1246 179.953 50.7402 178.679 51.1836C177.41 51.6268 176.252 51.8508 175.237 51.8508C172.418 51.8508 170.154 50.9687 168.512 49.2295C166.865 47.4882 166.03 45.0429 166.03 41.9659C166.03 38.8696 166.901 36.3614 168.617 34.5108C170.327 32.6656 172.594 31.7297 175.355 31.7297C177.717 31.7297 180.018 32.5293 182.195 34.1086L182.496 34.3274V27.3918L182.399 27.337C181.58 26.8784 180.462 26.4997 179.075 26.2125C177.694 25.926 176.343 25.7816 175.059 25.7816V25.7816ZM153.632 26.5178H146.448V57.0608H153.632V26.5178V26.5178ZM150.113 13.5062C148.931 13.5062 147.9 13.9088 147.052 14.7065C146.201 15.5064 145.77 16.5136 145.77 17.7022C145.77 18.8722 146.196 19.861 147.039 20.6397C147.876 21.4161 148.911 21.8096 150.114 21.8096C151.316 21.8096 152.355 21.4161 153.202 20.641C154.055 19.861 154.487 18.8725 154.487 17.7022C154.487 16.5552 154.066 15.5583 153.237 14.7387C152.409 13.9207 151.357 13.5062 150.113 13.5062ZM132.187 24.2642V57.0608H139.519V14.4412H129.371L116.472 46.0978L103.954 14.4412H93.3929V57.0605H100.283V24.261H100.52L113.738 57.0608H118.938L131.951 24.2642H132.187V24.2642Z" fill="#706D6E"/>
<path d="M34.7551 33.9969H0.956177V0.197998H34.7551V33.9969Z" fill="#F1511B"/>
<path d="M72.074 33.9969H38.2758V0.197998H72.074V33.9969Z" fill="#80CC28"/>
<path d="M34.7541 71.3291H0.956177V37.5305H34.7541V71.3291Z" fill="#00ADEF"/>
<path d="M72.074 71.3291H38.2758V37.5305H72.074V71.3291Z" fill="#FBBC09"/>
</svg>
