<svg width="25" height="25" viewBox="0 0 25 25" fill="none" xmlns="http://www.w3.org/2000/svg">
<path d="M17.4493 0.639648H7.73171C3.78243 0.639648 0.56945 3.85262 0.56945 7.80191V17.5195C0.56945 21.4687 3.78243 24.6817 7.73171 24.6817H17.4493C21.3985 24.6817 24.6115 21.4687 24.6115 17.5195V7.80191C24.6115 3.85262 21.3985 0.639648 17.4493 0.639648ZM22.1929 17.5195C22.1929 20.1393 20.0691 22.2631 17.4493 22.2631H7.73171C5.1119 22.2631 2.98808 20.1393 2.98808 17.5195V7.80191C2.98808 5.18205 5.1119 3.05828 7.73171 3.05828H17.4493C20.0691 3.05828 22.1929 5.18205 22.1929 7.80191V17.5195Z" fill="url(#paint0_linear_1_655)"/>
<path d="M12.5907 6.44287C9.16199 6.44287 6.37254 9.23232 6.37254 12.661C6.37254 16.0896 9.16199 18.8791 12.5907 18.8791C16.0194 18.8791 18.8088 16.0896 18.8088 12.661C18.8088 9.23228 16.0194 6.44287 12.5907 6.44287ZM12.5907 16.4605C10.4922 16.4605 8.79117 14.7594 8.79117 12.661C8.79117 10.5626 10.4923 8.8615 12.5907 8.8615C14.6891 8.8615 16.3902 10.5626 16.3902 12.661C16.3902 14.7594 14.6891 16.4605 12.5907 16.4605Z" fill="url(#paint1_linear_1_655)"/>
<path d="M18.8204 7.97941C19.6433 7.97941 20.3104 7.31234 20.3104 6.48946C20.3104 5.66659 19.6433 4.99951 18.8204 4.99951C17.9975 4.99951 17.3305 5.66659 17.3305 6.48946C17.3305 7.31234 17.9975 7.97941 18.8204 7.97941Z" fill="url(#paint2_linear_1_655)"/>
<defs>
<linearGradient id="paint0_linear_1_655" x1="12.5905" y1="24.6117" x2="12.5905" y2="0.826378" gradientUnits="userSpaceOnUse">
<stop stop-color="#E09B3D"/>
<stop offset="0.3" stop-color="#C74C4D"/>
<stop offset="0.6" stop-color="#C21975"/>
<stop offset="1" stop-color="#7024C4"/>
</linearGradient>
<linearGradient id="paint1_linear_1_655" x1="12.5907" y1="24.612" x2="12.5907" y2="0.826702" gradientUnits="userSpaceOnUse">
<stop stop-color="#E09B3D"/>
<stop offset="0.3" stop-color="#C74C4D"/>
<stop offset="0.6" stop-color="#C21975"/>
<stop offset="1" stop-color="#7024C4"/>
</linearGradient>
<linearGradient id="paint2_linear_1_655" x1="18.8204" y1="24.6118" x2="18.8204" y2="0.82652" gradientUnits="userSpaceOnUse">
<stop stop-color="#E09B3D"/>
<stop offset="0.3" stop-color="#C74C4D"/>
<stop offset="0.6" stop-color="#C21975"/>
<stop offset="1" stop-color="#7024C4"/>
</linearGradient>
</defs>
</svg>
