<svg width="25" height="25" viewBox="0 0 25 25" fill="none" xmlns="http://www.w3.org/2000/svg">
<path d="M12.7362 0.639648C19.3752 0.639648 24.7565 6.02174 24.7565 12.66C24.7565 19.2983 19.3752 24.6803 12.7362 24.6803C6.09719 24.6803 0.715927 19.2982 0.715927 12.66C0.715927 6.02182 6.09727 0.639648 12.7362 0.639648Z" fill="#0E76A8"/>
<path d="M7.48977 17.1556H9.74059V9.65342H7.48977V17.1556ZM16.2586 9.39356C15.1663 9.39356 14.1888 9.79247 13.4955 10.673V9.62875H11.2364V17.1557H13.4955V13.0853C13.4955 12.2251 14.2836 11.3859 15.2707 11.3859C16.2579 11.3859 16.5013 12.2251 16.5013 13.0643V17.155H18.7521V12.8968C18.7521 9.93895 17.3517 9.39356 16.2586 9.39356ZM8.60466 8.9037C9.22672 8.9037 9.7316 8.39882 9.7316 7.77676C9.7316 7.1547 9.22672 6.6499 8.60466 6.6499C7.9826 6.6499 7.47772 7.15478 7.47772 7.77684C7.47772 8.3989 7.9826 8.9037 8.60466 8.9037Z" fill="white"/>
</svg>
