<svg width="125" height="124" viewBox="0 0 125 124" fill="none" xmlns="http://www.w3.org/2000/svg">
<g filter="url(#filter0_d_1_844)">
<path d="M62.6633 65.3734C75.1928 65.3734 85.35 55.2162 85.35 42.6867C85.35 30.1572 75.1928 20 62.6633 20C50.1338 20 39.9766 30.1572 39.9766 42.6867C39.9766 55.2162 50.1338 65.3734 62.6633 65.3734Z" fill="url(#paint0_linear_1_844)"/>
</g>
<path d="M62.6633 63.6718C74.2531 63.6718 83.6485 54.2764 83.6485 42.6866C83.6485 31.0968 74.2531 21.7014 62.6633 21.7014C51.0735 21.7014 41.6781 31.0968 41.6781 42.6866C41.6781 54.2764 51.0735 63.6718 62.6633 63.6718Z" fill="url(#paint1_radial_1_844)"/>
<path d="M62.6987 26.806C62.5569 26.806 62.4329 26.6997 62.4329 26.5579V22.8536C62.4329 22.7118 62.5569 22.6055 62.6987 22.6055C62.8405 22.6055 62.9645 22.7118 62.9645 22.8536V26.5579C62.9468 26.6997 62.8405 26.806 62.6987 26.806Z" fill="#F3F3F3"/>
<path d="M62.6987 26.8237C62.5392 26.8237 62.4152 26.6996 62.4152 26.5578V22.8535C62.4152 22.7117 62.5392 22.5876 62.6987 22.5876C62.8583 22.5876 62.9823 22.7117 62.9823 22.8535V26.5578C62.9823 26.6996 62.8405 26.8237 62.6987 26.8237ZM62.6987 22.623C62.5747 22.623 62.4507 22.7294 62.4507 22.8535V26.5578C62.4507 26.6819 62.557 26.7883 62.6987 26.7883C62.8228 26.7883 62.9468 26.6819 62.9468 26.5578V22.8535C62.9293 22.7294 62.8228 22.623 62.6987 22.623Z" fill="white"/>
<path d="M64.4711 24.8211C64.3293 24.8034 64.223 24.6971 64.223 24.5553L64.3471 22.9068C64.3646 22.7652 64.4889 22.6587 64.6307 22.6765C64.7724 22.6942 64.8787 22.8007 64.8787 22.9425L64.7547 24.5908C64.737 24.7326 64.6129 24.8389 64.4711 24.8213V24.8211Z" fill="#F3F3F3"/>
<path d="M64.4712 24.8385C64.3116 24.8208 64.2053 24.6967 64.2053 24.5549L64.3294 22.9065C64.3471 22.7649 64.4712 22.6408 64.6307 22.6584C64.7901 22.6761 64.8965 22.8004 64.8965 22.942L64.7725 24.5904C64.7547 24.75 64.6307 24.8563 64.4712 24.8385ZM64.6307 22.6939C64.5067 22.6939 64.3824 22.7826 64.3824 22.9067L64.2584 24.5551C64.2584 24.679 64.3471 24.7855 64.4889 24.803C64.613 24.803 64.737 24.7145 64.737 24.5904L64.861 22.942C64.861 22.8179 64.7547 22.7116 64.6305 22.6939H64.6307Z" fill="white"/>
<path d="M65.801 27.1248C65.659 27.0894 65.5704 26.9653 65.5882 26.8235L66.3149 23.19C66.3504 23.0484 66.4744 22.9596 66.6162 22.9951C66.758 23.0306 66.8466 23.1547 66.8288 23.2965L66.1021 26.93C66.0844 27.0539 65.9426 27.1426 65.8008 27.1248H65.801Z" fill="#F3F3F3"/>
<path d="M65.801 27.1425C65.6413 27.1071 65.5527 26.9653 65.5705 26.8235L66.2972 23.1899C66.3327 23.0483 66.4745 22.9418 66.6338 22.9773C66.7934 23.0128 66.8821 23.1546 66.8644 23.2964L66.1376 26.93C66.1022 27.0716 65.9604 27.1603 65.801 27.1425ZM66.6338 23.0128C66.5098 22.9951 66.3857 23.0659 66.3502 23.1901L65.6237 26.8237C65.606 26.9475 65.6768 27.0716 65.8186 27.1072C65.9426 27.1248 66.0667 27.0538 66.1022 26.9298L66.8289 23.2964C66.8466 23.1546 66.7581 23.0483 66.6338 23.0128Z" fill="white"/>
<path d="M67.9275 25.5301C67.8937 25.522 67.8619 25.5073 67.8339 25.4868C67.8058 25.4664 67.782 25.4406 67.7639 25.411C67.7458 25.3813 67.7338 25.3484 67.7284 25.3141C67.723 25.2798 67.7245 25.2448 67.7327 25.211L68.1758 23.616C68.2111 23.4742 68.3529 23.4032 68.4947 23.4387C68.6365 23.4742 68.7252 23.616 68.6897 23.7578L68.2466 25.353C68.2111 25.4946 68.0693 25.5656 67.9275 25.5301Z" fill="#F3F3F3"/>
<path d="M67.927 25.5475C67.7852 25.5121 67.6789 25.3525 67.7321 25.2109L68.1752 23.6155C68.2105 23.4739 68.3701 23.3852 68.5119 23.4207C68.6537 23.4562 68.76 23.6157 68.7069 23.7573L68.2638 25.3527C68.2283 25.4943 68.0865 25.583 67.9271 25.5475H67.927ZM68.5119 23.4739C68.3878 23.4384 68.246 23.5094 68.2105 23.6334L67.7676 25.2285C67.7321 25.3525 67.8029 25.4767 67.9447 25.5121C68.0687 25.5475 68.2105 25.4767 68.246 25.3527L68.6892 23.7573C68.7069 23.6334 68.6361 23.5094 68.5119 23.4737V23.4739Z" fill="white"/>
<path d="M68.7965 28.029C68.6547 27.9757 68.6016 27.8162 68.6547 27.6921L70.0726 24.2714C70.1257 24.1473 70.2854 24.0764 70.4093 24.1473C70.5512 24.2004 70.6045 24.3601 70.5512 24.484L69.1333 27.9047C69.0803 28.029 68.9205 28.0998 68.7967 28.029H68.7965Z" fill="#F3F3F3"/>
<path d="M68.7958 28.0467C68.7277 28.0208 68.6727 27.9689 68.6428 27.9024C68.6129 27.836 68.6105 27.7604 68.6363 27.6922L70.0542 24.2714C70.1074 24.1296 70.267 24.0764 70.4265 24.1296C70.4946 24.1556 70.5497 24.2075 70.5796 24.2739C70.6095 24.3404 70.6118 24.416 70.5861 24.4842L69.1681 27.905C69.0972 28.0467 68.9376 28.1176 68.7958 28.0467ZM70.4088 24.1651C70.2847 24.1121 70.1429 24.1651 70.0897 24.2892L68.6718 27.7099C68.6187 27.834 68.6895 27.958 68.8136 28.0113C68.9376 28.0643 69.0794 28.0113 69.1326 27.8872L70.5506 24.4665C70.5861 24.36 70.5328 24.2182 70.4088 24.1651Z" fill="white"/>
<path d="M71.1889 26.8946C71.0646 26.8236 71.0114 26.6818 71.0646 26.5577L71.8091 25.0868C71.8799 24.9625 72.0217 24.9093 72.1637 24.9803C72.2877 25.0513 72.3408 25.1931 72.2877 25.3169L71.5431 26.7881C71.4723 26.9121 71.3305 26.9656 71.1887 26.8946H71.1889Z" fill="#F3F3F3"/>
<path d="M71.1889 26.9128C71.0469 26.8418 70.9939 26.6823 71.0647 26.5405L71.8091 25.0695C71.8799 24.9275 72.0397 24.8745 72.1813 24.9453C72.3231 25.0163 72.3763 25.1758 72.3053 25.3176L71.561 26.7886C71.49 26.9304 71.3305 26.9836 71.1887 26.9126L71.1889 26.9128ZM72.1637 24.9808C72.0395 24.9277 71.8977 24.963 71.8446 25.0871L71.1002 26.5582C71.0471 26.6645 71.1002 26.8063 71.2065 26.8773C71.3305 26.9304 71.4723 26.8951 71.5255 26.771L72.27 25.2999C72.3231 25.1936 72.27 25.0518 72.1637 24.9808Z" fill="white"/>
<path d="M71.5426 29.5177C71.4186 29.4292 71.3831 29.2696 71.4716 29.1633L73.5277 26.097C73.5985 25.9729 73.7582 25.9552 73.8821 26.0261C74.0063 26.1147 74.0417 26.2742 73.9531 26.3805L71.897 29.4469C71.8262 29.5709 71.6667 29.6064 71.5426 29.5177Z" fill="#F3F3F3"/>
<path d="M71.5437 29.5356C71.4196 29.447 71.3841 29.2697 71.4551 29.1457L73.511 26.0793C73.5996 25.9553 73.7591 25.9198 73.9009 26.0085C74.025 26.0971 74.0604 26.2744 73.9896 26.3984L71.9336 29.4648C71.845 29.5888 71.6677 29.6241 71.5437 29.5356ZM73.8832 26.044C73.777 25.973 73.6173 25.9908 73.5465 26.0971L71.4904 29.1634C71.4196 29.2696 71.4549 29.4115 71.5614 29.4823C71.6677 29.5533 71.8273 29.5356 71.8981 29.4293L73.9541 26.3807C74.025 26.2744 73.9896 26.1148 73.8832 26.044Z" fill="white"/>
<path d="M74.1312 28.8621C74.0251 28.7734 73.9896 28.6138 74.0781 28.5075L75.1062 27.2137C75.1947 27.1075 75.3543 27.0896 75.4606 27.1784C75.567 27.2669 75.6023 27.4264 75.5136 27.5327L74.4858 28.8266C74.3972 28.9329 74.2377 28.9507 74.1314 28.8621H74.1312Z" fill="#F3F3F3"/>
<path d="M74.1134 28.8797C73.9894 28.791 73.9716 28.6137 74.0604 28.4897L75.0882 27.196C75.1768 27.0718 75.354 27.054 75.4781 27.1605C75.6021 27.249 75.6199 27.4263 75.5312 27.5504L74.5033 28.8443C74.4147 28.9683 74.2375 28.986 74.1134 28.8797ZM75.4426 27.1958C75.3365 27.1073 75.1945 27.125 75.106 27.2313L74.0779 28.5252C74.0071 28.6315 74.0249 28.7733 74.131 28.8618C74.2375 28.9505 74.3792 28.9328 74.4678 28.8265L75.4958 27.5326C75.5668 27.4263 75.5489 27.2668 75.4428 27.196L75.4426 27.1958Z" fill="white"/>
<path d="M73.9534 31.5202C73.8471 31.4139 73.8471 31.2544 73.9534 31.1657L76.5764 28.5603C76.6829 28.454 76.8423 28.4716 76.931 28.5603C77.0196 28.6489 77.0373 28.8262 76.931 28.9147L74.3257 31.5202C74.2192 31.6265 74.0597 31.6265 73.9534 31.5202Z" fill="#F3F3F3"/>
<path d="M73.9357 31.5384C73.8846 31.4864 73.856 31.4164 73.856 31.3434C73.856 31.2705 73.8846 31.2005 73.9357 31.1485L76.5588 28.543C76.6108 28.4918 76.6808 28.4631 76.7538 28.4631C76.8268 28.4631 76.8968 28.4918 76.9488 28.543C77 28.595 77.0286 28.665 77.0286 28.7379C77.0286 28.8109 77 28.8809 76.9488 28.9329L74.3256 31.5382C74.2736 31.5893 74.2036 31.618 74.1307 31.618C74.0577 31.618 73.9877 31.5893 73.9357 31.5382V31.5384ZM76.9311 28.5607C76.8425 28.472 76.683 28.472 76.5945 28.5607L73.9712 31.166C73.8825 31.2548 73.8825 31.4143 73.9712 31.5029C74.0598 31.5916 74.2193 31.5916 74.3079 31.5029L76.9311 28.8976C77.0197 28.8088 77.0197 28.667 76.9311 28.5607Z" fill="white"/>
<path d="M76.6126 31.3787C76.524 31.2724 76.524 31.1129 76.6303 31.0241L77.8887 29.9608C77.995 29.8722 78.1545 29.8898 78.2433 29.9963C78.3318 30.1026 78.3318 30.2621 78.2255 30.3507L76.9671 31.4142C76.8607 31.5028 76.7011 31.485 76.6126 31.3787Z" fill="#F3F3F3"/>
<path d="M76.5948 31.3962C76.4885 31.2722 76.5063 31.0949 76.6126 31.0064L77.871 29.9428C77.9773 29.8365 78.1546 29.8543 78.2609 29.9783C78.3673 30.1024 78.3496 30.2797 78.2433 30.3682L76.9847 31.4317C76.8786 31.5379 76.7011 31.5203 76.595 31.3962H76.5948ZM78.2255 29.9961C78.1368 29.8898 77.995 29.8898 77.8889 29.9606L76.6303 31.0241C76.5418 31.1127 76.524 31.2545 76.6126 31.3607C76.7011 31.467 76.8431 31.467 76.9492 31.3962L78.2078 30.3327C78.3141 30.2442 78.3141 30.1024 78.2255 29.9961Z" fill="white"/>
<path d="M75.9027 33.9313C75.8141 33.8072 75.8496 33.6477 75.9737 33.5767L79.0576 31.5208C79.1816 31.4498 79.3412 31.4853 79.412 31.5918C79.5007 31.7159 79.4652 31.8754 79.3412 31.9462L76.2572 34.0021C76.1508 34.0731 75.9912 34.0376 75.9027 33.9313Z" fill="#F3F3F3"/>
<path d="M75.8849 33.931C75.7963 33.8069 75.8318 33.6296 75.9558 33.5411L79.0398 31.485C79.1638 31.3965 79.3411 31.432 79.4297 31.5738C79.5184 31.6978 79.4827 31.8751 79.3589 31.9635L76.2749 34.0197C76.1507 34.1084 75.9736 34.073 75.8849 33.9312V33.931ZM79.3942 31.6092C79.3234 31.5028 79.1816 31.4673 79.0753 31.5383L75.9912 33.5942C75.885 33.6651 75.8494 33.8069 75.9381 33.931C76.0089 34.0373 76.1507 34.0728 76.2572 34.002L79.3411 31.9459C79.4474 31.8573 79.4651 31.7154 79.3942 31.6092Z" fill="white"/>
<path d="M78.5447 34.3032C78.4737 34.179 78.5092 34.0196 78.6333 33.9486L80.0689 33.1334C80.193 33.0624 80.3525 33.1156 80.4233 33.2395C80.4943 33.3637 80.4588 33.5231 80.3348 33.5941L78.8991 34.4095C78.7751 34.4803 78.6155 34.4272 78.5445 34.303L78.5447 34.3032Z" fill="#F3F3F3"/>
<path d="M78.527 34.3208C78.456 34.179 78.4915 34.0194 78.6156 33.9486L80.0512 33.1334C80.1753 33.0624 80.3526 33.1156 80.4234 33.2395C80.4944 33.3815 80.4589 33.541 80.3348 33.6118L78.8992 34.4272C78.7751 34.498 78.5978 34.4448 78.527 34.3208ZM80.4056 33.2574C80.3348 33.1334 80.193 33.0979 80.0867 33.1687L78.6511 33.9841C78.5448 34.0549 78.5093 34.1967 78.5623 34.303C78.6333 34.4271 78.7751 34.4626 78.8814 34.3917L80.3171 33.5763C80.4234 33.5233 80.4589 33.3815 80.4056 33.2574Z" fill="white"/>
<path d="M77.3572 36.6607C77.3042 36.5189 77.3572 36.3771 77.499 36.324L80.9198 34.9061C81.0438 34.8529 81.2033 34.9237 81.2564 35.0477C81.3096 35.1895 81.2564 35.3313 81.1146 35.3843L77.694 36.8023C77.5698 36.8555 77.4105 36.8023 77.3572 36.6607Z" fill="#F3F3F3"/>
<path d="M77.3394 36.6781C77.2863 36.5365 77.3394 36.377 77.4812 36.306L80.9019 34.8881C80.9701 34.8624 81.0457 34.8647 81.1121 34.8946C81.1785 34.9245 81.2304 34.9795 81.2563 35.0476C81.3096 35.1894 81.2563 35.3489 81.1145 35.4197L77.694 36.8376C77.6258 36.8634 77.5502 36.8611 77.4838 36.8312C77.4173 36.8014 77.3654 36.7464 77.3394 36.6783V36.6781ZM81.221 35.0653C81.1678 34.9413 81.026 34.8881 80.9197 34.9235L77.4989 36.3415C77.3749 36.3945 77.3216 36.5365 77.3749 36.6605C77.4279 36.7846 77.5697 36.8378 77.6762 36.8023L81.0968 35.3844C81.221 35.3314 81.2743 35.1894 81.221 35.0653Z" fill="white"/>
<path d="M79.8555 37.5468C79.8024 37.4048 79.8732 37.2632 80.015 37.21L81.5747 36.6959C81.6988 36.6428 81.8583 36.7314 81.8938 36.8554C81.9469 36.9972 81.8761 37.139 81.7343 37.1922L80.1746 37.7063C80.0505 37.7594 79.9087 37.6886 79.8555 37.5466V37.5468Z" fill="#F3F3F3"/>
<path d="M79.8375 37.5645C79.7844 37.4227 79.8552 37.2631 80.0149 37.2101L81.5745 36.696C81.7163 36.6429 81.8758 36.7315 81.929 36.8734C81.9821 37.015 81.9113 37.1746 81.7516 37.2278L80.192 37.7419C80.0503 37.7772 79.8907 37.7063 79.8375 37.5645ZM81.8935 36.8912C81.8581 36.767 81.7163 36.696 81.5922 36.7315L80.0325 37.2456C79.9085 37.2809 79.8552 37.4227 79.8907 37.5469C79.9262 37.6709 80.068 37.7418 80.192 37.7063L81.7518 37.1923C81.8758 37.1393 81.929 37.015 81.8935 36.891V36.8912Z" fill="white"/>
<path d="M78.2611 39.6559C78.2256 39.5141 78.3142 39.3723 78.456 39.3545L82.0895 38.6456C82.2311 38.6101 82.3554 38.7164 82.3907 38.8582C82.4262 38.9999 82.3376 39.1417 82.1958 39.1595L78.5623 39.8684C78.4205 39.8862 78.2787 39.7976 78.2609 39.6559H78.2611Z" fill="#F3F3F3"/>
<path d="M78.2248 39.6557C78.1893 39.4961 78.2956 39.3543 78.4374 39.3188L82.0709 38.6099C82.2127 38.5744 82.3545 38.6809 82.3898 38.8404C82.4253 38.9997 82.319 39.1415 82.1772 39.177L78.5437 39.886C78.4021 39.9215 78.2601 39.8152 78.2248 39.6555V39.6557ZM82.3545 38.858C82.3367 38.7339 82.2127 38.6454 82.0887 38.6631L78.4551 39.3721C78.3311 39.3898 78.2425 39.5314 78.2778 39.6557C78.2956 39.7797 78.4196 39.8682 78.5439 39.8505L82.1772 39.1415C82.3013 39.106 82.3898 38.982 82.3545 38.858Z" fill="white"/>
<path d="M80.5296 41.0208C80.5119 40.879 80.6004 40.755 80.7422 40.7372L82.3727 40.5422C82.5145 40.5246 82.6387 40.6309 82.6563 40.7727C82.674 40.9145 82.5855 41.0385 82.4437 41.0563L80.813 41.2511C80.689 41.2689 80.5472 41.1626 80.5294 41.0208H80.5296Z" fill="#F3F3F3"/>
<path d="M80.5115 41.0207C80.4937 40.8612 80.6 40.7194 80.7418 40.7017L82.3723 40.5068C82.5141 40.4891 82.6559 40.5954 82.6737 40.7549C82.6914 40.9144 82.5851 41.0562 82.4433 41.074L80.8126 41.2688C80.671 41.2866 80.529 41.1803 80.5115 41.0207ZM82.6559 40.7727C82.6383 40.6486 82.5143 40.5421 82.3901 40.5599L80.7596 40.7549C80.6355 40.7727 80.5468 40.8967 80.5645 41.0207C80.5823 41.1448 80.7063 41.2513 80.8304 41.2335L82.4611 41.0385C82.5851 41.0207 82.6736 40.8967 82.6561 40.7727H82.6559Z" fill="white"/>
<path d="M78.5439 42.74C78.5439 42.5982 78.6501 42.4741 78.792 42.4741H82.4964C82.6382 42.4741 82.7445 42.5982 82.7445 42.74C82.7445 42.8817 82.6382 43.0058 82.4964 43.0058H78.792C78.6502 43.0058 78.5439 42.8817 78.5439 42.74Z" fill="#F3F3F3"/>
<path d="M78.5262 42.7399C78.5262 42.5803 78.6503 42.4563 78.7921 42.4563H82.4964C82.6382 42.4563 82.7623 42.5803 82.7623 42.7399C82.7623 42.8994 82.6382 43.0235 82.4964 43.0235H78.7921C78.6503 43.0235 78.5262 42.8994 78.5262 42.7399ZM82.7268 42.7576C82.7268 42.6336 82.6205 42.5095 82.4962 42.5095H78.7923C78.6682 42.5095 78.5617 42.6157 78.5617 42.7576C78.5617 42.8817 78.6682 43.0057 78.7923 43.0057H82.4966C82.6206 42.988 82.7269 42.8817 82.7269 42.7576H82.7268Z" fill="white"/>
<path d="M80.5115 44.5301C80.5291 44.3883 80.6356 44.282 80.7774 44.282L82.4258 44.406C82.5674 44.4238 82.6737 44.5478 82.656 44.6896C82.6384 44.8314 82.5319 44.9377 82.3901 44.9377L80.7419 44.8137C80.6178 44.7959 80.5114 44.6719 80.5114 44.5301H80.5115Z" fill="#F3F3F3"/>
<path d="M80.4937 44.53C80.5114 44.3705 80.6354 44.2642 80.7772 44.2642L82.4257 44.3882C82.5673 44.406 82.6913 44.53 82.6736 44.6895C82.656 44.8491 82.5318 44.9554 82.39 44.9554L80.7417 44.8313C80.6 44.8136 80.4937 44.6718 80.4937 44.53ZM82.656 44.6895C82.6736 44.5655 82.5673 44.4414 82.4432 44.4414L80.7948 44.3174C80.6709 44.3174 80.5645 44.406 80.5467 44.5479C80.5291 44.6718 80.6354 44.7958 80.7595 44.7958L82.4079 44.9199C82.5318 44.9199 82.6383 44.8138 82.656 44.6895Z" fill="white"/>
<path d="M78.2254 45.8238C78.2609 45.682 78.3849 45.5933 78.5267 45.6112L82.1601 46.3379C82.3019 46.3732 82.3906 46.4972 82.3551 46.639C82.3196 46.7808 82.1956 46.8696 82.0538 46.8518L78.4203 46.1251C78.2962 46.1074 78.2077 45.9656 78.2254 45.8238Z" fill="#F3F3F3"/>
<path d="M78.2077 45.824C78.2432 45.6645 78.385 45.5759 78.5268 45.5935L82.1601 46.3204C82.3019 46.3557 82.4082 46.4975 82.3727 46.657C82.3374 46.8166 82.1956 46.9053 82.0538 46.8876L78.4203 46.1609C78.2785 46.1254 78.19 45.9836 78.2077 45.8242V45.824ZM82.3374 46.657C82.3552 46.533 82.2844 46.409 82.1601 46.3735L78.5266 45.6467C78.4027 45.6292 78.2785 45.7 78.243 45.8418C78.2254 45.9658 78.2962 46.0899 78.4205 46.1254L82.0538 46.8521C82.1956 46.8698 82.3019 46.7811 82.3374 46.657Z" fill="white"/>
<path d="M79.8204 47.951C79.8286 47.9173 79.8433 47.8855 79.8637 47.8574C79.8841 47.8294 79.9099 47.8056 79.9395 47.7875C79.9691 47.7694 80.002 47.7574 80.0363 47.752C80.0706 47.7466 80.1056 47.748 80.1393 47.7562L81.7345 48.1991C81.8763 48.2346 81.9471 48.3766 81.9118 48.5182C81.9037 48.552 81.889 48.5838 81.8686 48.6119C81.8481 48.64 81.8224 48.6638 81.7927 48.6819C81.7631 48.7 81.7302 48.7121 81.6959 48.7175C81.6615 48.7228 81.6265 48.7214 81.5927 48.7132L79.9975 48.2701C79.8558 48.2346 79.7849 48.0928 79.8203 47.951H79.8204Z" fill="#F3F3F3"/>
<path d="M79.803 47.9508C79.8385 47.809 79.998 47.7027 80.1398 47.7559L81.735 48.1988C81.8768 48.2343 81.9656 48.3939 81.9301 48.5357C81.8946 48.6775 81.735 48.7838 81.5932 48.7307L79.998 48.2876C79.8562 48.2521 79.7675 48.1103 79.8032 47.9509L79.803 47.9508ZM81.8768 48.5357C81.9123 48.4116 81.8413 48.2698 81.7173 48.2343L80.1221 47.7912C79.998 47.7557 79.874 47.8267 79.8385 47.9685C79.8032 48.0925 79.874 48.2343 79.998 48.2698L81.5932 48.713C81.7173 48.7307 81.8413 48.6599 81.8768 48.5357Z" fill="white"/>
<path d="M77.3209 48.8015C77.374 48.6597 77.5337 48.6064 77.6576 48.6597L81.0785 50.0776C81.2025 50.1306 81.2733 50.2904 81.2203 50.4142C81.167 50.5562 81.0075 50.6093 80.8835 50.5562L77.4627 49.1383C77.3209 49.0852 77.2677 48.9255 77.3209 48.8016V48.8015Z" fill="#F3F3F3"/>
<path d="M77.304 48.7837C77.3299 48.7156 77.3818 48.6606 77.4483 48.6307C77.5148 48.6008 77.5904 48.5985 77.6586 48.6242L81.0793 50.0421C81.2211 50.0954 81.2742 50.2549 81.2211 50.4144C81.1952 50.4825 81.1433 50.5376 81.0768 50.5675C81.0103 50.5974 80.9347 50.5997 80.8665 50.574L77.4458 49.1561C77.304 49.0851 77.2509 48.9255 77.304 48.7837ZM81.1856 50.3967C81.2387 50.2726 81.1856 50.1309 81.0616 50.0776L77.6408 48.6597C77.5168 48.6066 77.3927 48.6774 77.3395 48.8015C77.2864 48.9255 77.3395 49.0673 77.4635 49.1206L80.8843 50.5385C81.0083 50.574 81.1501 50.5207 81.1856 50.3967Z" fill="white"/>
<path d="M78.473 51.1944C78.5439 51.0704 78.6856 51.0171 78.8096 51.0704L80.2808 51.8148C80.4048 51.8679 80.458 52.0274 80.3872 52.1692C80.3163 52.2933 80.1745 52.3467 80.0504 52.2933L78.5794 51.549C78.4552 51.478 78.402 51.3185 78.473 51.1944Z" fill="#F3F3F3"/>
<path d="M78.4555 51.1768C78.5265 51.035 78.6861 50.9819 78.8279 51.0527L80.2988 51.7972C80.4406 51.8682 80.4939 52.0277 80.4229 52.1693C80.3521 52.3111 80.1924 52.3643 80.0507 52.2933L78.5798 51.5491C78.4378 51.496 78.3847 51.3186 78.4555 51.1768ZM80.3698 52.1516C80.4229 52.0275 80.3874 51.8857 80.2633 51.8327L78.7924 51.0882C78.6859 51.0352 78.5443 51.0882 78.4733 51.1945C78.4202 51.3186 78.4555 51.4603 78.5796 51.5136L80.0506 52.258C80.1748 52.3111 80.3166 52.2758 80.3698 52.1516Z" fill="white"/>
<path d="M75.8672 51.531C75.9559 51.407 76.0977 51.3715 76.2217 51.4601L79.3057 53.5161C79.4297 53.5869 79.4474 53.7467 79.3766 53.8705C79.2879 53.9947 79.1461 54.0301 79.0221 53.9415L75.9381 51.8854C75.8141 51.7969 75.7786 51.6373 75.8672 51.531Z" fill="#F3F3F3"/>
<path d="M75.85 51.5132C75.9387 51.3891 76.116 51.3536 76.2401 51.4246L79.324 53.4805C79.448 53.5691 79.4835 53.7286 79.3948 53.8704C79.3063 53.9946 79.129 54.0299 79.0051 53.9591L75.921 51.9031C75.7792 51.8145 75.7615 51.6372 75.85 51.5132ZM79.3417 53.8526C79.4126 53.7465 79.3948 53.5868 79.2887 53.516L76.2046 51.4599C76.0983 51.3891 75.9565 51.4246 75.8855 51.5309C75.8147 51.6372 75.8324 51.7968 75.9386 51.8676L79.0227 53.9236C79.129 53.9946 79.2708 53.9591 79.3417 53.8528V53.8526Z" fill="white"/>
<path d="M76.5234 54.1012C76.612 53.9947 76.7715 53.9594 76.8778 54.0482L78.1717 55.0583C78.278 55.1468 78.2958 55.3064 78.2072 55.4128C78.1187 55.519 77.9591 55.5546 77.8526 55.4659L76.5588 54.4556C76.4526 54.3671 76.4347 54.2075 76.5234 54.1012Z" fill="#F3F3F3"/>
<path d="M76.5062 54.0831C76.5948 53.9591 76.772 53.9413 76.8961 54.0301L78.19 55.0402C78.314 55.1287 78.3317 55.306 78.243 55.4301C78.1545 55.5543 77.9772 55.5719 77.8533 55.4833L76.5593 54.473C76.4352 54.3845 76.4176 54.2072 76.5062 54.0831ZM78.2077 55.4125C78.2963 55.306 78.2785 55.1642 78.1722 55.0757L76.8783 54.0654C76.772 53.9946 76.6302 54.0123 76.5417 54.1184C76.453 54.2249 76.4707 54.3667 76.577 54.4553L77.8709 55.4656C77.9772 55.5366 78.119 55.5186 78.2075 55.4125H78.2077Z" fill="white"/>
<path d="M73.8826 53.9237C73.9891 53.8174 74.1486 53.8174 74.2371 53.9237L76.8602 56.529C76.9667 56.6355 76.9489 56.7951 76.8602 56.8836C76.7541 56.9899 76.5944 56.9899 76.5058 56.8836L73.8826 54.2783C73.794 54.1896 73.794 54.0123 73.8826 53.9237Z" fill="#F3F3F3"/>
<path d="M73.8826 53.906C73.9346 53.8549 74.0046 53.8262 74.0776 53.8262C74.1506 53.8262 74.2206 53.8549 74.2727 53.906L76.8957 56.5113C76.9469 56.5634 76.9756 56.6334 76.9756 56.7064C76.9756 56.7793 76.9469 56.8494 76.8957 56.9014C76.8437 56.9525 76.7737 56.9812 76.7008 56.9812C76.6278 56.9812 76.5578 56.9525 76.5058 56.9014L73.8826 54.2961C73.7585 54.1896 73.7585 54.0125 73.8826 53.906ZM76.8602 56.8659C76.9489 56.7774 76.9489 56.6178 76.8602 56.5293L74.2372 53.9238C74.1486 53.8352 73.9891 53.8352 73.9005 53.9238C73.8118 54.0123 73.8118 54.1719 73.9005 54.2604L76.5236 56.8659C76.6121 56.9724 76.7541 56.9724 76.8602 56.8659Z" fill="white"/>
<path d="M74.0421 56.5643C74.1486 56.4758 74.308 56.4758 74.3967 56.5821L75.478 57.8227C75.5663 57.9292 75.5488 58.0887 75.4423 58.1773C75.3362 58.2658 75.1765 58.2658 75.0879 58.1596L74.0066 56.9189C73.9181 56.8304 73.9358 56.6708 74.0421 56.5643Z" fill="#F3F3F3"/>
<path d="M74.0251 56.5645C74.1491 56.4584 74.3087 56.4759 74.4148 56.5822L75.4961 57.8229C75.6024 57.9294 75.5846 58.1065 75.4606 58.2129C75.3365 58.3192 75.177 58.3015 75.0707 58.1952L73.9894 56.9546C73.9009 56.8305 73.9009 56.6532 74.0249 56.5645H74.0251ZM75.443 58.1774C75.5491 58.0889 75.5491 57.9469 75.4783 57.8408L74.397 56.6C74.3085 56.5114 74.1667 56.4937 74.0604 56.5822C73.9541 56.671 73.9541 56.8128 74.0249 56.9189L75.1062 58.1597C75.1947 58.266 75.3367 58.266 75.4428 58.1774H75.443Z" fill="white"/>
<path d="M71.4896 55.891C71.6137 55.8024 71.7732 55.8379 71.8442 55.9619L73.8999 59.0281C73.9709 59.1522 73.9354 59.3117 73.8291 59.3827C73.7051 59.4713 73.5455 59.4358 73.4745 59.3117L71.4187 56.2453C71.3477 56.1215 71.3832 55.9618 71.4895 55.891H71.4896Z" fill="#F3F3F3"/>
<path d="M71.4902 55.8734C71.6142 55.7848 71.7915 55.8203 71.8801 55.9444L73.9362 59.0107C74.0247 59.1346 73.9892 59.3119 73.8476 59.4004C73.7234 59.4892 73.5463 59.4537 73.4575 59.3296L71.4017 56.2633C71.3131 56.1217 71.3486 55.9621 71.4902 55.8736V55.8734ZM73.8299 59.3651C73.9362 59.2941 73.9717 59.1523 73.9007 59.046L71.8448 55.9797C71.7738 55.8736 71.632 55.8556 71.5081 55.9266C71.4017 55.9974 71.3662 56.1392 71.4371 56.2457L73.493 59.3119C73.564 59.4004 73.7236 59.4359 73.8297 59.3649L73.8299 59.3651Z" fill="white"/>
<path d="M71.1176 58.5141C71.2416 58.4433 71.4012 58.4788 71.472 58.6028L72.2874 60.0385C72.3582 60.1625 72.305 60.3221 72.1809 60.3929C72.0569 60.4639 71.8973 60.4284 71.8265 60.3043L71.0113 58.8687C70.958 58.7446 70.9935 58.5851 71.1174 58.5143L71.1176 58.5141Z" fill="#F3F3F3"/>
<path d="M71.1176 58.4964C71.2594 58.4254 71.419 58.4609 71.4898 58.5849L72.305 60.0206C72.376 60.1447 72.3405 60.3219 72.1989 60.3927C72.0569 60.4637 71.8974 60.4282 71.8266 60.3042L71.0113 58.8685C70.9403 58.7445 70.9758 58.5849 71.1175 58.4964H71.1176ZM72.181 60.3752C72.2875 60.3042 72.3405 60.1624 72.2697 60.0561L71.4545 58.6204C71.3835 58.5141 71.2417 58.4786 71.1354 58.5317C71.0289 58.6027 70.9758 58.7445 71.0466 58.8508L71.8621 60.2864C71.9151 60.3927 72.0747 60.446 72.181 60.375V60.3752Z" fill="white"/>
<path d="M68.7603 57.3445C68.9021 57.2914 69.0439 57.3445 69.0972 57.4685L70.5328 60.8893C70.5859 61.0133 70.5151 61.1728 70.391 61.2259C70.267 61.2791 70.1075 61.2259 70.0544 61.1019L68.6187 57.6813C68.5655 57.5571 68.6363 57.3977 68.7603 57.3445Z" fill="#F3F3F3"/>
<path d="M68.7602 57.3266C68.902 57.2735 69.0615 57.3266 69.1325 57.4684L70.5682 60.8891C70.5938 60.9573 70.5915 61.0328 70.5616 61.0993C70.5317 61.1657 70.4767 61.2176 70.4086 61.2435C70.2668 61.2967 70.1073 61.2435 70.0365 61.1017L68.6008 57.6811C68.5476 57.5569 68.6186 57.3976 68.7602 57.3266ZM70.3731 61.2082C70.4972 61.155 70.5504 61.0132 70.4972 60.9069L69.0615 57.4861C69.0084 57.3621 68.8666 57.3088 68.7426 57.3621C68.6186 57.4151 68.5651 57.5569 68.6186 57.6634L70.054 61.0842C70.125 61.2082 70.2491 61.2613 70.3731 61.2082Z" fill="white"/>
<path d="M67.8916 59.8611C68.0335 59.8081 68.1751 59.8789 68.2284 60.0206L68.7425 61.5804C68.7956 61.7044 68.707 61.8639 68.583 61.8994C68.4412 61.9525 68.2994 61.8817 68.2463 61.7399L67.7322 60.1802C67.6791 60.0561 67.75 59.9144 67.8917 59.8611H67.8916Z" fill="#F3F3F3"/>
<path d="M67.8743 59.8436C67.9425 59.8179 68.018 59.8203 68.0845 59.8502C68.1509 59.8801 68.2028 59.9351 68.2287 60.0032L68.7428 61.5629C68.7959 61.7047 68.7073 61.8642 68.5654 61.9174C68.4972 61.9431 68.4216 61.9408 68.3552 61.9109C68.2888 61.881 68.2369 61.826 68.211 61.7579L67.697 60.1982C67.6615 60.0564 67.7325 59.8969 67.8743 59.8436ZM68.5655 61.8818C68.6896 61.8465 68.7604 61.7047 68.7251 61.5806L68.211 60.0209C68.1757 59.8969 68.0339 59.8436 67.9098 59.8791C67.7856 59.9146 67.7148 60.0564 67.7503 60.1804L68.2642 61.7402C68.2732 61.7702 68.2885 61.7981 68.309 61.8219C68.3295 61.8457 68.3548 61.8649 68.3832 61.8783C68.4117 61.8916 68.4426 61.8989 68.474 61.8995C68.5054 61.9002 68.5366 61.8942 68.5655 61.882V61.8818Z" fill="white"/>
<path d="M65.8011 58.2483C65.9427 58.2128 66.0847 58.3014 66.1023 58.4432L66.8467 62.0767C66.8822 62.2183 66.7757 62.3425 66.6339 62.3778C66.4923 62.4133 66.3503 62.3248 66.3328 62.183L65.5881 58.5495C65.5706 58.4254 65.6591 58.2836 65.8009 58.2481L65.8011 58.2483Z" fill="#F3F3F3"/>
<path d="M65.8014 58.2305C65.9607 58.1951 66.1025 58.3014 66.138 58.4432L66.8824 62.0768C66.9179 62.2184 66.8115 62.3779 66.6697 62.3957C66.5101 62.4312 66.3683 62.3249 66.333 62.1831L65.5884 58.5495C65.5531 58.4077 65.6418 58.266 65.8012 58.2306L65.8014 58.2305ZM66.6342 62.3602C66.7584 62.3426 66.847 62.2184 66.8292 62.0766L66.0848 58.4432C66.0672 58.3192 65.9254 58.2306 65.8012 58.266C65.6771 58.2837 65.5886 58.4077 65.6063 58.5495L66.3508 62.1831C66.3861 62.3071 66.5101 62.3779 66.6344 62.3604L66.6342 62.3602Z" fill="white"/>
<path d="M64.4535 60.5525C64.5953 60.5348 64.7193 60.6235 64.7548 60.7653L64.9674 62.3958C64.9851 62.5376 64.8788 62.6617 64.7369 62.6794C64.5953 62.6972 64.4712 62.6086 64.4357 62.4668L64.2231 60.8361C64.2054 60.6943 64.3117 60.5703 64.4535 60.5525Z" fill="#F3F3F3"/>
<path d="M64.4535 60.5349C64.6131 60.5173 64.7548 60.6236 64.7726 60.7654L64.9852 62.3959C65.0029 62.5377 64.8966 62.6795 64.7371 62.6972C64.5776 62.715 64.4358 62.6087 64.418 62.4667L64.2054 60.8362C64.1877 60.6944 64.294 60.5526 64.4535 60.5349ZM64.7194 62.6617C64.8434 62.6442 64.9499 62.5199 64.9321 62.3959L64.7194 60.7654C64.7016 60.6413 64.5776 60.5526 64.4535 60.5704C64.3295 60.5881 64.223 60.7121 64.2407 60.8362L64.4535 62.4669C64.4713 62.5909 64.5953 62.6795 64.7194 62.6617Z" fill="white"/>
<path d="M62.6278 58.5674C62.7696 58.5674 62.8936 58.6739 62.8936 58.8157V62.5198C62.8936 62.6616 62.7696 62.7681 62.6278 62.7681C62.486 62.7681 62.3619 62.6616 62.3619 62.5198V58.8157C62.3797 58.6739 62.486 58.5674 62.6278 58.5674Z" fill="#F3F3F3"/>
<path d="M62.6278 58.5498C62.7874 58.5498 62.9114 58.6739 62.9114 58.8156V62.52C62.9114 62.6618 62.7874 62.7858 62.6278 62.7858C62.4683 62.7858 62.3442 62.6618 62.3442 62.52V58.8158C62.3442 58.674 62.486 58.5498 62.6278 58.5498ZM62.6278 62.7505C62.7519 62.7505 62.8759 62.6442 62.8759 62.52V58.8158C62.8759 58.6916 62.7696 58.5853 62.6278 58.5853C62.5038 58.5853 62.3797 58.6916 62.3797 58.8158V62.52C62.3973 62.6442 62.5038 62.7505 62.6278 62.7505Z" fill="white"/>
<path d="M60.8554 60.5527C60.9972 60.5705 61.1035 60.6768 61.1035 60.8186L60.9794 62.467C60.9619 62.6088 60.8376 62.7151 60.6958 62.6975C60.5541 62.6796 60.4478 62.5733 60.4478 62.4315L60.5718 60.7831C60.5895 60.6415 60.7136 60.535 60.8554 60.5527Z" fill="#F3F3F3"/>
<path d="M60.8554 60.5349C61.015 60.5526 61.1213 60.6766 61.1213 60.8184L60.9972 62.4669C60.9795 62.6087 60.8554 62.7327 60.6959 62.715C60.5365 62.6972 60.4301 62.5732 60.4301 62.4314L60.5541 60.7829C60.5718 60.6236 60.6959 60.5173 60.8554 60.5349ZM60.6959 62.6795C60.8199 62.6795 60.9442 62.5909 60.9442 62.4669L61.0682 60.8184C61.0682 60.6944 60.9795 60.5881 60.8377 60.5703C60.7136 60.5703 60.5896 60.6589 60.5896 60.7831L60.4655 62.4314C60.4655 62.5554 60.5718 62.6619 60.6961 62.6795H60.6959Z" fill="white"/>
<path d="M59.5266 58.2484C59.6684 58.2837 59.757 58.4077 59.7392 58.5495L59.0125 62.183C58.977 62.3248 58.853 62.4136 58.7112 62.3779C58.5694 62.3426 58.4808 62.2185 58.4986 62.0766L59.2253 58.4432C59.243 58.3192 59.3848 58.2306 59.5266 58.2484Z" fill="#F3F3F3"/>
<path d="M59.5267 58.2306C59.6861 58.2661 59.7748 58.4081 59.7571 58.5497L59.0303 62.1832C58.9949 62.325 58.8531 62.4313 58.6937 62.3958C58.5342 62.3603 58.4454 62.2185 58.4632 62.0768L59.1899 58.4434C59.2254 58.3016 59.3672 58.2129 59.5265 58.2308L59.5267 58.2306ZM58.6937 62.3603C58.8177 62.3781 58.9418 62.3073 58.9773 62.1832L59.7038 58.5497C59.7216 58.4257 59.6508 58.3016 59.509 58.2661C59.3849 58.2486 59.2609 58.3194 59.2254 58.4436L58.4987 62.0768C58.4809 62.2185 58.5695 62.325 58.6937 62.3603Z" fill="white"/>
<path d="M57.3994 59.8437C57.5414 59.8792 57.63 60.021 57.5945 60.1628L57.1514 61.758C57.116 61.8998 56.9743 61.9706 56.8325 61.9353C56.7987 61.9272 56.7669 61.9125 56.7388 61.892C56.7107 61.8716 56.6869 61.8458 56.6688 61.8162C56.6507 61.7865 56.6386 61.7536 56.6332 61.7193C56.6278 61.685 56.6293 61.6499 56.6374 61.6162L57.0806 60.021C57.116 59.8792 57.2578 59.8084 57.3996 59.8437H57.3994Z" fill="#F3F3F3"/>
<path d="M57.3989 59.8259C57.5408 59.8612 57.6471 60.0207 57.5939 60.1625L57.1508 61.7577C57.1155 61.8995 56.9559 61.9883 56.8141 61.9526C56.6724 61.9173 56.5661 61.7577 56.6191 61.6159L57.0622 60.0207C57.0977 59.8789 57.2395 59.7902 57.3989 59.8257V59.8259ZM56.8141 61.8995C56.9382 61.935 57.08 61.864 57.1155 61.74L57.5584 60.1448C57.5939 60.0207 57.5231 59.8967 57.3813 59.8612C57.2573 59.8257 57.1155 59.8967 57.08 60.0207L56.6369 61.6159C56.6191 61.74 56.6899 61.864 56.8141 61.8995Z" fill="white"/>
<path d="M56.5311 57.3444C56.6728 57.3974 56.7259 57.557 56.6728 57.681L55.2549 61.1018C55.2019 61.226 55.0421 61.2968 54.9183 61.226C54.7941 61.155 54.7231 61.0132 54.7763 60.8892L56.1942 57.4684C56.2473 57.3444 56.407 57.2734 56.5309 57.3444H56.5311Z" fill="#F3F3F3"/>
<path d="M56.5308 57.3271C56.5989 57.353 56.654 57.4049 56.6839 57.4714C56.7138 57.5379 56.7161 57.6135 56.6904 57.6817L55.2725 61.1022C55.2192 61.244 55.0597 61.2973 54.9001 61.244C54.8321 61.2181 54.7771 61.1662 54.7472 61.0998C54.7173 61.0334 54.7149 60.9578 54.7406 60.8896L56.1585 57.4689C56.2295 57.3271 56.389 57.2563 56.5308 57.3271ZM54.9179 61.2087C55.0419 61.2618 55.1837 61.2087 55.237 61.0847L56.6549 57.6639C56.7079 57.5399 56.6371 57.4156 56.5131 57.3626C56.389 57.3095 56.2472 57.3626 56.194 57.4866L54.7761 60.9074C54.7406 61.0137 54.7938 61.1555 54.9179 61.2087Z" fill="white"/>
<path d="M54.1383 58.4786C54.2624 58.5494 54.3154 58.6912 54.2624 58.8152L53.5179 60.2864C53.4469 60.4104 53.3051 60.4637 53.1633 60.3927C53.0393 60.3219 52.9862 60.1801 53.0393 60.056L53.7839 58.5851C53.8547 58.4608 53.9965 58.4076 54.1383 58.4786Z" fill="#F3F3F3"/>
<path d="M54.1383 58.4614C54.28 58.5322 54.3331 58.6919 54.2623 58.8335L53.5178 60.3047C53.4469 60.4465 53.2873 60.4997 53.1457 60.4287C53.0039 60.3579 52.9507 60.1982 53.0217 60.0566L53.7659 58.5856C53.8369 58.4437 53.9965 58.3906 54.1383 58.4614ZM53.1635 60.3934C53.2875 60.4465 53.4293 60.411 53.4824 60.2869L54.2268 58.816C54.2799 58.7095 54.2268 58.5677 54.1205 58.4969C53.9965 58.4438 53.8547 58.4791 53.8014 58.6032L53.057 60.0742C53.0039 60.1807 53.057 60.3224 53.1635 60.3932V60.3934Z" fill="white"/>
<path d="M53.7831 55.8558C53.9072 55.9443 53.9427 56.1038 53.8541 56.2101L51.798 59.2765C51.7272 59.4004 51.5675 59.4181 51.4436 59.3473C51.3196 59.2586 51.2841 59.0992 51.3726 58.9927L53.4287 55.9264C53.4995 55.8025 53.6591 55.767 53.7831 55.8556V55.8558Z" fill="#F3F3F3"/>
<path d="M53.7843 55.838C53.9083 55.9267 53.9438 56.104 53.8728 56.228L51.8169 59.2944C51.7284 59.4183 51.5688 59.4538 51.427 59.3652C51.303 59.2765 51.2675 59.0994 51.3383 58.9752L53.3944 55.909C53.4829 55.7849 53.6602 55.7494 53.7843 55.838ZM51.4448 59.3297C51.5509 59.4005 51.7106 59.3828 51.7814 59.2767L53.8375 56.2103C53.9083 56.104 53.873 55.9622 53.7665 55.8912C53.6602 55.8204 53.5007 55.8382 53.4299 55.9443L51.3738 58.9929C51.303 59.0994 51.3383 59.2587 51.4448 59.3295V59.3297Z" fill="white"/>
<path d="M51.1963 56.5116C51.3028 56.6002 51.3381 56.7597 51.2496 56.866L50.2215 58.1599C50.133 58.2662 49.9735 58.2839 49.8672 58.1954C49.7609 58.1068 49.7254 57.9473 49.8141 57.8408L50.842 56.5469C50.9305 56.4408 51.09 56.4229 51.1963 56.5116Z" fill="#F3F3F3"/>
<path d="M51.2139 56.4934C51.338 56.582 51.3557 56.7593 51.267 56.8833L50.2391 58.1772C50.1506 58.3012 49.9733 58.319 49.8493 58.2127C49.7252 58.1239 49.7075 57.9468 49.7962 57.8226L50.824 56.5289C50.9126 56.4047 51.0899 56.3871 51.2139 56.4934ZM49.8847 58.1772C49.9909 58.2657 50.1328 58.2482 50.2214 58.1417L51.2494 56.8478C51.3204 56.7417 51.3025 56.5997 51.1964 56.5112C51.0899 56.4224 50.9481 56.4402 50.8595 56.5467L49.8315 57.8404C49.7607 57.9468 49.7784 58.1062 49.8846 58.1772H49.8847Z" fill="white"/>
<path d="M51.3736 53.8531C51.4799 53.9592 51.4799 54.1189 51.3736 54.2074L48.7505 56.8128C48.6441 56.9192 48.4847 56.9015 48.396 56.8128C48.3074 56.7242 48.2897 56.5469 48.396 56.4584L51.0013 53.8531C51.1078 53.7466 51.2673 53.7466 51.3736 53.8531Z" fill="#F3F3F3"/>
<path d="M51.3908 53.8351C51.4418 53.8871 51.4704 53.9571 51.4704 54.03C51.4704 54.1029 51.4418 54.1728 51.3908 54.2248L48.7675 56.8305C48.7155 56.8816 48.6456 56.9102 48.5727 56.9102C48.4998 56.9102 48.4298 56.8816 48.3778 56.8305C48.3267 56.7785 48.298 56.7085 48.298 56.6355C48.298 56.5625 48.3267 56.4925 48.3778 56.4404L51.0009 53.8351C51.0529 53.784 51.1229 53.7554 51.1958 53.7554C51.2688 53.7554 51.3388 53.784 51.3908 53.8351ZM48.3954 56.8126C48.4839 56.9011 48.6435 56.9011 48.732 56.8126L51.3553 54.2071C51.444 54.1185 51.444 53.959 51.3553 53.8704C51.2667 53.7817 51.1072 53.7817 51.0186 53.8704L48.3954 56.4758C48.3068 56.5643 48.3068 56.7063 48.3954 56.8124V56.8126Z" fill="white"/>
<path d="M48.7151 53.9947C48.8036 54.1008 48.8036 54.2605 48.6973 54.349L47.4389 55.4126C47.3326 55.5011 47.1731 55.4834 47.0844 55.3771C46.9958 55.2706 46.9958 55.1112 47.1021 55.0225L48.3605 53.9592C48.467 53.8704 48.6263 53.8882 48.7151 53.9947Z" fill="#F3F3F3"/>
<path d="M48.7328 53.9764C48.8391 54.1007 48.8214 54.2778 48.7151 54.3665L47.4567 55.4298C47.3504 55.5363 47.1731 55.5186 47.0668 55.3945C46.9603 55.2703 46.9781 55.0932 47.0844 55.0045L48.3429 53.9411C48.449 53.8348 48.6265 53.8526 48.7326 53.9766L48.7328 53.9764ZM47.1021 55.3768C47.1908 55.4831 47.3326 55.4831 47.4387 55.4123L48.6973 54.3487C48.7859 54.2602 48.8036 54.1182 48.7151 54.0121C48.6263 53.9056 48.4845 53.9056 48.3784 53.9766L47.1199 55.04C47.0136 55.1285 47.0136 55.2705 47.1021 55.3766V55.3768Z" fill="white"/>
<path d="M49.4231 51.4424C49.5117 51.5666 49.4762 51.726 49.3521 51.797L46.2682 53.853C46.1441 53.9238 45.9846 53.8883 45.9138 53.782C45.8251 53.658 45.8606 53.4985 45.9846 53.4275L49.0687 51.3716C49.1752 51.3008 49.3346 51.3361 49.4233 51.4424H49.4231Z" fill="#F3F3F3"/>
<path d="M49.4409 51.4422C49.5294 51.5665 49.4939 51.7436 49.3699 51.8323L46.2859 53.8882C46.1619 53.9769 45.9846 53.9412 45.8961 53.7996C45.8073 53.6756 45.843 53.4983 45.9669 53.4098L49.051 51.3537C49.175 51.2651 49.3521 51.3006 49.4407 51.4422H49.4409ZM45.9315 53.7641C46.0024 53.8704 46.1441 53.9059 46.2504 53.8351L49.3344 51.7791C49.4409 51.7083 49.4762 51.5665 49.3876 51.4424C49.3168 51.3359 49.175 51.3006 49.0685 51.3714L45.9846 53.4275C45.8783 53.5161 45.8606 53.6578 45.9315 53.7641Z" fill="white"/>
<path d="M46.7832 51.07C46.8542 51.194 46.8187 51.3536 46.6947 51.4246L45.259 52.2398C45.1349 52.3106 44.9754 52.2576 44.9046 52.1335C44.8336 52.0095 44.8691 51.8499 44.9931 51.7789L46.4288 50.9637C46.5529 50.8927 46.7124 50.9459 46.7834 51.07H46.7832Z" fill="#F3F3F3"/>
<path d="M46.8011 51.0524C46.8719 51.1942 46.8364 51.3537 46.7124 51.4247L45.2767 52.24C45.1527 52.3108 44.9754 52.2577 44.9046 52.1337C44.8336 51.9919 44.8691 51.8324 44.9931 51.7614L46.4288 50.9461C46.5529 50.8751 46.7301 50.9284 46.8009 51.0524H46.8011ZM44.9222 52.1159C44.9931 52.24 45.1349 52.2755 45.2412 52.2045L46.6769 51.3892C46.7832 51.3182 46.8187 51.1764 46.7656 51.0702C46.6947 50.9461 46.5529 50.9106 46.4466 50.9816L45.0109 51.7969C44.9046 51.8499 44.8691 51.9919 44.9223 52.1159H44.9222Z" fill="white"/>
<path d="M47.9707 48.7127C48.0238 48.8545 47.9707 48.9963 47.8289 49.0494L44.4082 50.4673C44.2841 50.5206 44.1246 50.4497 44.0715 50.3255C44.0183 50.1837 44.0715 50.0419 44.2133 49.9889L47.6341 48.571C47.7581 48.5179 47.9177 48.571 47.9707 48.7127Z" fill="#F3F3F3"/>
<path d="M47.9885 48.6951C48.0415 48.8368 47.9885 48.9964 47.8467 49.0672L44.4259 50.4851C44.3578 50.5108 44.2822 50.5084 44.2158 50.4785C44.1493 50.4486 44.0975 50.3936 44.0715 50.3256C44.0183 50.1838 44.0715 50.0242 44.2133 49.9534L47.6341 48.5355C47.7022 48.5098 47.7778 48.5122 47.8442 48.5421C47.9106 48.572 47.9625 48.627 47.9885 48.6951ZM44.1068 50.3078C44.1601 50.4321 44.3019 50.4853 44.4082 50.4496L47.8289 49.0317C47.953 48.9786 48.0062 48.8368 47.953 48.7128C47.8999 48.5888 47.7581 48.5355 47.6516 48.571L44.2309 49.9889C44.1068 50.042 44.0538 50.1838 44.1068 50.308V50.3078Z" fill="white"/>
<path d="M45.471 47.8266C45.524 47.9683 45.4532 48.1101 45.3114 48.1632L43.7517 48.6773C43.6277 48.7304 43.4681 48.6418 43.4326 48.5178C43.3796 48.376 43.4504 48.2342 43.5922 48.1811L45.1519 47.667C45.2759 47.614 45.4177 47.6848 45.471 47.8266Z" fill="#F3F3F3"/>
<path d="M45.4883 47.8091C45.5415 47.9509 45.4707 48.1104 45.3112 48.1636L43.7515 48.6776C43.6097 48.7306 43.4502 48.6421 43.3969 48.5003C43.3439 48.3585 43.4147 48.199 43.5744 48.1459L45.1339 47.6318C45.2757 47.5965 45.4353 47.6673 45.4885 47.8093L45.4883 47.8091ZM43.4326 48.4827C43.4681 48.6068 43.6099 48.6777 43.7339 48.6423L45.2936 48.1281C45.4177 48.0928 45.4709 47.951 45.4354 47.827C45.3999 47.703 45.2581 47.632 45.1341 47.6675L43.5744 48.1816C43.4503 48.2346 43.3971 48.3587 43.4326 48.4827Z" fill="white"/>
<path d="M47.0669 45.7177C47.1022 45.8595 47.0136 46.0013 46.8718 46.019L43.2383 46.728C43.0965 46.7635 42.9725 46.657 42.9372 46.5152C42.9017 46.3734 42.9902 46.2316 43.132 46.2139L46.7655 45.5049C46.9073 45.4873 47.0491 45.5759 47.0667 45.7177H47.0669Z" fill="#F3F3F3"/>
<path d="M47.1012 45.7177C47.1367 45.8772 47.0304 46.019 46.8886 46.0543L43.2551 46.7633C43.1133 46.7988 42.9715 46.6925 42.9362 46.5329C42.9007 46.3734 43.007 46.2316 43.1488 46.1963L46.7823 45.4873C46.9239 45.4518 47.0659 45.5581 47.1012 45.7177ZM42.9715 46.5154C42.9893 46.6392 43.1133 46.728 43.2374 46.7102L46.8709 46.0012C46.9949 45.9835 47.0835 45.8417 47.0482 45.7177C47.0304 45.5936 46.9064 45.5049 46.7822 45.5226L43.1488 46.2316C43.0248 46.2671 42.9362 46.3911 42.9715 46.5152V46.5154Z" fill="white"/>
<path d="M44.798 44.3531C44.8155 44.4947 44.727 44.6189 44.5852 44.6367L42.9547 44.8315C42.8127 44.8493 42.6886 44.743 42.6711 44.601C42.6533 44.4594 42.7419 44.3353 42.8837 44.3174L44.5144 44.1225C44.6384 44.1048 44.7802 44.2111 44.798 44.3531Z" fill="#F3F3F3"/>
<path d="M44.8154 44.353C44.833 44.5123 44.7267 44.6541 44.5849 44.6719L42.9544 44.8669C42.8124 44.8847 42.6708 44.7784 42.6531 44.6188C42.6353 44.4593 42.7416 44.3175 42.8834 44.2997L44.5141 44.1047C44.6557 44.087 44.7977 44.1934 44.8153 44.3528L44.8154 44.353ZM42.6706 44.6011C42.6884 44.7251 42.8126 44.8316 42.9366 44.8137L44.5672 44.6188C44.6912 44.6011 44.7799 44.477 44.7622 44.353C44.7444 44.2288 44.6204 44.1225 44.4964 44.1402L42.8657 44.3352C42.7416 44.353 42.6531 44.477 42.6706 44.6011Z" fill="white"/>
<path d="M46.7824 42.6335C46.7824 42.7755 46.6763 42.8995 46.5343 42.8995H42.8301C42.6883 42.8995 42.582 42.7755 42.582 42.6337C42.582 42.4919 42.6883 42.3677 42.8301 42.3677H46.5345C46.6763 42.3677 46.7827 42.4919 46.7827 42.6337L46.7824 42.6335Z" fill="#F3F3F3"/>
<path d="M46.8002 42.6334C46.8002 42.7932 46.676 42.917 46.5342 42.917H42.83C42.6883 42.917 42.5642 42.793 42.5642 42.6334C42.5642 42.4741 42.6883 42.3499 42.83 42.3499H46.5344C46.6762 42.3499 46.8002 42.4741 46.8002 42.6334ZM42.5995 42.6159C42.5995 42.7399 42.7058 42.864 42.83 42.864H46.5342C46.6582 42.864 46.7647 42.7577 46.7647 42.6159C46.7647 42.4918 46.6582 42.3676 46.5342 42.3676H42.83C42.706 42.3853 42.5997 42.4918 42.5997 42.6159H42.5995Z" fill="white"/>
<path d="M44.8155 40.8434C44.7976 40.9852 44.6913 41.0915 44.5495 41.0915L42.9011 40.9675C42.7595 40.9497 42.6532 40.8257 42.6707 40.6839C42.6885 40.5421 42.795 40.4358 42.9367 40.4358L44.585 40.5598C44.7091 40.5776 44.8155 40.7016 44.8155 40.8434Z" fill="#E2E2E2"/>
<path d="M44.8328 40.8433C44.815 41.0029 44.691 41.1092 44.5492 41.1092L42.9007 40.9851C42.7591 40.9674 42.6351 40.8433 42.6528 40.6838C42.6704 40.5245 42.7946 40.418 42.9364 40.418L44.5847 40.542C44.7265 40.5598 44.8328 40.7016 44.8328 40.8433ZM42.6704 40.6838C42.6528 40.8079 42.7591 40.9321 42.8832 40.9321L44.5316 41.0561C44.6555 41.0561 44.762 40.9674 44.7797 40.8256C44.7974 40.7016 44.691 40.5775 44.5669 40.5775L42.9185 40.4535C42.7946 40.4535 42.6881 40.5598 42.6704 40.684V40.6838Z" fill="white"/>
<path d="M47.1015 39.5496C47.066 39.6914 46.942 39.7801 46.8002 39.7624L43.1668 39.0179C43.0251 38.9824 42.9363 38.8584 42.9718 38.7166C43.0073 38.5748 43.1314 38.4861 43.2731 38.504L46.9067 39.2307C47.0307 39.266 47.1193 39.4078 47.1015 39.5496Z" fill="#F3F3F3"/>
<path d="M47.1191 39.5495C47.0836 39.709 46.9418 39.7978 46.8 39.78L43.1666 39.0533C43.0248 39.0178 42.9185 38.876 42.954 38.7167C42.9893 38.5569 43.1311 38.4684 43.2729 38.4861L46.9065 39.2128C47.0483 39.2483 47.1368 39.3901 47.1191 39.5495ZM42.9893 38.7165C42.9716 38.8405 43.0424 38.9646 43.1666 39.0001L46.8002 39.7268C46.9242 39.7445 47.0483 39.6737 47.0837 39.5317C47.1013 39.4077 47.0305 39.2836 46.9063 39.2481L43.2731 38.5216C43.1313 38.5039 43.025 38.5924 42.9895 38.7165H42.9893Z" fill="white"/>
<path d="M45.5067 37.4232C45.4985 37.457 45.4838 37.4888 45.4634 37.5168C45.4429 37.5449 45.4172 37.5687 45.3875 37.5868C45.3579 37.6049 45.325 37.6169 45.2907 37.6223C45.2564 37.6277 45.2213 37.6262 45.1876 37.6181L43.5924 37.1749C43.4506 37.1394 43.3798 36.9976 43.4151 36.8558C43.4232 36.8221 43.438 36.7903 43.4584 36.7622C43.4788 36.7341 43.5046 36.7104 43.5343 36.6923C43.5639 36.6742 43.5968 36.6621 43.6311 36.6567C43.6654 36.6514 43.7004 36.6528 43.7342 36.661L45.3294 37.1041C45.4712 37.1394 45.542 37.2812 45.5067 37.423V37.4232Z" fill="#F3F3F3"/>
<path d="M45.524 37.4226C45.4887 37.5642 45.3291 37.6707 45.1873 37.6174L43.5921 37.1743C43.4504 37.1388 43.3616 36.9793 43.3971 36.8377C43.4326 36.6957 43.5921 36.5894 43.7339 36.6426L45.3291 37.0857C45.4709 37.1212 45.5597 37.263 45.524 37.4224V37.4226ZM43.4504 36.8373C43.4149 36.9615 43.4858 37.1033 43.6099 37.1386L45.2051 37.5817C45.3291 37.6172 45.4532 37.5463 45.4887 37.4045C45.524 37.2804 45.4532 37.1386 45.3291 37.1033L43.7339 36.6602C43.6099 36.6424 43.4858 36.7132 43.4504 36.8375V36.8373Z" fill="white"/>
<path d="M48.0057 36.5719C47.9526 36.7135 47.7929 36.7667 47.669 36.7135L44.2481 35.2956C44.1241 35.2425 44.0533 35.083 44.1063 34.9589C44.1596 34.8171 44.3191 34.7639 44.4431 34.8171L47.8639 36.235C48.0057 36.2881 48.0589 36.4476 48.0057 36.5717V36.5719Z" fill="#F3F3F3"/>
<path d="M48.0231 36.5895C47.9972 36.6577 47.9453 36.7127 47.8788 36.7426C47.8123 36.7725 47.7367 36.7748 47.6685 36.7491L44.2478 35.3312C44.106 35.2781 44.0529 35.1186 44.106 34.959C44.1319 34.8909 44.1838 34.8359 44.2503 34.806C44.3168 34.7761 44.3924 34.7737 44.4606 34.7995L47.8813 36.2174C48.0231 36.2882 48.0762 36.4479 48.0231 36.5895ZM44.1415 34.9768C44.0884 35.1008 44.1415 35.2426 44.2655 35.2957L47.6863 36.7136C47.8103 36.7668 47.9344 36.6958 47.9876 36.5718C48.0407 36.4478 47.9876 36.306 47.8636 36.2529L44.4428 34.835C44.3188 34.7995 44.177 34.8527 44.1415 34.9768Z" fill="white"/>
<path d="M46.8532 34.1792C46.7824 34.3033 46.6407 34.3565 46.5166 34.3033L45.0454 33.559C44.9214 33.5058 44.8682 33.3462 44.9391 33.2044C45.01 33.0804 45.1517 33.0271 45.2758 33.0804L46.7468 33.8248C46.871 33.8956 46.9242 34.0554 46.8532 34.1792Z" fill="#F3F3F3"/>
<path d="M46.8715 34.1972C46.8005 34.339 46.6409 34.3922 46.4991 34.3213L45.0282 33.5768C44.8864 33.506 44.8331 33.3465 44.9041 33.2047C44.9749 33.0629 45.1346 33.0096 45.2762 33.0806L46.7472 33.8251C46.8892 33.8781 46.9423 34.0556 46.8715 34.1972ZM44.9572 33.2224C44.9041 33.3465 44.9396 33.4883 45.0637 33.5415L46.5346 34.286C46.6411 34.339 46.7829 34.286 46.8537 34.1795C46.9068 34.0554 46.8715 33.9136 46.7474 33.8604L45.2583 33.1163C45.152 33.0632 45.0102 33.0986 44.957 33.2226L44.9572 33.2224Z" fill="white"/>
<path d="M49.4595 33.8425C49.3709 33.9667 49.2291 34.0022 49.1051 33.9135L46.0387 31.8754C45.9149 31.8044 45.8971 31.6448 45.9679 31.5208C46.0389 31.3967 46.1984 31.3612 46.3225 31.4498L49.4064 33.5059C49.5127 33.5769 49.5482 33.7364 49.4595 33.8425Z" fill="#F3F3F3"/>
<path d="M49.4761 33.8599C49.3876 33.9841 49.2103 34.0194 49.0864 33.9486L46.0201 31.8925C45.896 31.804 45.8605 31.6445 45.9491 31.5028C46.0378 31.3786 46.2151 31.3431 46.3391 31.4141L49.4053 33.47C49.5471 33.5587 49.5649 33.7358 49.4761 33.8599ZM45.9846 31.5204C45.9138 31.6267 45.9315 31.7862 46.0376 31.857L49.1217 33.9133C49.228 33.9843 49.3698 33.9488 49.4408 33.8425C49.5116 33.736 49.4939 33.5765 49.3877 33.5057L46.3035 31.4496C46.1972 31.3786 46.0554 31.4141 45.9844 31.5204H45.9846Z" fill="white"/>
<path d="M48.8031 31.2726C48.7145 31.3789 48.555 31.4144 48.4487 31.3257L47.1548 30.3156C47.0485 30.2269 47.0308 30.0673 47.1193 29.961C47.2079 29.8547 47.3674 29.8192 47.4739 29.908L48.7676 30.9181C48.874 31.0068 48.8918 31.1662 48.8031 31.2726Z" fill="#F3F3F3"/>
<path d="M48.8212 31.2902C48.7327 31.4145 48.5554 31.4322 48.4313 31.3435L47.1375 30.3334C47.0134 30.2448 46.9957 30.0675 47.0844 29.9437C47.173 29.8194 47.3502 29.8017 47.4741 29.8904L48.768 30.9005C48.8922 30.9893 48.91 31.1664 48.8212 31.2906V31.2902ZM47.1197 29.961C47.0312 30.0673 47.0489 30.2091 47.1552 30.2977L48.4491 31.3082C48.5554 31.379 48.6972 31.3612 48.7857 31.2549C48.8745 31.1486 48.8567 31.0068 48.7504 30.9183L47.4565 29.9078C47.3502 29.837 47.2083 29.8547 47.1199 29.961H47.1197Z" fill="white"/>
<path d="M51.4443 31.4496C51.3382 31.5561 51.1784 31.5561 51.0899 31.4496L48.4493 28.8443C48.343 28.738 48.3605 28.5785 48.4493 28.4897C48.5556 28.3836 48.7151 28.3836 48.8037 28.4897L51.4269 31.0952C51.5332 31.1838 51.5332 31.3611 51.4446 31.4498L51.4443 31.4496Z" fill="#F3F3F3"/>
<path d="M51.4442 31.4678C51.3922 31.5189 51.3222 31.5475 51.2493 31.5475C51.1764 31.5475 51.1065 31.5189 51.0545 31.4678L48.4311 28.8622C48.3799 28.8101 48.3512 28.7401 48.3512 28.6671C48.3512 28.5942 48.3799 28.5241 48.4311 28.4721C48.4831 28.421 48.5531 28.3923 48.626 28.3923C48.6989 28.3923 48.7689 28.421 48.8209 28.4721L51.4442 31.0776C51.5682 31.1839 51.5682 31.3612 51.4442 31.4675V31.4678ZM48.4669 28.5076C48.3782 28.5963 48.3782 28.7559 48.4669 28.8442L51.09 31.4497C51.1787 31.5385 51.3381 31.5385 51.4266 31.4497C51.5153 31.3612 51.5153 31.2016 51.4266 31.1131L48.8036 28.49C48.715 28.4015 48.573 28.4015 48.4669 28.5078V28.5076Z" fill="white"/>
<path d="M51.2846 28.8086C51.1783 28.8974 51.0187 28.8974 50.93 28.7909L49.8487 27.5502C49.7603 27.4439 49.7779 27.2844 49.8844 27.1959C49.9905 27.1071 50.1502 27.1071 50.2388 27.2134L51.32 28.4542C51.4086 28.5428 51.3909 28.7023 51.2846 28.8086Z" fill="#F3F3F3"/>
<path d="M51.3029 28.8089C51.1789 28.9152 51.0193 28.8976 50.9128 28.7912L49.8317 27.5505C49.7254 27.4442 49.7432 27.2669 49.8672 27.1607C49.9913 27.0542 50.1508 27.0719 50.2571 27.1784L51.3384 28.4188C51.427 28.5431 51.427 28.7204 51.3029 28.8089ZM49.885 27.1961C49.7785 27.2847 49.7785 27.4265 49.8495 27.5328L50.9308 28.7734C51.0193 28.8622 51.1611 28.8799 51.2674 28.7912C51.3737 28.7026 51.3737 28.5606 51.3029 28.4545L50.2216 27.2137C50.1331 27.1076 49.9911 27.1076 49.885 27.1961Z" fill="white"/>
<path d="M53.8365 29.4823C53.7124 29.5709 53.5529 29.5354 53.4819 29.4113L51.4083 26.345C51.3373 26.2209 51.3728 26.0614 51.4791 25.9906C51.6031 25.902 51.7627 25.9375 51.8337 26.0616L53.8895 29.1277C53.9783 29.2518 53.9428 29.4113 53.8365 29.4821V29.4823Z" fill="#F3F3F3"/>
<path d="M53.8372 29.5C53.7132 29.5887 53.5359 29.5531 53.4472 29.4292L51.3913 26.3628C51.3027 26.2388 51.3382 26.0617 51.4798 25.9731C51.6039 25.8844 51.7812 25.9199 51.8699 26.0439L53.9258 29.1101C54.0143 29.2519 53.9788 29.4114 53.8372 29.5ZM51.4974 26.0084C51.3911 26.0792 51.3556 26.221 51.4266 26.3275L53.4825 29.3937C53.5535 29.5 53.6953 29.5177 53.8191 29.4468C53.9256 29.376 53.9611 29.2342 53.8901 29.1279L51.8344 26.0792C51.7634 25.9731 51.6039 25.9375 51.4978 26.0084H51.4974Z" fill="white"/>
<path d="M54.2087 26.859C54.0847 26.9298 53.9252 26.8945 53.8544 26.7704L53.0389 25.3348C52.9681 25.2107 53.0212 25.0512 53.1454 24.9802C53.2694 24.9094 53.429 24.9447 53.4998 25.0689L54.315 26.5044C54.3683 26.6285 54.3328 26.788 54.2089 26.859H54.2087Z" fill="#F3F3F3"/>
<path d="M54.2089 26.8767C54.0671 26.9475 53.9076 26.9122 53.8368 26.788L53.0213 25.3525C52.9505 25.2283 52.986 25.0512 53.1278 24.9802C53.2696 24.9094 53.4291 24.9447 53.4999 25.0689L54.3152 26.5044C54.3862 26.6285 54.3507 26.788 54.2091 26.8767H54.2089ZM53.1456 24.9979C53.0391 25.0687 52.986 25.2105 53.0568 25.317L53.8723 26.7527C53.9431 26.8588 54.0849 26.8945 54.1912 26.8412C54.2976 26.7704 54.3507 26.6285 54.2799 26.5222L53.4645 25.0865C53.4114 24.9804 53.2519 24.9269 53.1456 24.9979Z" fill="white"/>
<path d="M56.5662 28.0292C56.4246 28.0823 56.2827 28.0292 56.2296 27.9052L54.7939 24.4843C54.7409 24.3602 54.8117 24.2007 54.9357 24.1474C55.0775 24.0944 55.2193 24.1474 55.2724 24.2715L56.708 27.6922C56.7613 27.8163 56.6905 27.9758 56.5662 28.0289V28.0292Z" fill="#F3F3F3"/>
<path d="M56.5662 28.0467C56.4245 28.0997 56.265 28.0467 56.194 27.9047L54.7584 24.4841C54.7326 24.4159 54.7349 24.3403 54.7648 24.2739C54.7948 24.2074 54.8498 24.1555 54.9179 24.1296C55.0597 24.0765 55.2192 24.1296 55.2902 24.2713L56.7257 27.6921C56.7789 27.8161 56.7081 27.9757 56.5663 28.0467H56.5662ZM54.9534 24.165C54.8293 24.2181 54.7761 24.3601 54.8293 24.4664L56.2648 27.8869C56.3179 28.011 56.4597 28.0641 56.5837 28.011C56.7078 27.9579 56.7612 27.816 56.7078 27.7097L55.2723 24.2889C55.2013 24.1649 55.0772 24.1116 54.9532 24.1649L54.9534 24.165Z" fill="white"/>
<path d="M57.4344 25.5124C57.2926 25.5654 57.1509 25.4944 57.0978 25.3528L56.5837 23.7929C56.5306 23.6689 56.6192 23.5093 56.7432 23.474C56.8673 23.4385 57.0268 23.4918 57.0799 23.6336L57.594 25.1933C57.647 25.3173 57.5762 25.4591 57.4344 25.5122V25.5124Z" fill="#F3F3F3"/>
<path d="M57.452 25.5298C57.3839 25.5555 57.3083 25.5531 57.2419 25.5232C57.1755 25.4933 57.1236 25.4383 57.0976 25.3703L56.5835 23.8106C56.5305 23.6688 56.619 23.5094 56.761 23.4562C56.8292 23.4305 56.9047 23.4328 56.9712 23.4627C57.0376 23.4926 57.0894 23.5476 57.1154 23.6157L57.6293 25.1754C57.6648 25.3172 57.5938 25.4768 57.452 25.5298ZM56.7608 23.4917C56.6368 23.527 56.5658 23.6688 56.6013 23.7928L57.1154 25.3527C57.1507 25.4768 57.2925 25.5298 57.4167 25.4943C57.5408 25.459 57.6116 25.3172 57.5761 25.1932L57.0622 23.6333C57.0531 23.6032 57.0379 23.5753 57.0173 23.5515C56.9968 23.5277 56.9715 23.5085 56.9431 23.4952C56.9147 23.4818 56.8838 23.4745 56.8524 23.4739C56.821 23.4733 56.7898 23.4793 56.7608 23.4915V23.4917Z" fill="white"/>
<path d="M59.5261 27.1249C59.3843 27.1604 59.2425 27.0718 59.2247 26.9298L58.4803 23.2965C58.4448 23.1547 58.5513 23.0306 58.6929 22.9951C58.8348 22.9596 58.9765 23.0482 58.9942 23.1902L59.7388 26.8237C59.7564 26.9476 59.6678 27.0894 59.5261 27.1249Z" fill="#F3F3F3"/>
<path d="M59.526 27.1425C59.3665 27.178 59.2247 27.0716 59.1892 26.9298L58.4447 23.2964C58.4093 23.1546 58.5157 22.9951 58.6575 22.9773C58.8171 22.9418 58.9589 23.0483 58.9942 23.1901L59.7388 26.8237C59.7741 26.9653 59.6856 27.1072 59.526 27.1425ZM58.693 23.0128C58.5688 23.0306 58.4802 23.1546 58.498 23.2964L59.2424 26.93C59.2602 27.0538 59.4018 27.1425 59.526 27.1071C59.6501 27.0893 59.7386 26.9653 59.7209 26.8235L58.9764 23.1899C58.9411 23.0661 58.8171 22.9951 58.6928 23.0128H58.693Z" fill="white"/>
<path d="M60.8733 24.821C60.7315 24.8388 60.6074 24.7502 60.572 24.6084L60.3594 22.9777C60.3416 22.8359 60.4479 22.7119 60.5899 22.6941C60.7315 22.6764 60.8555 22.7651 60.891 22.9069L61.1036 24.5374C61.1214 24.6792 61.0151 24.8033 60.8733 24.821Z" fill="#F3F3F3"/>
<path d="M60.8733 24.8388C60.7138 24.8566 60.572 24.7503 60.5542 24.6083L60.3417 22.9778C60.3239 22.836 60.4302 22.6942 60.5897 22.6765C60.7493 22.6589 60.8911 22.7652 60.9088 22.907L61.1214 24.5375C61.1392 24.6793 61.0329 24.8211 60.8733 24.8388ZM60.6075 22.712C60.4834 22.7297 60.377 22.8537 60.3947 22.9778L60.6075 24.6085C60.6252 24.7325 60.7493 24.8211 60.8733 24.8033C60.9974 24.7858 61.1039 24.6615 61.0861 24.5375L60.8733 22.907C60.8556 22.7829 60.7315 22.6942 60.6075 22.712Z" fill="white"/>
<path d="M62.7873 63.6543C74.3772 63.6543 83.7726 54.2589 83.7726 42.6691C83.7726 31.0792 74.3772 21.6838 62.7873 21.6838C51.1975 21.6838 41.8021 31.0792 41.8021 42.6691C41.8021 54.2589 51.1975 63.6543 62.7873 63.6543Z" fill="url(#paint2_linear_1_844)" fill-opacity="0.2"/>
<g filter="url(#filter1_d_1_844)">
<path d="M77.3209 29.3582L60.3944 40.2053H60.3766V40.2229L60.3589 40.2406L49.7957 57.6635L65.3218 45.1681L65.3395 45.1505V45.1327L77.321 29.3583L77.3209 29.3582Z" fill="black" fill-opacity="0.05"/>
</g>
<path d="M77.002 28.3479L60.2705 40.2407L65.2332 45.1679L77.002 28.3479Z" fill="#CD151E"/>
<path d="M60.2882 40.2054L62.7874 42.6689L77.0019 28.3479L60.2882 40.2054Z" fill="#FA5153"/>
<path d="M60.2883 40.2055L65.251 45.1325L48.5195 57.0255L60.2883 40.2053V40.2055Z" fill="#ACACAC"/>
<path d="M48.5195 57.0255L62.7873 42.669L60.2881 40.2053L48.5195 57.0255Z" fill="#EEEEEE"/>
<defs>
<filter id="filter0_d_1_844" x="0.914062" y="0.46875" width="123.498" height="123.499" filterUnits="userSpaceOnUse" color-interpolation-filters="sRGB">
<feFlood flood-opacity="0" result="BackgroundImageFix"/>
<feColorMatrix in="SourceAlpha" type="matrix" values="0 0 0 0 0 0 0 0 0 0 0 0 0 0 0 0 0 0 127 0" result="hardAlpha"/>
<feOffset dy="19.5312"/>
<feGaussianBlur stdDeviation="19.5312"/>
<feColorMatrix type="matrix" values="0 0 0 0 0 0 0 0 0 0 0 0 0 0 0 0 0 0 0.266007 0"/>
<feBlend mode="normal" in2="BackgroundImageFix" result="effect1_dropShadow_1_844"/>
<feBlend mode="normal" in="SourceGraphic" in2="effect1_dropShadow_1_844" result="shape"/>
</filter>
<filter id="filter1_d_1_844" x="10.7332" y="0.0612793" width="105.65" height="106.43" filterUnits="userSpaceOnUse" color-interpolation-filters="sRGB">
<feFlood flood-opacity="0" result="BackgroundImageFix"/>
<feColorMatrix in="SourceAlpha" type="matrix" values="0 0 0 0 0 0 0 0 0 0 0 0 0 0 0 0 0 0 127 0" result="hardAlpha"/>
<feOffset dy="9.76562"/>
<feGaussianBlur stdDeviation="19.5312"/>
<feColorMatrix type="matrix" values="0 0 0 0 0 0 0 0 0 0 0 0 0 0 0 0 0 0 1 0"/>
<feBlend mode="normal" in2="BackgroundImageFix" result="effect1_dropShadow_1_844"/>
<feBlend mode="normal" in="SourceGraphic" in2="effect1_dropShadow_1_844" result="shape"/>
</filter>
<linearGradient id="paint0_linear_1_844" x1="62.6633" y1="65.3734" x2="62.6633" y2="20" gradientUnits="userSpaceOnUse">
<stop offset="0.25" stop-color="#DBDBDA"/>
<stop offset="1" stop-color="white"/>
</linearGradient>
<radialGradient id="paint1_radial_1_844" cx="0" cy="0" r="1" gradientUnits="userSpaceOnUse" gradientTransform="translate(65.6117 38.077) scale(25.6154)">
<stop stop-color="#2ABCE1"/>
<stop offset="0.11363" stop-color="#2ABBE1"/>
<stop offset="1" stop-color="#3375F8"/>
</radialGradient>
<linearGradient id="paint2_linear_1_844" x1="62.3886" y1="36.6685" x2="52.594" y2="54.2411" gradientUnits="userSpaceOnUse">
<stop stop-opacity="0"/>
<stop offset="1"/>
</linearGradient>
</defs>
</svg>
