<svg width="25" height="25" viewBox="0 0 25 25" fill="none" xmlns="http://www.w3.org/2000/svg">
<path d="M12.1647 24.6817C18.8037 24.6817 24.1857 19.2997 24.1857 12.6607C24.1857 6.02165 18.8037 0.639648 12.1647 0.639648C5.52566 0.639648 0.143661 6.02165 0.143661 12.6607C0.143661 19.2997 5.52566 24.6817 12.1647 24.6817Z" fill="#55ACEE"/>
<path d="M19.5277 9.27907C19.0126 9.5075 18.4584 9.662 17.8773 9.731C18.4706 9.3755 18.926 8.813 19.1409 8.14164C18.5857 8.471 17.9705 8.70993 17.3163 8.83872C16.7921 8.2805 16.0453 7.93164 15.2184 7.93164C13.6318 7.93164 12.345 9.21843 12.345 10.805C12.345 11.0302 12.3705 11.2494 12.4198 11.4599C10.0318 11.3401 7.91445 10.1962 6.49716 8.45728C6.24987 8.88157 6.10801 9.3755 6.10801 9.902C6.10801 10.8986 6.61566 11.7785 7.38623 12.2937C6.91544 12.2789 6.47209 12.1497 6.08487 11.9339C6.08466 11.9461 6.08466 11.9583 6.08466 11.9703C6.08466 13.3625 7.07552 14.5237 8.38974 14.7875C8.14888 14.8535 7.89452 14.8884 7.63288 14.8884C7.4473 14.8884 7.26752 14.8707 7.09223 14.8372C7.4578 15.9785 8.51874 16.8093 9.77638 16.8327C8.79281 17.6035 7.55402 18.0627 6.20744 18.0627C5.97601 18.0627 5.74673 18.0492 5.52237 18.0224C6.7933 18.838 8.30402 19.3135 9.9266 19.3135C15.2118 19.3135 18.102 14.9352 18.102 11.1378C18.102 11.0133 18.0993 10.8892 18.0937 10.7662C18.6555 10.3612 19.1426 9.85529 19.5277 9.27907Z" fill="#F1F2F2"/>
</svg>
